SplineFontDB: 3.0
FontName: WorkAvec-Medium
FullName: Work Avec Medium
FamilyName: Work Avec Medium
Weight: Medium
Copyright: Copyright (c) 2015 by Wei Huang - Modified by Pierre Huyghebaert for OSP, 2015
Version: 1.400
ItalicAngle: 0
UnderlinePosition: -50
UnderlineWidth: 50
Ascent: 800
Descent: 200
InvalidEm: 0
sfntRevision: 0x00016666
LayerCount: 2
Layer: 0 1 "Arri+AOgA-re" 1
Layer: 1 1 "Avant" 0
XUID: [1021 878 1716694747 1920426]
FSType: 0
OS2Version: 3
OS2_WeightWidthSlopeOnly: 0
OS2_UseTypoMetrics: 1
CreationTime: 1438434648
ModificationTime: 1445958899
PfmFamily: 81
TTFWeight: 500
TTFWidth: 5
LineGap: 0
VLineGap: 0
Panose: 0 0 6 0 0 0 0 0 0 0
OS2TypoAscent: 930
OS2TypoAOffset: 0
OS2TypoDescent: -243
OS2TypoDOffset: 0
OS2TypoLinegap: 0
OS2WinAscent: 930
OS2WinAOffset: 0
OS2WinDescent: 243
OS2WinDOffset: 0
HheadAscent: 930
HheadAOffset: 0
HheadDescent: -243
HheadDOffset: 0
OS2SubXSize: 650
OS2SubYSize: 600
OS2SubXOff: 0
OS2SubYOff: 75
OS2SupXSize: 650
OS2SupYSize: 600
OS2SupXOff: 0
OS2SupYOff: 350
OS2StrikeYSize: 50
OS2StrikeYPos: 300
OS2CapHeight: 0
OS2XHeight: 0
OS2Vendor: 'UKWN'
OS2CodePages: 20000093.00000000
OS2UnicodeRanges: 00000007.00000001.00000000.00000000
Lookup: 1 0 0 "'aalt' Access All Alternates lookup 0" { "'aalt' Access All Alternates lookup 0 subtable"  } ['aalt' ('DFLT' <'dflt' > 'grek' <'dflt' > 'latn' <'CAT ' 'MOL ' 'NLD ' 'ROM ' 'TRK ' 'dflt' > ) ]
Lookup: 3 0 0 "'aalt' Access All Alternates lookup 1" { "'aalt' Access All Alternates lookup 1 subtable"  } ['aalt' ('DFLT' <'dflt' > 'grek' <'dflt' > 'latn' <'CAT ' 'MOL ' 'NLD ' 'ROM ' 'TRK ' 'dflt' > ) ]
Lookup: 1 0 0 "'locl' Localized Forms in Latin lookup 2" { "'locl' Localized Forms in Latin lookup 2 subtable"  } ['locl' ('latn' <'TRK ' > ) ]
Lookup: 1 0 0 "'locl' Localized Forms in Latin lookup 3" { "'locl' Localized Forms in Latin lookup 3 subtable"  } ['locl' ('latn' <'TAT ' > ) ]

StartChar: .notdef
Encoding: 65536 -1 0
Width: 500
Flags: W
LayerCount: 2
Back
Fore
SplineSet
50 660 m 1,0,-1
 450 660 l 1,1,-1
 450 0 l 1,2,-1
 50 0 l 1,3,-1
 50 660 l 1,0,-1
370 80 m 1,4,-1
 370 580 l 1,5,-1
 130 580 l 1,6,-1
 130 80 l 1,7,-1
 370 80 l 1,4,-1
EndSplineSet
Validated: 1
EndChar

StartChar: A
Encoding: 65 65 2
Width: 665
GlyphClass: 2
Flags: W
LayerCount: 2
Back
Fore
SplineSet
471 173 m 1,0,-1
 193 173 l 1,1,-1
 130 0 l 1,2,-1
 20 0 l 1,3,-1
 269 660 l 1,4,-1
 397 660 l 1,5,-1
 646 0 l 1,6,-1
 533 0 l 1,7,-1
 471 173 l 1,0,-1
439 260 m 1,8,-1
 363 472 l 1,9,-1
 333 567 l 1,10,-1
 330 567 l 1,11,-1
 302 474 l 1,12,-1
 224 260 l 1,13,-1
 439 260 l 1,8,-1
EndSplineSet
Validated: 1
Substitution2: "Single Substitution lookup 56 subtable" A.swsh
Substitution2: "Single Substitution lookup 55 subtable" ordfeminine
Substitution2: "'swsh' Swash lookup 32 subtable" A.swsh
Substitution2: "'c2sc' Capitals to Small Capitals lookup 11 subtable" a.sc
AlternateSubs2: "'aalt' Access All Alternates lookup 1 subtable" a.sc ordfeminine A.swsh
EndChar

StartChar: Aacute
Encoding: 193 193 3
Width: 665
GlyphClass: 2
Flags: W
LayerCount: 2
Back
Fore
SplineSet
364 737 m 1,0,-1
 282 737 l 1,1,-1
 338 888 l 1,2,-1
 452 888 l 1,3,-1
 364 737 l 1,0,-1
471 173 m 1,4,-1
 193 173 l 1,5,-1
 130 0 l 1,6,-1
 20 0 l 1,7,-1
 269 660 l 1,8,-1
 397 660 l 1,9,-1
 646 0 l 1,10,-1
 533 0 l 1,11,-1
 471 173 l 1,4,-1
439 260 m 1,12,-1
 363 472 l 1,13,-1
 333 567 l 1,14,-1
 330 567 l 1,15,-1
 302 474 l 1,16,-1
 224 260 l 1,17,-1
 439 260 l 1,12,-1
EndSplineSet
Validated: 1
Substitution2: "Single Substitution lookup 56 subtable" Aacute.swsh
Substitution2: "'swsh' Swash lookup 32 subtable" Aacute.swsh
Substitution2: "'c2sc' Capitals to Small Capitals lookup 11 subtable" aacute.sc
AlternateSubs2: "'aalt' Access All Alternates lookup 1 subtable" aacute.sc Aacute.swsh
EndChar

StartChar: Acircumflex
Encoding: 194 194 5
Width: 665
GlyphClass: 2
Flags: W
LayerCount: 2
Back
Fore
SplineSet
253 731 m 1,0,-1
 164 731 l 1,1,-1
 277 898 l 1,2,-1
 389 898 l 1,3,-1
 502 731 l 1,4,-1
 413 731 l 1,5,-1
 333 838 l 1,6,-1
 253 731 l 1,0,-1
471 173 m 1,7,-1
 193 173 l 1,8,-1
 130 0 l 1,9,-1
 20 0 l 1,10,-1
 269 660 l 1,11,-1
 397 660 l 1,12,-1
 646 0 l 1,13,-1
 533 0 l 1,14,-1
 471 173 l 1,7,-1
439 260 m 1,15,-1
 363 472 l 1,16,-1
 333 567 l 1,17,-1
 330 567 l 1,18,-1
 302 474 l 1,19,-1
 224 260 l 1,20,-1
 439 260 l 1,15,-1
EndSplineSet
Validated: 1
Substitution2: "Single Substitution lookup 56 subtable" Acircumflex.swsh
Substitution2: "'swsh' Swash lookup 32 subtable" Acircumflex.swsh
Substitution2: "'c2sc' Capitals to Small Capitals lookup 11 subtable" acircumflex.sc
AlternateSubs2: "'aalt' Access All Alternates lookup 1 subtable" acircumflex.sc Acircumflex.swsh
EndChar

StartChar: Agrave
Encoding: 192 192 7
Width: 665
GlyphClass: 2
Flags: W
LayerCount: 2
Back
Fore
SplineSet
290 737 m 1,0,-1
 202 888 l 1,1,-1
 316 888 l 1,2,-1
 372 737 l 1,3,-1
 290 737 l 1,0,-1
471 173 m 1,4,-1
 193 173 l 1,5,-1
 130 0 l 1,6,-1
 20 0 l 1,7,-1
 269 660 l 1,8,-1
 397 660 l 1,9,-1
 646 0 l 1,10,-1
 533 0 l 1,11,-1
 471 173 l 1,4,-1
439 260 m 1,12,-1
 363 472 l 1,13,-1
 333 567 l 1,14,-1
 330 567 l 1,15,-1
 302 474 l 1,16,-1
 224 260 l 1,17,-1
 439 260 l 1,12,-1
EndSplineSet
Validated: 1
Substitution2: "Single Substitution lookup 56 subtable" Agrave.swsh
Substitution2: "'swsh' Swash lookup 32 subtable" Agrave.swsh
Substitution2: "'c2sc' Capitals to Small Capitals lookup 11 subtable" agrave.sc
AlternateSubs2: "'aalt' Access All Alternates lookup 1 subtable" agrave.sc Agrave.swsh
EndChar

StartChar: Aogonek
Encoding: 260 260 9
Width: 665
GlyphClass: 2
Flags: W
LayerCount: 2
Back
Fore
SplineSet
656 -195 m 1,0,1
 625 -215 625 -215 567 -215 c 0,2,3
 510 -215 510 -215 476 -187 c 128,-1,4
 442 -159 442 -159 442 -108 c 0,5,6
 442 -30 442 -30 530 10 c 1,7,-1
 471 173 l 1,8,-1
 193 173 l 1,9,-1
 130 0 l 1,10,-1
 20 0 l 1,11,-1
 269 660 l 1,12,-1
 397 660 l 1,13,-1
 646 0 l 1,14,-1
 645 0 l 1,15,16
 576 -20 576 -20 549.5 -43.5 c 128,-1,17
 523 -67 523 -67 523 -97 c 0,18,19
 523 -120 523 -120 539.5 -133 c 128,-1,20
 556 -146 556 -146 585 -146 c 0,21,22
 620 -146 620 -146 638 -134 c 1,23,-1
 656 -195 l 1,0,1
439 260 m 1,24,-1
 363 472 l 1,25,-1
 333 567 l 1,26,-1
 330 567 l 1,27,-1
 302 474 l 1,28,-1
 224 260 l 1,29,-1
 439 260 l 1,24,-1
EndSplineSet
Validated: 1
Substitution2: "Single Substitution lookup 56 subtable" Aogonek.swsh
Substitution2: "'swsh' Swash lookup 32 subtable" Aogonek.swsh
Substitution2: "'c2sc' Capitals to Small Capitals lookup 11 subtable" aogonek.sc
AlternateSubs2: "'aalt' Access All Alternates lookup 1 subtable" aogonek.sc Aogonek.swsh
EndChar

StartChar: Aring
Encoding: 197 197 10
Width: 665
GlyphClass: 2
Flags: W
LayerCount: 2
Back
Fore
SplineSet
471 173 m 1,0,-1
 193 173 l 1,1,-1
 130 0 l 1,2,-1
 20 0 l 1,3,-1
 259 630 l 1,4,5
 231 645 231 645 215.5 671.5 c 128,-1,6
 200 698 200 698 200 733 c 0,7,8
 200 787 200 787 237 821 c 128,-1,9
 274 855 274 855 334 855 c 256,10,11
 394 855 394 855 430 821 c 128,-1,12
 466 787 466 787 466 733 c 0,13,14
 466 698 466 698 450.5 671.5 c 128,-1,15
 435 645 435 645 407 630 c 1,16,-1
 646 0 l 1,17,-1
 533 0 l 1,18,-1
 471 173 l 1,0,-1
284 779 m 128,-1,20
 265 761 265 761 265 732 c 256,21,22
 265 703 265 703 284 685 c 128,-1,23
 303 667 303 667 333 667 c 0,24,25
 362 667 362 667 381 685 c 128,-1,26
 400 703 400 703 400 732 c 0,27,28
 400 760 400 760 381 778.5 c 128,-1,29
 362 797 362 797 333 797 c 0,30,19
 303 797 303 797 284 779 c 128,-1,20
439 260 m 1,31,-1
 363 472 l 1,32,-1
 333 567 l 1,33,-1
 330 567 l 1,34,-1
 302 474 l 1,35,-1
 224 260 l 1,36,-1
 439 260 l 1,31,-1
EndSplineSet
Validated: 1
Substitution2: "'c2sc' Capitals to Small Capitals lookup 11 subtable" aring.sc
Substitution2: "'aalt' Access All Alternates lookup 0 subtable" aring.sc
EndChar

StartChar: AE
Encoding: 198 198 12
Width: 945
GlyphClass: 2
Flags: W
LayerCount: 2
Back
Fore
SplineSet
899 90 m 1,0,-1
 899 0 l 1,1,-1
 442 0 l 1,2,-1
 442 208 l 1,3,-1
 223 208 l 1,4,-1
 115 0 l 1,5,-1
 3 0 l 1,6,-1
 358 660 l 1,7,-1
 885 660 l 1,8,-1
 885 570 l 1,9,-1
 546 570 l 1,10,-1
 546 378 l 1,11,-1
 804 378 l 1,12,-1
 804 289 l 1,13,-1
 546 289 l 1,14,-1
 546 90 l 1,15,-1
 899 90 l 1,0,-1
442 294 m 1,16,-1
 442 571 l 1,17,-1
 411 571 l 1,18,-1
 268 294 l 1,19,-1
 442 294 l 1,16,-1
EndSplineSet
Validated: 1
Substitution2: "'c2sc' Capitals to Small Capitals lookup 11 subtable" ae.sc
Substitution2: "'aalt' Access All Alternates lookup 0 subtable" ae.sc
EndChar

StartChar: B
Encoding: 66 66 13
Width: 662
GlyphClass: 2
Flags: W
LayerCount: 2
Back
Fore
SplineSet
98 660 m 1,0,-1
 358 660 l 2,1,2
 474 660 474 660 530.5 613 c 128,-1,3
 587 566 587 566 587 479 c 0,4,5
 587 425 587 425 556 385 c 128,-1,6
 525 345 525 345 469 335 c 1,7,-1
 469 334 l 1,8,9
 531 324 531 324 567.5 282 c 128,-1,10
 604 240 604 240 604 183 c 0,11,12
 604 97 604 97 541 48.5 c 128,-1,13
 478 0 478 0 362 0 c 2,14,-1
 98 0 l 1,15,-1
 98 660 l 1,0,-1
350 376 m 2,16,17
 476 376 476 376 476 473 c 256,18,19
 476 570 476 570 350 570 c 2,20,-1
 203 570 l 1,21,-1
 203 376 l 1,22,-1
 350 376 l 2,16,17
367 89 m 2,23,24
 429 89 429 89 461 114.5 c 128,-1,25
 493 140 493 140 493 188 c 256,26,27
 493 236 493 236 461 261.5 c 128,-1,28
 429 287 429 287 367 287 c 2,29,-1
 203 287 l 1,30,-1
 203 89 l 1,31,-1
 367 89 l 2,23,24
EndSplineSet
Validated: 1
Substitution2: "'c2sc' Capitals to Small Capitals lookup 11 subtable" b.sc
Substitution2: "'aalt' Access All Alternates lookup 0 subtable" b.sc
EndChar

StartChar: C
Encoding: 67 67 14
Width: 684
GlyphClass: 2
Flags: W
LayerCount: 2
Back
Fore
SplineSet
542.5 38 m 128,-1,1
 470 -10 470 -10 372 -10 c 0,2,3
 277 -10 277 -10 207 31 c 128,-1,4
 137 72 137 72 99 149 c 128,-1,5
 61 226 61 226 61 330 c 256,6,7
 61 434 61 434 99 511 c 128,-1,8
 137 588 137 588 207 629 c 128,-1,9
 277 670 277 670 371 670 c 0,10,11
 470 670 470 670 537.5 629 c 128,-1,12
 605 588 605 588 635 508 c 1,13,-1
 534 463 l 1,14,15
 514 522 514 522 476 549.5 c 128,-1,16
 438 577 438 577 377 577 c 0,17,18
 284 577 284 577 228.5 511.5 c 128,-1,19
 173 446 173 446 173 330 c 0,20,21
 173 213 173 213 226 148 c 128,-1,22
 279 83 279 83 373 83 c 0,23,24
 437 83 437 83 480.5 115 c 128,-1,25
 524 147 524 147 543 209 c 1,26,-1
 645 175 l 1,27,0
 615 86 615 86 542.5 38 c 128,-1,1
EndSplineSet
Validated: 1
Substitution2: "'c2sc' Capitals to Small Capitals lookup 11 subtable" c.sc
Substitution2: "'aalt' Access All Alternates lookup 0 subtable" c.sc
EndChar

StartChar: Cacute
Encoding: 262 262 15
Width: 684
GlyphClass: 2
Flags: W
LayerCount: 2
Back
Fore
SplineSet
489 888 m 1,0,-1
 401 737 l 1,1,-1
 319 737 l 1,2,-1
 375 888 l 1,3,-1
 489 888 l 1,0,-1
542.5 38 m 128,-1,5
 470 -10 470 -10 372 -10 c 0,6,7
 277 -10 277 -10 207 31 c 128,-1,8
 137 72 137 72 99 149 c 128,-1,9
 61 226 61 226 61 330 c 256,10,11
 61 434 61 434 99 511 c 128,-1,12
 137 588 137 588 207 629 c 128,-1,13
 277 670 277 670 371 670 c 0,14,15
 470 670 470 670 537.5 629 c 128,-1,16
 605 588 605 588 635 508 c 1,17,-1
 534 463 l 1,18,19
 514 522 514 522 476 549.5 c 128,-1,20
 438 577 438 577 377 577 c 0,21,22
 284 577 284 577 228.5 511.5 c 128,-1,23
 173 446 173 446 173 330 c 0,24,25
 173 213 173 213 226 148 c 128,-1,26
 279 83 279 83 373 83 c 0,27,28
 437 83 437 83 480.5 115 c 128,-1,29
 524 147 524 147 543 209 c 1,30,-1
 645 175 l 1,31,4
 615 86 615 86 542.5 38 c 128,-1,5
EndSplineSet
Validated: 1
Substitution2: "'c2sc' Capitals to Small Capitals lookup 11 subtable" cacute.sc
Substitution2: "'aalt' Access All Alternates lookup 0 subtable" cacute.sc
EndChar

StartChar: Ccaron
Encoding: 268 268 16
Width: 684
GlyphClass: 2
Flags: W
LayerCount: 2
Back
Fore
SplineSet
424 733 m 1,0,-1
 312 733 l 1,1,-1
 199 900 l 1,2,-1
 288 900 l 1,3,-1
 368 793 l 1,4,-1
 448 900 l 1,5,-1
 537 900 l 1,6,-1
 424 733 l 1,0,-1
542.5 38 m 128,-1,8
 470 -10 470 -10 372 -10 c 0,9,10
 277 -10 277 -10 207 31 c 128,-1,11
 137 72 137 72 99 149 c 128,-1,12
 61 226 61 226 61 330 c 256,13,14
 61 434 61 434 99 511 c 128,-1,15
 137 588 137 588 207 629 c 128,-1,16
 277 670 277 670 371 670 c 0,17,18
 470 670 470 670 537.5 629 c 128,-1,19
 605 588 605 588 635 508 c 1,20,-1
 534 463 l 1,21,22
 514 522 514 522 476 549.5 c 128,-1,23
 438 577 438 577 377 577 c 0,24,25
 284 577 284 577 228.5 511.5 c 128,-1,26
 173 446 173 446 173 330 c 0,27,28
 173 213 173 213 226 148 c 128,-1,29
 279 83 279 83 373 83 c 0,30,31
 437 83 437 83 480.5 115 c 128,-1,32
 524 147 524 147 543 209 c 1,33,-1
 645 175 l 1,34,7
 615 86 615 86 542.5 38 c 128,-1,8
EndSplineSet
Validated: 1
Substitution2: "'c2sc' Capitals to Small Capitals lookup 11 subtable" ccaron.sc
Substitution2: "'aalt' Access All Alternates lookup 0 subtable" ccaron.sc
EndChar

StartChar: Ccedilla
Encoding: 199 199 17
Width: 684
GlyphClass: 2
Flags: W
LayerCount: 2
Back
Fore
SplineSet
564.5 54 m 128,-1,1
 509 8 509 8 432 -5 c 1,2,3
 460 -25 460 -25 474.5 -51 c 128,-1,4
 489 -77 489 -77 489 -105 c 0,5,6
 489 -153 489 -153 455 -184 c 128,-1,7
 421 -215 421 -215 365 -215 c 0,8,9
 326 -215 326 -215 298.5 -206 c 128,-1,10
 271 -197 271 -197 250 -178 c 1,11,-1
 283 -116 l 1,12,13
 296 -129 296 -129 314 -137.5 c 128,-1,14
 332 -146 332 -146 353 -146 c 0,15,16
 377 -146 377 -146 393 -130.5 c 128,-1,17
 409 -115 409 -115 409 -90 c 0,18,19
 409 -64 409 -64 393 -45.5 c 128,-1,20
 377 -27 377 -27 335 -8 c 1,21,22
 251 -1 251 -1 189 42.5 c 128,-1,23
 127 86 127 86 94 159.5 c 128,-1,24
 61 233 61 233 61 330 c 0,25,26
 61 434 61 434 99 511 c 128,-1,27
 137 588 137 588 207 629 c 128,-1,28
 277 670 277 670 371 670 c 0,29,30
 470 670 470 670 537.5 629 c 128,-1,31
 605 588 605 588 635 508 c 1,32,-1
 534 463 l 1,33,34
 514 522 514 522 476 549.5 c 128,-1,35
 438 577 438 577 377 577 c 0,36,37
 284 577 284 577 228.5 511.5 c 128,-1,38
 173 446 173 446 173 330 c 0,39,40
 173 213 173 213 226 148 c 128,-1,41
 279 83 279 83 373 83 c 0,42,43
 437 83 437 83 480.5 115 c 128,-1,44
 524 147 524 147 543 209 c 1,45,-1
 645 175 l 1,46,0
 620 100 620 100 564.5 54 c 128,-1,1
EndSplineSet
Validated: 1
Substitution2: "'c2sc' Capitals to Small Capitals lookup 11 subtable" ccedilla.sc
Substitution2: "'aalt' Access All Alternates lookup 0 subtable" ccedilla.sc
EndChar

StartChar: D
Encoding: 68 68 18
Width: 720
GlyphClass: 2
Flags: W
LayerCount: 2
Back
Fore
SplineSet
573 574 m 128,-1,1
 659 488 659 488 659 330 c 256,2,3
 659 172 659 172 573 86 c 128,-1,4
 487 0 487 0 331 0 c 2,5,-1
 98 0 l 1,6,-1
 98 660 l 1,7,-1
 331 660 l 2,8,0
 487 660 487 660 573 574 c 128,-1,1
491 153.5 m 128,-1,10
 547 216 547 216 547 330 c 256,11,12
 547 444 547 444 491 506.5 c 128,-1,13
 435 569 435 569 331 569 c 2,14,-1
 205 569 l 1,15,-1
 205 91 l 1,16,-1
 331 91 l 2,17,9
 435 91 435 91 491 153.5 c 128,-1,10
EndSplineSet
Validated: 1
Substitution2: "'c2sc' Capitals to Small Capitals lookup 11 subtable" d.sc
Substitution2: "'aalt' Access All Alternates lookup 0 subtable" d.sc
EndChar

StartChar: Dcaron
Encoding: 270 270 20
Width: 720
GlyphClass: 2
Flags: W
LayerCount: 2
Back
Fore
SplineSet
269 733 m 1,0,-1
 156 900 l 1,1,-1
 245 900 l 1,2,-1
 325 793 l 1,3,-1
 405 900 l 1,4,-1
 494 900 l 1,5,-1
 381 733 l 1,6,-1
 269 733 l 1,0,-1
573 574 m 128,-1,8
 659 488 659 488 659 330 c 256,9,10
 659 172 659 172 573 86 c 128,-1,11
 487 0 487 0 331 0 c 2,12,-1
 98 0 l 1,13,-1
 98 660 l 1,14,-1
 331 660 l 2,15,7
 487 660 487 660 573 574 c 128,-1,8
491 153.5 m 128,-1,17
 547 216 547 216 547 330 c 256,18,19
 547 444 547 444 491 506.5 c 128,-1,20
 435 569 435 569 331 569 c 2,21,-1
 205 569 l 1,22,-1
 205 91 l 1,23,-1
 331 91 l 2,24,16
 435 91 435 91 491 153.5 c 128,-1,17
EndSplineSet
Validated: 1
Substitution2: "'c2sc' Capitals to Small Capitals lookup 11 subtable" dcaron.sc
Substitution2: "'aalt' Access All Alternates lookup 0 subtable" dcaron.sc
EndChar

StartChar: Dcroat
Encoding: 272 272 21
Width: 738
GlyphClass: 2
Flags: W
LayerCount: 2
Back
Fore
SplineSet
591 574 m 128,-1,1
 677 488 677 488 677 330 c 256,2,3
 677 172 677 172 591 86 c 128,-1,4
 505 0 505 0 349 0 c 2,5,-1
 116 0 l 1,6,-1
 116 294 l 1,7,-1
 22 294 l 1,8,-1
 22 370 l 1,9,-1
 116 370 l 1,10,-1
 116 660 l 1,11,-1
 349 660 l 2,12,0
 505 660 505 660 591 574 c 128,-1,1
510 153.5 m 128,-1,14
 566 216 566 216 566 330 c 256,15,16
 566 444 566 444 510 506.5 c 128,-1,17
 454 569 454 569 349 569 c 2,18,-1
 223 569 l 1,19,-1
 223 370 l 1,20,-1
 400 370 l 1,21,-1
 400 294 l 1,22,-1
 223 294 l 1,23,-1
 223 91 l 1,24,-1
 349 91 l 2,25,13
 454 91 454 91 510 153.5 c 128,-1,14
EndSplineSet
Validated: 1
Substitution2: "'c2sc' Capitals to Small Capitals lookup 11 subtable" dcroat.sc
Substitution2: "'aalt' Access All Alternates lookup 0 subtable" dcroat.sc
EndChar

StartChar: E
Encoding: 69 69 22
Width: 636
GlyphClass: 2
Flags: W
AnchorPoint: "Anchor-0" 337 0 basechar 0
LayerCount: 2
Back
Fore
SplineSet
590 92 m 1,0,-1
 590 0 l 1,1,-1
 98 0 l 1,2,-1
 98 660 l 1,3,-1
 576 660 l 1,4,-1
 576 568 l 1,5,-1
 205 568 l 1,6,-1
 205 378 l 1,7,-1
 495 378 l 1,8,-1
 495 288 l 1,9,-1
 205 288 l 1,10,-1
 205 92 l 1,11,-1
 590 92 l 1,0,-1
EndSplineSet
Validated: 1
Substitution2: "Single Substitution lookup 57 subtable" E.swsh.001
Substitution2: "Single Substitution lookup 56 subtable" E.swsh
AlternateSubs2: "'swsh' Swash lookup 33 subtable" E.swsh E.swsh.001
Substitution2: "'c2sc' Capitals to Small Capitals lookup 11 subtable" e.sc
AlternateSubs2: "'aalt' Access All Alternates lookup 1 subtable" e.sc E.swsh E.swsh.001
EndChar

StartChar: Eacute
Encoding: 201 201 23
Width: 636
GlyphClass: 2
Flags: W
AnchorPoint: "Anchor-0" 337 0 basechar 0
LayerCount: 2
Back
Fore
SplineSet
366 737 m 1,0,-1
 284 737 l 1,1,-1
 340 888 l 1,2,-1
 454 888 l 1,3,-1
 366 737 l 1,0,-1
590 92 m 1,4,-1
 590 0 l 1,5,-1
 98 0 l 1,6,-1
 98 660 l 1,7,-1
 576 660 l 1,8,-1
 576 568 l 1,9,-1
 205 568 l 1,10,-1
 205 378 l 1,11,-1
 495 378 l 1,12,-1
 495 288 l 1,13,-1
 205 288 l 1,14,-1
 205 92 l 1,15,-1
 590 92 l 1,4,-1
EndSplineSet
Validated: 1
Substitution2: "Single Substitution lookup 57 subtable" Eacute.swsh.001
Substitution2: "Single Substitution lookup 56 subtable" Eacute.swsh
AlternateSubs2: "'swsh' Swash lookup 33 subtable" Eacute.swsh Eacute.swsh.001
Substitution2: "'c2sc' Capitals to Small Capitals lookup 11 subtable" eacute.sc
AlternateSubs2: "'aalt' Access All Alternates lookup 1 subtable" eacute.sc Eacute.swsh Eacute.swsh.001
EndChar

StartChar: Ecaron
Encoding: 282 282 24
Width: 636
GlyphClass: 2
Flags: W
AnchorPoint: "Anchor-0" 337 0 basechar 0
LayerCount: 2
Back
Fore
SplineSet
277 733 m 1,0,-1
 164 900 l 1,1,-1
 253 900 l 1,2,-1
 333 793 l 1,3,-1
 413 900 l 1,4,-1
 502 900 l 1,5,-1
 389 733 l 1,6,-1
 277 733 l 1,0,-1
590 92 m 1,7,-1
 590 0 l 1,8,-1
 98 0 l 1,9,-1
 98 660 l 1,10,-1
 576 660 l 1,11,-1
 576 568 l 1,12,-1
 205 568 l 1,13,-1
 205 378 l 1,14,-1
 495 378 l 1,15,-1
 495 288 l 1,16,-1
 205 288 l 1,17,-1
 205 92 l 1,18,-1
 590 92 l 1,7,-1
EndSplineSet
Validated: 1
Substitution2: "Single Substitution lookup 57 subtable" Ecaron.swsh.001
Substitution2: "Single Substitution lookup 56 subtable" Ecaron.swsh
AlternateSubs2: "'swsh' Swash lookup 33 subtable" Ecaron.swsh Ecaron.swsh.001
Substitution2: "'c2sc' Capitals to Small Capitals lookup 11 subtable" ecaron.sc
AlternateSubs2: "'aalt' Access All Alternates lookup 1 subtable" ecaron.sc Ecaron.swsh Ecaron.swsh.001
EndChar

StartChar: Ecircumflex
Encoding: 202 202 25
Width: 636
GlyphClass: 2
Flags: W
AnchorPoint: "Anchor-0" 337 0 basechar 0
LayerCount: 2
Back
Fore
SplineSet
254 731 m 1,0,-1
 165 731 l 1,1,-1
 278 898 l 1,2,-1
 390 898 l 1,3,-1
 503 731 l 1,4,-1
 414 731 l 1,5,-1
 334 838 l 1,6,-1
 254 731 l 1,0,-1
590 92 m 1,7,-1
 590 0 l 1,8,-1
 98 0 l 1,9,-1
 98 660 l 1,10,-1
 576 660 l 1,11,-1
 576 568 l 1,12,-1
 205 568 l 1,13,-1
 205 378 l 1,14,-1
 495 378 l 1,15,-1
 495 288 l 1,16,-1
 205 288 l 1,17,-1
 205 92 l 1,18,-1
 590 92 l 1,7,-1
EndSplineSet
Validated: 1
Substitution2: "Single Substitution lookup 57 subtable" Ecircumflex.swsh.001
Substitution2: "Single Substitution lookup 56 subtable" Ecircumflex.swsh
AlternateSubs2: "'swsh' Swash lookup 33 subtable" Ecircumflex.swsh Ecircumflex.swsh.001
Substitution2: "'c2sc' Capitals to Small Capitals lookup 11 subtable" ecircumflex.sc
AlternateSubs2: "'aalt' Access All Alternates lookup 1 subtable" ecircumflex.sc Ecircumflex.swsh Ecircumflex.swsh.001
EndChar

StartChar: Egrave
Encoding: 200 200 28
Width: 636
GlyphClass: 2
Flags: W
AnchorPoint: "Anchor-0" 337 0 basechar 0
LayerCount: 2
Back
Fore
SplineSet
309 737 m 1,0,-1
 221 888 l 1,1,-1
 335 888 l 1,2,-1
 391 737 l 1,3,-1
 309 737 l 1,0,-1
590 92 m 1,4,-1
 590 0 l 1,5,-1
 98 0 l 1,6,-1
 98 660 l 1,7,-1
 576 660 l 1,8,-1
 576 568 l 1,9,-1
 205 568 l 1,10,-1
 205 378 l 1,11,-1
 495 378 l 1,12,-1
 495 288 l 1,13,-1
 205 288 l 1,14,-1
 205 92 l 1,15,-1
 590 92 l 1,4,-1
EndSplineSet
Validated: 1
Substitution2: "Single Substitution lookup 57 subtable" Egrave.swsh.001
Substitution2: "Single Substitution lookup 56 subtable" Egrave.swsh
AlternateSubs2: "'swsh' Swash lookup 33 subtable" Egrave.swsh Egrave.swsh.001
Substitution2: "'c2sc' Capitals to Small Capitals lookup 11 subtable" egrave.sc
AlternateSubs2: "'aalt' Access All Alternates lookup 1 subtable" egrave.sc Egrave.swsh Egrave.swsh.001
EndChar

StartChar: Eogonek
Encoding: 280 280 30
Width: 636
GlyphClass: 2
Flags: W
AnchorPoint: "Anchor-0" 337 0 basechar 0
LayerCount: 2
Back
Fore
SplineSet
601 -195 m 1,0,1
 571 -215 571 -215 512 -215 c 0,2,3
 455 -215 455 -215 421 -188 c 128,-1,4
 387 -161 387 -161 387 -113 c 0,5,6
 387 -74 387 -74 408.5 -46.5 c 128,-1,7
 430 -19 430 -19 473 0 c 1,8,-1
 98 0 l 1,9,-1
 98 660 l 1,10,-1
 576 660 l 1,11,-1
 576 568 l 1,12,-1
 205 568 l 1,13,-1
 205 378 l 1,14,-1
 495 378 l 1,15,-1
 495 288 l 1,16,-1
 205 288 l 1,17,-1
 205 92 l 1,18,-1
 590 92 l 1,19,-1
 590 0 l 1,20,-1
 591 0 l 1,21,22
 521 -20 521 -20 494.5 -43.5 c 128,-1,23
 468 -67 468 -67 468 -97 c 0,24,25
 468 -120 468 -120 484.5 -133 c 128,-1,26
 501 -146 501 -146 530 -146 c 0,27,28
 565 -146 565 -146 583 -134 c 1,29,-1
 601 -195 l 1,0,1
EndSplineSet
Validated: 1
Substitution2: "'c2sc' Capitals to Small Capitals lookup 11 subtable" eogonek.sc
Substitution2: "'aalt' Access All Alternates lookup 0 subtable" eogonek.sc
EndChar

StartChar: F
Encoding: 70 70 31
Width: 611
GlyphClass: 2
Flags: W
LayerCount: 2
Back
Fore
SplineSet
205 568 m 1,0,-1
 205 377 l 1,1,-1
 495 377 l 1,2,-1
 495 284 l 1,3,-1
 205 284 l 1,4,-1
 205 0 l 1,5,-1
 98 0 l 1,6,-1
 98 660 l 1,7,-1
 575 660 l 1,8,-1
 575 568 l 1,9,-1
 205 568 l 1,0,-1
EndSplineSet
Validated: 1
Substitution2: "Single Substitution lookup 56 subtable" F.swsh
Substitution2: "'swsh' Swash lookup 34 subtable" F.swsh
Substitution2: "'c2sc' Capitals to Small Capitals lookup 11 subtable" f.sc
AlternateSubs2: "'aalt' Access All Alternates lookup 1 subtable" f.sc F.swsh
EndChar

StartChar: G
Encoding: 71 71 32
Width: 724
GlyphClass: 2
Flags: W
AnchorPoint: "Anchor-0" 400 0 basechar 0
LayerCount: 2
Back
Fore
SplineSet
651 232 m 1,0,1
 651 111 651 111 560 46 c 0,2,3
 486 -6 486 -6 387 -8 c 0,4,5
 381.790697674 -8.09302325581 381.790697674 -8.09302325581 376.674418605 -8.09302325581 c 0,6,7
 271.790697674 -8.09302325581 271.790697674 -8.09302325581 206 31 c 0,8,9
 137 72 137 72 99 148.5 c 128,-1,10
 61 225 61 225 61 330 c 0,11,12
 61 434 61 434 100 510.5 c 128,-1,13
 139 587 139 587 210 628.5 c 128,-1,14
 281 670 281 670 375 670 c 0,15,16
 477 670 477 670 543 632 c 128,-1,17
 609 594 609 594 647 514 c 1,18,-1
 549 467 l 1,19,20
 530 521 530 521 485 549 c 128,-1,21
 440 577 440 577 377 577 c 0,22,23
 283 577 283 577 228 512 c 128,-1,24
 173 447 173 447 173 330 c 0,25,26
 173 211 173 211 225.5 146.5 c 128,-1,27
 278 82 278 82 379 82 c 0,28,29
 458 82 458 82 507 121 c 128,-1,30
 556 160 556 160 556 234 c 2,31,-1
 556 253 l 1,32,-1
 354 253 l 1,33,-1
 354 341 l 1,34,-1
 651 341 l 1,35,-1
 651 232 l 1,0,1
EndSplineSet
Validated: 1
Substitution2: "'ss04' Style Set 4 lookup 50 subtable" G.ss04
Substitution2: "'salt' Stylistic Alternatives lookup 42 subtable" G.ss04
Substitution2: "'c2sc' Capitals to Small Capitals lookup 11 subtable" g.sc
AlternateSubs2: "'aalt' Access All Alternates lookup 1 subtable" g.sc G.ss04
EndChar

StartChar: H
Encoding: 72 72 34
Width: 736
GlyphClass: 2
Flags: W
LayerCount: 2
Back
Fore
SplineSet
639 660 m 1,0,-1
 639 0 l 1,1,-1
 531 0 l 1,2,-1
 531 288 l 1,3,-1
 205 288 l 1,4,-1
 205 0 l 1,5,-1
 98 0 l 1,6,-1
 98 660 l 1,7,-1
 205 660 l 1,8,-1
 205 380 l 1,9,-1
 531 380 l 1,10,-1
 531 660 l 1,11,-1
 639 660 l 1,0,-1
EndSplineSet
Validated: 1
Substitution2: "'sups' Superscript lookup 15 subtable" Hsuperior
Substitution2: "'subs' Subscript lookup 14 subtable" Hinferior
Substitution2: "'sinf' Scientific Inferiors lookup 13 subtable" Hinferior
Substitution2: "'c2sc' Capitals to Small Capitals lookup 11 subtable" h.sc
AlternateSubs2: "'aalt' Access All Alternates lookup 1 subtable" h.sc Hinferior Hsuperior
EndChar

StartChar: I
Encoding: 73 73 35
Width: 303
GlyphClass: 2
Flags: W
LayerCount: 2
Back
Fore
SplineSet
205 0 m 1,0,-1
 98 0 l 1,1,-1
 98 660 l 1,2,-1
 205 660 l 1,3,-1
 205 0 l 1,0,-1
EndSplineSet
Validated: 1
Substitution2: "'c2sc' Capitals to Small Capitals lookup 11 subtable" i.sc
Substitution2: "'aalt' Access All Alternates lookup 0 subtable" i.sc
EndChar

StartChar: Iacute
Encoding: 205 205 37
Width: 303
GlyphClass: 2
Flags: W
LayerCount: 2
Back
Fore
SplineSet
271 888 m 1,0,-1
 183 737 l 1,1,-1
 101 737 l 1,2,-1
 157 888 l 1,3,-1
 271 888 l 1,0,-1
205 0 m 1,4,-1
 98 0 l 1,5,-1
 98 660 l 1,6,-1
 205 660 l 1,7,-1
 205 0 l 1,4,-1
EndSplineSet
Validated: 1
Substitution2: "'c2sc' Capitals to Small Capitals lookup 11 subtable" iacute.sc
Substitution2: "'aalt' Access All Alternates lookup 0 subtable" iacute.sc
EndChar

StartChar: Icircumflex
Encoding: 206 206 38
Width: 303
GlyphClass: 2
Flags: W
LayerCount: 2
Back
Fore
SplineSet
231 731 m 1,0,-1
 151 838 l 1,1,-1
 71 731 l 1,2,-1
 -18 731 l 1,3,-1
 95 898 l 1,4,-1
 207 898 l 1,5,-1
 320 731 l 1,6,-1
 231 731 l 1,0,-1
205 0 m 1,7,-1
 98 0 l 1,8,-1
 98 660 l 1,9,-1
 205 660 l 1,10,-1
 205 0 l 1,7,-1
EndSplineSet
Validated: 1
Substitution2: "'c2sc' Capitals to Small Capitals lookup 11 subtable" icircumflex.sc
Substitution2: "'aalt' Access All Alternates lookup 0 subtable" icircumflex.sc
EndChar

StartChar: Idieresis
Encoding: 207 207 39
Width: 303
GlyphClass: 2
Flags: W
LayerCount: 2
Back
Fore
SplineSet
107.5 843 m 128,-1,1
 125 826 125 826 125 797 c 256,2,3
 125 768 125 768 107.5 751 c 128,-1,4
 90 734 90 734 60 734 c 0,5,6
 31 734 31 734 13.5 751 c 128,-1,7
 -4 768 -4 768 -4 797 c 256,8,9
 -4 826 -4 826 13.5 843 c 128,-1,10
 31 860 31 860 60 860 c 0,11,0
 90 860 90 860 107.5 843 c 128,-1,1
289 843 m 128,-1,13
 307 826 307 826 307 797 c 0,14,15
 307 769 307 769 289 751.5 c 128,-1,16
 271 734 271 734 242 734 c 256,17,18
 213 734 213 734 195 751.5 c 128,-1,19
 177 769 177 769 177 797 c 0,20,21
 177 826 177 826 195 843 c 128,-1,22
 213 860 213 860 242 860 c 256,23,12
 271 860 271 860 289 843 c 128,-1,13
205 0 m 1,24,-1
 98 0 l 1,25,-1
 98 660 l 1,26,-1
 205 660 l 1,27,-1
 205 0 l 1,24,-1
EndSplineSet
Validated: 1
Substitution2: "'c2sc' Capitals to Small Capitals lookup 11 subtable" idieresis.sc
Substitution2: "'aalt' Access All Alternates lookup 0 subtable" idieresis.sc
EndChar

StartChar: Igrave
Encoding: 204 204 41
Width: 303
GlyphClass: 2
Flags: W
LayerCount: 2
Back
Fore
SplineSet
190 737 m 1,0,-1
 108 737 l 1,1,-1
 20 888 l 1,2,-1
 134 888 l 1,3,-1
 190 737 l 1,0,-1
205 0 m 1,4,-1
 98 0 l 1,5,-1
 98 660 l 1,6,-1
 205 660 l 1,7,-1
 205 0 l 1,4,-1
EndSplineSet
Validated: 1
Substitution2: "'c2sc' Capitals to Small Capitals lookup 11 subtable" igrave.sc
Substitution2: "'aalt' Access All Alternates lookup 0 subtable" igrave.sc
EndChar

StartChar: Imacron
Encoding: 298 298 42
Width: 303
GlyphClass: 2
Flags: W
LayerCount: 2
Back
Fore
SplineSet
269 748 m 1,0,-1
 33 748 l 1,1,-1
 33 826 l 1,2,-1
 269 826 l 1,3,-1
 269 748 l 1,0,-1
205 0 m 1,4,-1
 98 0 l 1,5,-1
 98 660 l 1,6,-1
 205 660 l 1,7,-1
 205 0 l 1,4,-1
EndSplineSet
Validated: 1
Substitution2: "'c2sc' Capitals to Small Capitals lookup 11 subtable" imacron.sc
Substitution2: "'aalt' Access All Alternates lookup 0 subtable" imacron.sc
EndChar

StartChar: Iogonek
Encoding: 302 302 43
Width: 303
GlyphClass: 2
Flags: W
LayerCount: 2
Back
Fore
SplineSet
230 -192 m 1,0,1
 195 -215 195 -215 139 -215 c 256,2,3
 83 -215 83 -215 49.5 -188 c 128,-1,4
 16 -161 16 -161 16 -113 c 0,5,6
 16 -39 16 -39 98 3 c 1,7,-1
 98 660 l 1,8,-1
 205 660 l 1,9,-1
 205 0 l 1,10,11
 144 -24 144 -24 120.5 -47 c 128,-1,12
 97 -70 97 -70 97 -95 c 0,13,14
 97 -146 97 -146 154 -146 c 0,15,16
 188 -146 188 -146 209 -132 c 1,17,-1
 230 -192 l 1,0,1
EndSplineSet
Validated: 1
Substitution2: "'c2sc' Capitals to Small Capitals lookup 11 subtable" iogonek.sc
Substitution2: "'aalt' Access All Alternates lookup 0 subtable" iogonek.sc
EndChar

StartChar: J
Encoding: 74 74 44
Width: 582
GlyphClass: 2
Flags: W
LayerCount: 2
Back
Fore
SplineSet
493 234 m 2,0,1
 493 119 493 119 429.5 54.5 c 128,-1,2
 366 -10 366 -10 253 -10 c 0,3,4
 149 -10 149 -10 94 39.5 c 128,-1,5
 39 89 39 89 39 175 c 0,6,7
 39 206 39 206 44 231 c 1,8,-1
 146 250 l 1,9,10
 142 212 142 212 142 199 c 0,11,12
 142 139 142 139 169 111 c 128,-1,13
 196 83 196 83 253 83 c 0,14,15
 326 83 326 83 356 124.5 c 128,-1,16
 386 166 386 166 386 254 c 2,17,-1
 386 660 l 1,18,-1
 493 660 l 1,19,-1
 493 234 l 2,0,1
EndSplineSet
Validated: 1
Substitution2: "'c2sc' Capitals to Small Capitals lookup 11 subtable" j.sc
Substitution2: "'aalt' Access All Alternates lookup 0 subtable" j.sc
EndChar

StartChar: K
Encoding: 75 75 45
Width: 667
GlyphClass: 2
Flags: W
AnchorPoint: "Anchor-0" 370 0 basechar 0
LayerCount: 2
Back
Fore
SplineSet
312 318 m 1,0,-1
 205 203 l 1,1,-1
 205 0 l 1,2,-1
 98 0 l 1,3,-1
 98 660 l 1,4,-1
 205 660 l 1,5,-1
 205 332 l 1,6,-1
 508 660 l 1,7,-1
 639 660 l 1,8,-1
 389 390 l 1,9,-1
 645 0 l 1,10,-1
 519 0 l 1,11,-1
 312 318 l 1,0,-1
EndSplineSet
Validated: 1
Substitution2: "'c2sc' Capitals to Small Capitals lookup 11 subtable" k.sc
Substitution2: "'aalt' Access All Alternates lookup 0 subtable" k.sc
EndChar

StartChar: L
Encoding: 76 76 46
Width: 599
GlyphClass: 2
Flags: W
AnchorPoint: "Anchor-0" 354 0 basechar 0
LayerCount: 2
Back
Fore
SplineSet
569 92 m 1,0,-1
 569 0 l 1,1,-1
 98 0 l 1,2,-1
 98 660 l 1,3,-1
 205 660 l 1,4,-1
 205 92 l 1,5,-1
 569 92 l 1,0,-1
EndSplineSet
Validated: 1
Substitution2: "Single Substitution lookup 57 subtable" L.swsh
Substitution2: "'swsh' Swash lookup 34 subtable" L.swsh
Substitution2: "'c2sc' Capitals to Small Capitals lookup 11 subtable" l.sc
AlternateSubs2: "'aalt' Access All Alternates lookup 1 subtable" l.sc L.swsh
Position2: "Single Positioning lookup 6 per glyph data 0" dx=0 dy=0 dh=-152 dv=0
EndChar

StartChar: Lacute
Encoding: 313 313 47
Width: 599
GlyphClass: 2
Flags: W
AnchorPoint: "Anchor-0" 354 0 basechar 0
LayerCount: 2
Back
Fore
SplineSet
183 737 m 1,0,-1
 101 737 l 1,1,-1
 157 888 l 1,2,-1
 271 888 l 1,3,-1
 183 737 l 1,0,-1
569 92 m 1,4,-1
 569 0 l 1,5,-1
 98 0 l 1,6,-1
 98 660 l 1,7,-1
 205 660 l 1,8,-1
 205 92 l 1,9,-1
 569 92 l 1,4,-1
EndSplineSet
Validated: 1
Substitution2: "Single Substitution lookup 57 subtable" Lacute.swsh
Substitution2: "'swsh' Swash lookup 34 subtable" Lacute.swsh
Substitution2: "'c2sc' Capitals to Small Capitals lookup 11 subtable" lacute.sc
AlternateSubs2: "'aalt' Access All Alternates lookup 1 subtable" lacute.sc Lacute.swsh
EndChar

StartChar: Lcaron
Encoding: 317 317 48
Width: 599
GlyphClass: 2
Flags: W
AnchorPoint: "Anchor-0" 354 0 basechar 0
LayerCount: 2
Back
Fore
SplineSet
365 491 m 1,0,-1
 295 491 l 1,1,-1
 316 701 l 1,2,-1
 412 701 l 1,3,-1
 365 491 l 1,0,-1
569 92 m 1,4,-1
 569 0 l 1,5,-1
 98 0 l 1,6,-1
 98 660 l 1,7,-1
 205 660 l 1,8,-1
 205 92 l 1,9,-1
 569 92 l 1,4,-1
EndSplineSet
Validated: 1
Substitution2: "Single Substitution lookup 57 subtable" Lcaron.swsh
Substitution2: "'swsh' Swash lookup 34 subtable" Lcaron.swsh
Substitution2: "'c2sc' Capitals to Small Capitals lookup 11 subtable" lcaron.sc
AlternateSubs2: "'aalt' Access All Alternates lookup 1 subtable" lcaron.sc Lcaron.swsh
EndChar

StartChar: Lslash
Encoding: 321 321 50
Width: 633
GlyphClass: 2
Flags: W
AnchorPoint: "Anchor-0" 388 0 basechar 0
LayerCount: 2
Back
Fore
SplineSet
602 92 m 1,0,-1
 602 0 l 1,1,-1
 131 0 l 1,2,-1
 131 243 l 1,3,-1
 25 187 l 1,4,-1
 25 283 l 1,5,-1
 131 339 l 1,6,-1
 131 660 l 1,7,-1
 239 660 l 1,8,-1
 239 396 l 1,9,-1
 414 489 l 1,10,-1
 414 393 l 1,11,-1
 239 301 l 1,12,-1
 239 92 l 1,13,-1
 602 92 l 1,0,-1
EndSplineSet
Validated: 1
Substitution2: "Single Substitution lookup 57 subtable" Lslash.swsh
Substitution2: "'swsh' Swash lookup 34 subtable" Lslash.swsh
Substitution2: "'c2sc' Capitals to Small Capitals lookup 11 subtable" lslash.sc
AlternateSubs2: "'aalt' Access All Alternates lookup 1 subtable" lslash.sc Lslash.swsh
EndChar

StartChar: M
Encoding: 77 77 51
Width: 871
GlyphClass: 2
Flags: W
LayerCount: 2
Back
Fore
SplineSet
773 0 m 1,0,-1
 675 0 l 1,1,-1
 675 382 l 1,2,-1
 682 564 l 1,3,-1
 681 564 l 1,4,-1
 480 0 l 1,5,-1
 391 0 l 1,6,-1
 190 564 l 1,7,-1
 189 564 l 1,8,-1
 197 382 l 1,9,-1
 197 0 l 1,10,-1
 98 0 l 1,11,-1
 98 660 l 1,12,-1
 257 660 l 1,13,-1
 390 278 l 1,14,-1
 436 121 l 1,15,-1
 438 121 l 1,16,-1
 485 278 l 1,17,-1
 617 660 l 1,18,-1
 773 660 l 1,19,-1
 773 0 l 1,0,-1
EndSplineSet
Validated: 1
Substitution2: "Single Substitution lookup 56 subtable" M.swsh
AlternateSubs2: "'swsh' Swash lookup 35 subtable" M.swsh M.swsh.001
Substitution2: "'c2sc' Capitals to Small Capitals lookup 11 subtable" m.sc
AlternateSubs2: "'aalt' Access All Alternates lookup 1 subtable" m.sc M.swsh M.swsh.001
EndChar

StartChar: N
Encoding: 78 78 52
Width: 736
GlyphClass: 2
Flags: W
AnchorPoint: "Anchor-0" 393 0 basechar 0
LayerCount: 2
Back
Fore
SplineSet
639 0 m 1,0,-1
 512 0 l 1,1,-1
 257 416 l 1,2,-1
 193 538 l 1,3,-1
 192 538 l 1,4,-1
 196 426 l 1,5,-1
 196 0 l 1,6,-1
 98 0 l 1,7,-1
 98 660 l 1,8,-1
 224 660 l 1,9,-1
 478 245 l 1,10,-1
 543 122 l 1,11,-1
 544 122 l 1,12,-1
 540 234 l 1,13,-1
 540 660 l 1,14,-1
 639 660 l 1,15,-1
 639 0 l 1,0,-1
EndSplineSet
Validated: 1
Substitution2: "Single Substitution lookup 57 subtable" N.swsh
Substitution2: "'swsh' Swash lookup 36 subtable" N.swsh
Substitution2: "'c2sc' Capitals to Small Capitals lookup 11 subtable" n.sc
AlternateSubs2: "'aalt' Access All Alternates lookup 1 subtable" n.sc N.swsh
EndChar

StartChar: Nacute
Encoding: 323 323 53
Width: 736
GlyphClass: 2
Flags: W
AnchorPoint: "Anchor-0" 393 0 basechar 0
LayerCount: 2
Back
Fore
SplineSet
491 888 m 1,0,-1
 403 737 l 1,1,-1
 321 737 l 1,2,-1
 377 888 l 1,3,-1
 491 888 l 1,0,-1
639 0 m 1,4,-1
 512 0 l 1,5,-1
 257 416 l 1,6,-1
 193 538 l 1,7,-1
 192 538 l 1,8,-1
 196 426 l 1,9,-1
 196 0 l 1,10,-1
 98 0 l 1,11,-1
 98 660 l 1,12,-1
 224 660 l 1,13,-1
 478 245 l 1,14,-1
 543 122 l 1,15,-1
 544 122 l 1,16,-1
 540 234 l 1,17,-1
 540 660 l 1,18,-1
 639 660 l 1,19,-1
 639 0 l 1,4,-1
EndSplineSet
Validated: 1
Substitution2: "Single Substitution lookup 57 subtable" Nacute.swsh
Substitution2: "'swsh' Swash lookup 36 subtable" Nacute.swsh
Substitution2: "'c2sc' Capitals to Small Capitals lookup 11 subtable" nacute.sc
AlternateSubs2: "'aalt' Access All Alternates lookup 1 subtable" nacute.sc Nacute.swsh
EndChar

StartChar: Ncaron
Encoding: 327 327 54
Width: 736
GlyphClass: 2
Flags: W
AnchorPoint: "Anchor-0" 393 0 basechar 0
LayerCount: 2
Back
Fore
SplineSet
426 733 m 1,0,-1
 314 733 l 1,1,-1
 201 900 l 1,2,-1
 290 900 l 1,3,-1
 370 793 l 1,4,-1
 450 900 l 1,5,-1
 539 900 l 1,6,-1
 426 733 l 1,0,-1
639 0 m 1,7,-1
 512 0 l 1,8,-1
 257 416 l 1,9,-1
 193 538 l 1,10,-1
 192 538 l 1,11,-1
 196 426 l 1,12,-1
 196 0 l 1,13,-1
 98 0 l 1,14,-1
 98 660 l 1,15,-1
 224 660 l 1,16,-1
 478 245 l 1,17,-1
 543 122 l 1,18,-1
 544 122 l 1,19,-1
 540 234 l 1,20,-1
 540 660 l 1,21,-1
 639 660 l 1,22,-1
 639 0 l 1,7,-1
EndSplineSet
Validated: 1
Substitution2: "Single Substitution lookup 57 subtable" Ncaron.swsh
Substitution2: "'swsh' Swash lookup 36 subtable" Ncaron.swsh
Substitution2: "'c2sc' Capitals to Small Capitals lookup 11 subtable" ncaron.sc
AlternateSubs2: "'aalt' Access All Alternates lookup 1 subtable" ncaron.sc Ncaron.swsh
EndChar

StartChar: O
Encoding: 79 79 56
Width: 745
GlyphClass: 2
Flags: W
LayerCount: 2
Back
Fore
SplineSet
537.5 629 m 128,-1,1
 608 588 608 588 646 511 c 128,-1,2
 684 434 684 434 684 330 c 256,3,4
 684 226 684 226 646 149 c 128,-1,5
 608 72 608 72 537.5 31 c 128,-1,6
 467 -10 467 -10 372 -10 c 256,7,8
 277 -10 277 -10 207 31 c 128,-1,9
 137 72 137 72 99 149 c 128,-1,10
 61 226 61 226 61 330 c 256,11,12
 61 434 61 434 99 511 c 128,-1,13
 137 588 137 588 207 629 c 128,-1,14
 277 670 277 670 372 670 c 256,15,0
 467 670 467 670 537.5 629 c 128,-1,1
226 512 m 128,-1,17
 173 447 173 447 173 330 c 256,18,19
 173 213 173 213 226 148 c 128,-1,20
 279 83 279 83 372 83 c 0,21,22
 466 83 466 83 519 148 c 128,-1,23
 572 213 572 213 572 330 c 256,24,25
 572 447 572 447 519 512 c 128,-1,26
 466 577 466 577 372 577 c 0,27,16
 279 577 279 577 226 512 c 128,-1,17
EndSplineSet
Validated: 1
Substitution2: "Single Substitution lookup 55 subtable" ordmasculine
Substitution2: "'nalt' Alternate Annotation Forms lookup 23 subtable" indexring
Substitution2: "'sups' Superscript lookup 15 subtable" Osuperior
Substitution2: "'subs' Subscript lookup 14 subtable" Oinferior
Substitution2: "'sinf' Scientific Inferiors lookup 13 subtable" Oinferior
Substitution2: "'c2sc' Capitals to Small Capitals lookup 11 subtable" o.sc
AlternateSubs2: "'aalt' Access All Alternates lookup 1 subtable" o.sc Oinferior Osuperior ordmasculine indexring
EndChar

StartChar: Oacute
Encoding: 211 211 57
Width: 745
GlyphClass: 2
Flags: W
LayerCount: 2
Back
Fore
SplineSet
492 888 m 1,0,-1
 404 737 l 1,1,-1
 322 737 l 1,2,-1
 378 888 l 1,3,-1
 492 888 l 1,0,-1
537.5 629 m 128,-1,5
 608 588 608 588 646 511 c 128,-1,6
 684 434 684 434 684 330 c 256,7,8
 684 226 684 226 646 149 c 128,-1,9
 608 72 608 72 537.5 31 c 128,-1,10
 467 -10 467 -10 372 -10 c 256,11,12
 277 -10 277 -10 207 31 c 128,-1,13
 137 72 137 72 99 149 c 128,-1,14
 61 226 61 226 61 330 c 256,15,16
 61 434 61 434 99 511 c 128,-1,17
 137 588 137 588 207 629 c 128,-1,18
 277 670 277 670 372 670 c 256,19,4
 467 670 467 670 537.5 629 c 128,-1,5
226 512 m 128,-1,21
 173 447 173 447 173 330 c 256,22,23
 173 213 173 213 226 148 c 128,-1,24
 279 83 279 83 372 83 c 0,25,26
 466 83 466 83 519 148 c 128,-1,27
 572 213 572 213 572 330 c 256,28,29
 572 447 572 447 519 512 c 128,-1,30
 466 577 466 577 372 577 c 0,31,20
 279 577 279 577 226 512 c 128,-1,21
EndSplineSet
Validated: 1
Substitution2: "'c2sc' Capitals to Small Capitals lookup 11 subtable" oacute.sc
Substitution2: "'aalt' Access All Alternates lookup 0 subtable" oacute.sc
EndChar

StartChar: Ocircumflex
Encoding: 212 212 58
Width: 745
GlyphClass: 2
Flags: W
LayerCount: 2
Back
Fore
SplineSet
452 731 m 1,0,-1
 372 838 l 1,1,-1
 292 731 l 1,2,-1
 203 731 l 1,3,-1
 316 898 l 1,4,-1
 428 898 l 1,5,-1
 541 731 l 1,6,-1
 452 731 l 1,0,-1
537.5 629 m 128,-1,8
 608 588 608 588 646 511 c 128,-1,9
 684 434 684 434 684 330 c 256,10,11
 684 226 684 226 646 149 c 128,-1,12
 608 72 608 72 537.5 31 c 128,-1,13
 467 -10 467 -10 372 -10 c 256,14,15
 277 -10 277 -10 207 31 c 128,-1,16
 137 72 137 72 99 149 c 128,-1,17
 61 226 61 226 61 330 c 256,18,19
 61 434 61 434 99 511 c 128,-1,20
 137 588 137 588 207 629 c 128,-1,21
 277 670 277 670 372 670 c 256,22,7
 467 670 467 670 537.5 629 c 128,-1,8
226 512 m 128,-1,24
 173 447 173 447 173 330 c 256,25,26
 173 213 173 213 226 148 c 128,-1,27
 279 83 279 83 372 83 c 0,28,29
 466 83 466 83 519 148 c 128,-1,30
 572 213 572 213 572 330 c 256,31,32
 572 447 572 447 519 512 c 128,-1,33
 466 577 466 577 372 577 c 0,34,23
 279 577 279 577 226 512 c 128,-1,24
EndSplineSet
Validated: 1
Substitution2: "'c2sc' Capitals to Small Capitals lookup 11 subtable" ocircumflex.sc
Substitution2: "'aalt' Access All Alternates lookup 0 subtable" ocircumflex.sc
EndChar

StartChar: Ograve
Encoding: 210 210 60
Width: 745
GlyphClass: 2
Flags: W
LayerCount: 2
Back
Fore
SplineSet
411 737 m 1,0,-1
 329 737 l 1,1,-1
 241 888 l 1,2,-1
 355 888 l 1,3,-1
 411 737 l 1,0,-1
537.5 629 m 128,-1,5
 608 588 608 588 646 511 c 128,-1,6
 684 434 684 434 684 330 c 256,7,8
 684 226 684 226 646 149 c 128,-1,9
 608 72 608 72 537.5 31 c 128,-1,10
 467 -10 467 -10 372 -10 c 256,11,12
 277 -10 277 -10 207 31 c 128,-1,13
 137 72 137 72 99 149 c 128,-1,14
 61 226 61 226 61 330 c 256,15,16
 61 434 61 434 99 511 c 128,-1,17
 137 588 137 588 207 629 c 128,-1,18
 277 670 277 670 372 670 c 256,19,4
 467 670 467 670 537.5 629 c 128,-1,5
226 512 m 128,-1,21
 173 447 173 447 173 330 c 256,22,23
 173 213 173 213 226 148 c 128,-1,24
 279 83 279 83 372 83 c 0,25,26
 466 83 466 83 519 148 c 128,-1,27
 572 213 572 213 572 330 c 256,28,29
 572 447 572 447 519 512 c 128,-1,30
 466 577 466 577 372 577 c 0,31,20
 279 577 279 577 226 512 c 128,-1,21
EndSplineSet
Validated: 1
Substitution2: "'c2sc' Capitals to Small Capitals lookup 11 subtable" ograve.sc
Substitution2: "'aalt' Access All Alternates lookup 0 subtable" ograve.sc
EndChar

StartChar: Ohungarumlaut
Encoding: 336 336 61
Width: 745
GlyphClass: 2
Flags: W
LayerCount: 2
Back
Fore
SplineSet
406 888 m 1,0,-1
 318 737 l 1,1,-1
 236 737 l 1,2,-1
 292 888 l 1,3,-1
 406 888 l 1,0,-1
597 888 m 1,4,-1
 509 737 l 1,5,-1
 427 737 l 1,6,-1
 483 888 l 1,7,-1
 597 888 l 1,4,-1
537.5 629 m 128,-1,9
 608 588 608 588 646 511 c 128,-1,10
 684 434 684 434 684 330 c 256,11,12
 684 226 684 226 646 149 c 128,-1,13
 608 72 608 72 537.5 31 c 128,-1,14
 467 -10 467 -10 372 -10 c 256,15,16
 277 -10 277 -10 207 31 c 128,-1,17
 137 72 137 72 99 149 c 128,-1,18
 61 226 61 226 61 330 c 256,19,20
 61 434 61 434 99 511 c 128,-1,21
 137 588 137 588 207 629 c 128,-1,22
 277 670 277 670 372 670 c 256,23,8
 467 670 467 670 537.5 629 c 128,-1,9
226 512 m 128,-1,25
 173 447 173 447 173 330 c 256,26,27
 173 213 173 213 226 148 c 128,-1,28
 279 83 279 83 372 83 c 0,29,30
 466 83 466 83 519 148 c 128,-1,31
 572 213 572 213 572 330 c 256,32,33
 572 447 572 447 519 512 c 128,-1,34
 466 577 466 577 372 577 c 0,35,24
 279 577 279 577 226 512 c 128,-1,25
EndSplineSet
Validated: 1
Substitution2: "'c2sc' Capitals to Small Capitals lookup 11 subtable" ohungarumlaut.sc
Substitution2: "'aalt' Access All Alternates lookup 0 subtable" ohungarumlaut.sc
EndChar

StartChar: Oslash
Encoding: 216 216 63
Width: 745
GlyphClass: 2
Flags: W
LayerCount: 2
Back
Fore
SplineSet
661 475 m 128,-1,1
 684 410 684 410 684 330 c 0,2,3
 684 226 684 226 646 149 c 128,-1,4
 608 72 608 72 537.5 31 c 128,-1,5
 467 -10 467 -10 372 -10 c 0,6,7
 275 -10 275 -10 204 33 c 1,8,-1
 156 -34 l 1,9,-1
 81 -34 l 1,10,-1
 155 71 l 1,11,12
 110 116 110 116 85.5 182 c 128,-1,13
 61 248 61 248 61 330 c 0,14,15
 61 434 61 434 99 511 c 128,-1,16
 137 588 137 588 207 629 c 128,-1,17
 277 670 277 670 372 670 c 0,18,19
 474 670 474 670 547 623 c 1,20,-1
 589 682 l 1,21,-1
 664 682 l 1,22,-1
 595 584 l 1,23,0
 638 540 638 540 661 475 c 128,-1,1
226 512 m 128,-1,25
 173 447 173 447 173 330 c 0,26,27
 173 222 173 222 218 157 c 1,28,-1
 488 542 l 1,29,30
 441 577 441 577 372 577 c 0,31,24
 279 577 279 577 226 512 c 128,-1,25
519 148 m 128,-1,33
 572 213 572 213 572 330 c 0,34,35
 572 434 572 434 531 496 c 1,36,-1
 264 113 l 1,37,38
 309 83 309 83 372 83 c 0,39,32
 466 83 466 83 519 148 c 128,-1,33
EndSplineSet
Validated: 1
Substitution2: "'c2sc' Capitals to Small Capitals lookup 11 subtable" oslash.sc
Substitution2: "'aalt' Access All Alternates lookup 0 subtable" oslash.sc
EndChar

StartChar: OE
Encoding: 338 338 65
Width: 1070
GlyphClass: 2
Flags: W
LayerCount: 2
Back
Fore
SplineSet
1025 92 m 1,0,-1
 1025 0 l 1,1,-1
 578 0 l 1,2,-1
 578 92 l 1,3,4
 541 43 541 43 487 16.5 c 128,-1,5
 433 -10 433 -10 367 -10 c 0,6,7
 273 -10 273 -10 204 31 c 128,-1,8
 135 72 135 72 98 149 c 128,-1,9
 61 226 61 226 61 330 c 256,10,11
 61 434 61 434 98 511 c 128,-1,12
 135 588 135 588 204.5 629 c 128,-1,13
 274 670 274 670 370 670 c 0,14,15
 435 670 435 670 488 644 c 128,-1,16
 541 618 541 618 578 570 c 1,17,-1
 578 660 l 1,18,-1
 1010 660 l 1,19,-1
 1010 568 l 1,20,-1
 664 568 l 1,21,-1
 664 378 l 1,22,-1
 930 378 l 1,23,-1
 930 288 l 1,24,-1
 664 288 l 1,25,-1
 664 92 l 1,26,-1
 1025 92 l 1,0,-1
510.5 148.5 m 128,-1,28
 562 214 562 214 562 330 c 256,29,30
 562 446 562 446 510.5 511.5 c 128,-1,31
 459 577 459 577 372 577 c 0,32,33
 276 577 276 577 224 512.5 c 128,-1,34
 172 448 172 448 172 330 c 256,35,36
 172 212 172 212 224 147.5 c 128,-1,37
 276 83 276 83 372 83 c 0,38,27
 459 83 459 83 510.5 148.5 c 128,-1,28
EndSplineSet
Validated: 1
Substitution2: "'c2sc' Capitals to Small Capitals lookup 11 subtable" oe.sc
Substitution2: "'aalt' Access All Alternates lookup 0 subtable" oe.sc
EndChar

StartChar: P
Encoding: 80 80 66
Width: 627
GlyphClass: 2
Flags: W
LayerCount: 2
Back
Fore
SplineSet
521.5 605 m 128,-1,1
 584 550 584 550 584 454 c 256,2,3
 584 358 584 358 521.5 303.5 c 128,-1,4
 459 249 459 249 352 249 c 2,5,-1
 205 249 l 1,6,-1
 205 0 l 1,7,-1
 98 0 l 1,8,-1
 98 660 l 1,9,-1
 352 660 l 2,10,0
 459 660 459 660 521.5 605 c 128,-1,1
439 368.5 m 128,-1,12
 473 397 473 397 473 454 c 0,13,14
 473 569 473 569 335 569 c 2,15,-1
 205 569 l 1,16,-1
 205 340 l 1,17,-1
 335 340 l 2,18,11
 405 340 405 340 439 368.5 c 128,-1,12
EndSplineSet
Validated: 1
Substitution2: "'c2sc' Capitals to Small Capitals lookup 11 subtable" p.sc
Substitution2: "'aalt' Access All Alternates lookup 0 subtable" p.sc
EndChar

StartChar: Thorn
Encoding: 222 222 67
Width: 639
GlyphClass: 2
Flags: W
LayerCount: 2
Back
Fore
SplineSet
525.5 493 m 128,-1,1
 589 439 589 439 589 337 c 256,2,3
 589 235 589 235 525.5 181 c 128,-1,4
 462 127 462 127 339 127 c 2,5,-1
 205 127 l 1,6,-1
 205 0 l 1,7,-1
 98 0 l 1,8,-1
 98 660 l 1,9,-1
 205 660 l 1,10,-1
 205 547 l 1,11,-1
 339 547 l 2,12,0
 462 547 462 547 525.5 493 c 128,-1,1
444 247.5 m 128,-1,14
 479 277 479 277 478 337 c 0,15,16
 479 397 479 397 444 426.5 c 128,-1,17
 409 456 409 456 338 456 c 2,18,-1
 205 456 l 1,19,-1
 205 218 l 1,20,-1
 338 218 l 2,21,13
 409 218 409 218 444 247.5 c 128,-1,14
EndSplineSet
Validated: 33
Substitution2: "'c2sc' Capitals to Small Capitals lookup 11 subtable" thorn.sc
Substitution2: "'aalt' Access All Alternates lookup 0 subtable" thorn.sc
EndChar

StartChar: Q
Encoding: 81 81 68
Width: 745
GlyphClass: 2
Flags: W
LayerCount: 2
Back
Fore
SplineSet
601 -91 m 128,-1,1
 632 -81 632 -81 651 -63 c 1,2,-1
 682 -153 l 1,3,4
 658 -174 658 -174 615.5 -186 c 128,-1,5
 573 -198 573 -198 529 -198 c 0,6,7
 441 -198 441 -198 386.5 -151.5 c 128,-1,8
 332 -105 332 -105 329 -8 c 1,9,10
 204 6 204 6 132.5 95.5 c 128,-1,11
 61 185 61 185 61 330 c 0,12,13
 61 434 61 434 99 511 c 128,-1,14
 137 588 137 588 207 629 c 128,-1,15
 277 670 277 670 372 670 c 256,16,17
 467 670 467 670 537.5 629 c 128,-1,18
 608 588 608 588 646 511 c 128,-1,19
 684 434 684 434 684 330 c 0,20,21
 684 184 684 184 611.5 94.5 c 128,-1,22
 539 5 539 5 413 -8 c 1,23,24
 418 -62 418 -62 448.5 -81.5 c 128,-1,25
 479 -101 479 -101 532 -101 c 0,26,0
 570 -101 570 -101 601 -91 c 128,-1,1
226 148 m 128,-1,28
 279 83 279 83 372 83 c 0,29,30
 466 83 466 83 519 148 c 128,-1,31
 572 213 572 213 572 330 c 256,32,33
 572 447 572 447 519 512 c 128,-1,34
 466 577 466 577 372 577 c 0,35,36
 279 577 279 577 226 512 c 128,-1,37
 173 447 173 447 173 330 c 256,38,27
 173 213 173 213 226 148 c 128,-1,28
EndSplineSet
Validated: 1
Substitution2: "'c2sc' Capitals to Small Capitals lookup 11 subtable" q.sc
Substitution2: "'aalt' Access All Alternates lookup 0 subtable" q.sc
EndChar

StartChar: R
Encoding: 82 82 69
Width: 672
GlyphClass: 2
Flags: W
AnchorPoint: "Anchor-0" 364 0 basechar 0
LayerCount: 2
Back
Fore
SplineSet
346 264 m 1,0,-1
 204 264 l 1,1,-1
 204 0 l 1,2,-1
 98 0 l 1,3,-1
 98 660 l 1,4,-1
 367 660 l 2,5,6
 474 660 474 660 536 607.5 c 128,-1,7
 598 555 598 555 598 462 c 0,8,9
 598 391 598 391 561.5 343.5 c 128,-1,10
 525 296 525 296 458 276 c 1,11,-1
 637 0 l 1,12,-1
 514 0 l 1,13,-1
 346 264 l 1,0,-1
204 353 m 1,14,-1
 358 353 l 2,15,16
 423 353 423 353 455 379.5 c 128,-1,17
 487 406 487 406 487 461 c 256,18,19
 487 516 487 516 455 542.5 c 128,-1,20
 423 569 423 569 358 569 c 2,21,-1
 204 569 l 1,22,-1
 204 353 l 1,14,-1
EndSplineSet
Validated: 1
Substitution2: "Single Substitution lookup 57 subtable" R.swsh.001
Substitution2: "Single Substitution lookup 56 subtable" R.swsh
Substitution2: "'ss03' Style Set 3 lookup 49 subtable" R.ss03
Substitution2: "'salt' Stylistic Alternatives lookup 42 subtable" R.ss03
AlternateSubs2: "'swsh' Swash lookup 37 subtable" R.swsh R.swsh.001
Substitution2: "'c2sc' Capitals to Small Capitals lookup 11 subtable" r.sc
AlternateSubs2: "'aalt' Access All Alternates lookup 1 subtable" r.sc R.swsh R.swsh.001 R.ss03
EndChar

StartChar: Racute
Encoding: 340 340 70
Width: 672
GlyphClass: 2
Flags: W
AnchorPoint: "Anchor-0" 364 0 basechar 0
LayerCount: 2
Back
Fore
SplineSet
356 737 m 1,0,-1
 274 737 l 1,1,-1
 330 888 l 1,2,-1
 444 888 l 1,3,-1
 356 737 l 1,0,-1
346 264 m 1,4,-1
 204 264 l 1,5,-1
 204 0 l 1,6,-1
 98 0 l 1,7,-1
 98 660 l 1,8,-1
 367 660 l 2,9,10
 474 660 474 660 536 607.5 c 128,-1,11
 598 555 598 555 598 462 c 0,12,13
 598 391 598 391 561.5 343.5 c 128,-1,14
 525 296 525 296 458 276 c 1,15,-1
 637 0 l 1,16,-1
 514 0 l 1,17,-1
 346 264 l 1,4,-1
204 353 m 1,18,-1
 358 353 l 2,19,20
 423 353 423 353 455 379.5 c 128,-1,21
 487 406 487 406 487 461 c 256,22,23
 487 516 487 516 455 542.5 c 128,-1,24
 423 569 423 569 358 569 c 2,25,-1
 204 569 l 1,26,-1
 204 353 l 1,18,-1
EndSplineSet
Validated: 1
Substitution2: "Single Substitution lookup 57 subtable" Racute.swsh.001
Substitution2: "Single Substitution lookup 56 subtable" Racute.swsh
Substitution2: "'ss03' Style Set 3 lookup 49 subtable" Racute.ss03
Substitution2: "'salt' Stylistic Alternatives lookup 42 subtable" Racute.ss03
AlternateSubs2: "'swsh' Swash lookup 37 subtable" Racute.swsh Racute.swsh.001
Substitution2: "'c2sc' Capitals to Small Capitals lookup 11 subtable" racute.sc
AlternateSubs2: "'aalt' Access All Alternates lookup 1 subtable" racute.sc Racute.swsh Racute.swsh.001 Racute.ss03
EndChar

StartChar: Rcaron
Encoding: 344 344 71
Width: 672
GlyphClass: 2
Flags: W
AnchorPoint: "Anchor-0" 364 0 basechar 0
LayerCount: 2
Back
Fore
SplineSet
267 733 m 1,0,-1
 154 900 l 1,1,-1
 243 900 l 1,2,-1
 323 793 l 1,3,-1
 403 900 l 1,4,-1
 492 900 l 1,5,-1
 379 733 l 1,6,-1
 267 733 l 1,0,-1
346 264 m 1,7,-1
 204 264 l 1,8,-1
 204 0 l 1,9,-1
 98 0 l 1,10,-1
 98 660 l 1,11,-1
 367 660 l 2,12,13
 474 660 474 660 536 607.5 c 128,-1,14
 598 555 598 555 598 462 c 0,15,16
 598 391 598 391 561.5 343.5 c 128,-1,17
 525 296 525 296 458 276 c 1,18,-1
 637 0 l 1,19,-1
 514 0 l 1,20,-1
 346 264 l 1,7,-1
204 353 m 1,21,-1
 358 353 l 2,22,23
 423 353 423 353 455 379.5 c 128,-1,24
 487 406 487 406 487 461 c 256,25,26
 487 516 487 516 455 542.5 c 128,-1,27
 423 569 423 569 358 569 c 2,28,-1
 204 569 l 1,29,-1
 204 353 l 1,21,-1
EndSplineSet
Validated: 1
Substitution2: "Single Substitution lookup 57 subtable" Rcaron.swsh.001
Substitution2: "Single Substitution lookup 56 subtable" Rcaron.swsh
Substitution2: "'ss03' Style Set 3 lookup 49 subtable" Rcaron.ss03
Substitution2: "'salt' Stylistic Alternatives lookup 42 subtable" Rcaron.ss03
AlternateSubs2: "'swsh' Swash lookup 37 subtable" Rcaron.swsh Rcaron.swsh.001
Substitution2: "'c2sc' Capitals to Small Capitals lookup 11 subtable" rcaron.sc
AlternateSubs2: "'aalt' Access All Alternates lookup 1 subtable" rcaron.sc Rcaron.swsh Rcaron.swsh.001 Rcaron.ss03
EndChar

StartChar: S
Encoding: 83 83 72
Width: 642
GlyphClass: 2
Flags: W
AnchorPoint: "Anchor-0" 355 0 basechar 0
LayerCount: 2
Back
Fore
SplineSet
478.5 637 m 128,-1,1
 543 604 543 604 587 536 c 1,2,-1
 506 463 l 1,3,4
 478 523 478 523 436 550 c 128,-1,5
 394 577 394 577 324 577 c 0,6,7
 255 577 255 577 217 549.5 c 128,-1,8
 179 522 179 522 179 479 c 0,9,10
 179 439 179 439 216 415.5 c 128,-1,11
 253 392 253 392 348 375 c 0,12,13
 437 359 437 359 489.5 334.5 c 128,-1,14
 542 310 542 310 566 273.5 c 128,-1,15
 590 237 590 237 590 183 c 0,16,17
 590 125 590 125 557 81 c 128,-1,18
 524 37 524 37 464.5 13.5 c 128,-1,19
 405 -10 405 -10 327 -10 c 0,20,21
 126 -10 126 -10 43 124 c 1,22,-1
 118 199 l 1,23,24
 150 139 150 139 200.5 111 c 128,-1,25
 251 83 251 83 326 83 c 0,26,27
 397 83 397 83 437.5 107.5 c 128,-1,28
 478 132 478 132 478 177 c 0,29,30
 478 213 478 213 441.5 235 c 128,-1,31
 405 257 405 257 314 274 c 256,32,33
 223 291 223 291 169 316 c 128,-1,34
 115 341 115 341 90.5 378 c 128,-1,35
 66 415 66 415 66 468 c 0,36,37
 66 524 66 524 97 570 c 128,-1,38
 128 616 128 616 186.5 643 c 128,-1,39
 245 670 245 670 323 670 c 0,40,0
 414 670 414 670 478.5 637 c 128,-1,1
EndSplineSet
Validated: 1
Substitution2: "Single Substitution lookup 57 subtable" S.swsh
Substitution2: "Single Substitution lookup 56 subtable" S.swsh
Substitution2: "'swsh' Swash lookup 38 subtable" S.swsh
Substitution2: "'c2sc' Capitals to Small Capitals lookup 11 subtable" s.sc
AlternateSubs2: "'aalt' Access All Alternates lookup 1 subtable" s.sc S.swsh
EndChar

StartChar: Sacute
Encoding: 346 346 73
Width: 642
GlyphClass: 2
Flags: W
AnchorPoint: "Anchor-0" 355 0 basechar 0
LayerCount: 2
Back
Fore
SplineSet
447 888 m 1,0,-1
 359 737 l 1,1,-1
 277 737 l 1,2,-1
 333 888 l 1,3,-1
 447 888 l 1,0,-1
478.5 637 m 128,-1,5
 543 604 543 604 587 536 c 1,6,-1
 506 463 l 1,7,8
 478 523 478 523 436 550 c 128,-1,9
 394 577 394 577 324 577 c 0,10,11
 255 577 255 577 217 549.5 c 128,-1,12
 179 522 179 522 179 479 c 0,13,14
 179 439 179 439 216 415.5 c 128,-1,15
 253 392 253 392 348 375 c 0,16,17
 437 359 437 359 489.5 334.5 c 128,-1,18
 542 310 542 310 566 273.5 c 128,-1,19
 590 237 590 237 590 183 c 0,20,21
 590 125 590 125 557 81 c 128,-1,22
 524 37 524 37 464.5 13.5 c 128,-1,23
 405 -10 405 -10 327 -10 c 0,24,25
 126 -10 126 -10 43 124 c 1,26,-1
 118 199 l 1,27,28
 150 139 150 139 200.5 111 c 128,-1,29
 251 83 251 83 326 83 c 0,30,31
 397 83 397 83 437.5 107.5 c 128,-1,32
 478 132 478 132 478 177 c 0,33,34
 478 213 478 213 441.5 235 c 128,-1,35
 405 257 405 257 314 274 c 256,36,37
 223 291 223 291 169 316 c 128,-1,38
 115 341 115 341 90.5 378 c 128,-1,39
 66 415 66 415 66 468 c 0,40,41
 66 524 66 524 97 570 c 128,-1,42
 128 616 128 616 186.5 643 c 128,-1,43
 245 670 245 670 323 670 c 0,44,4
 414 670 414 670 478.5 637 c 128,-1,5
EndSplineSet
Validated: 1
Substitution2: "Single Substitution lookup 57 subtable" Sacute.swsh
Substitution2: "'swsh' Swash lookup 38 subtable" Sacute.swsh
Substitution2: "'c2sc' Capitals to Small Capitals lookup 11 subtable" sacute.sc
AlternateSubs2: "'aalt' Access All Alternates lookup 1 subtable" sacute.sc Sacute.swsh
EndChar

StartChar: Scaron
Encoding: 352 352 74
Width: 642
GlyphClass: 2
Flags: W
AnchorPoint: "Anchor-0" 355 0 basechar 0
LayerCount: 2
Back
Fore
SplineSet
382 733 m 1,0,-1
 270 733 l 1,1,-1
 157 900 l 1,2,-1
 246 900 l 1,3,-1
 326 793 l 1,4,-1
 406 900 l 1,5,-1
 495 900 l 1,6,-1
 382 733 l 1,0,-1
478.5 637 m 128,-1,8
 543 604 543 604 587 536 c 1,9,-1
 506 463 l 1,10,11
 478 523 478 523 436 550 c 128,-1,12
 394 577 394 577 324 577 c 0,13,14
 255 577 255 577 217 549.5 c 128,-1,15
 179 522 179 522 179 479 c 0,16,17
 179 439 179 439 216 415.5 c 128,-1,18
 253 392 253 392 348 375 c 0,19,20
 437 359 437 359 489.5 334.5 c 128,-1,21
 542 310 542 310 566 273.5 c 128,-1,22
 590 237 590 237 590 183 c 0,23,24
 590 125 590 125 557 81 c 128,-1,25
 524 37 524 37 464.5 13.5 c 128,-1,26
 405 -10 405 -10 327 -10 c 0,27,28
 126 -10 126 -10 43 124 c 1,29,-1
 118 199 l 1,30,31
 150 139 150 139 200.5 111 c 128,-1,32
 251 83 251 83 326 83 c 0,33,34
 397 83 397 83 437.5 107.5 c 128,-1,35
 478 132 478 132 478 177 c 0,36,37
 478 213 478 213 441.5 235 c 128,-1,38
 405 257 405 257 314 274 c 256,39,40
 223 291 223 291 169 316 c 128,-1,41
 115 341 115 341 90.5 378 c 128,-1,42
 66 415 66 415 66 468 c 0,43,44
 66 524 66 524 97 570 c 128,-1,45
 128 616 128 616 186.5 643 c 128,-1,46
 245 670 245 670 323 670 c 0,47,7
 414 670 414 670 478.5 637 c 128,-1,8
EndSplineSet
Validated: 1
Substitution2: "Single Substitution lookup 57 subtable" Scaron.swsh
Substitution2: "'swsh' Swash lookup 38 subtable" Scaron.swsh
Substitution2: "'c2sc' Capitals to Small Capitals lookup 11 subtable" scaron.sc
AlternateSubs2: "'aalt' Access All Alternates lookup 1 subtable" scaron.sc Scaron.swsh
EndChar

StartChar: uni1E9E
Encoding: 7838 7838 75
Width: 699
GlyphClass: 2
Flags: W
LayerCount: 2
Back
Fore
SplineSet
608.5 321 m 128,-1,1
 665 274 665 274 665 186 c 0,2,3
 665 128 665 128 638.5 84.5 c 128,-1,4
 612 41 612 41 564.5 18 c 128,-1,5
 517 -5 517 -5 457 -5 c 0,6,7
 394 -5 394 -5 348 12 c 128,-1,8
 302 29 302 29 282 57 c 1,9,-1
 319 129 l 1,10,11
 338 108 338 108 370.5 95.5 c 128,-1,12
 403 83 403 83 441 83 c 0,13,14
 493 83 493 83 525 111.5 c 128,-1,15
 557 140 557 140 557 187 c 0,16,17
 557 236 557 236 521.5 263.5 c 128,-1,18
 486 291 486 291 422 291 c 2,19,-1
 341 291 l 1,20,-1
 341 368 l 1,21,-1
 507 569 l 1,22,-1
 344 569 l 2,23,24
 285 569 285 569 245 529.5 c 128,-1,25
 205 490 205 490 205 428 c 2,26,-1
 205 0 l 1,27,-1
 98 0 l 1,28,-1
 98 436 l 2,29,30
 98 503 98 503 128 554 c 128,-1,31
 158 605 158 605 212 632.5 c 128,-1,32
 266 660 266 660 335 660 c 2,33,-1
 623 660 l 1,34,-1
 623 569 l 1,35,-1
 450 368 l 1,36,-1
 458 368 l 2,37,0
 552 368 552 368 608.5 321 c 128,-1,1
EndSplineSet
Validated: 1
Substitution2: "'c2sc' Capitals to Small Capitals lookup 11 subtable" germandbls.sc
Substitution2: "'aalt' Access All Alternates lookup 0 subtable" germandbls.sc
EndChar

StartChar: T
Encoding: 84 84 76
Width: 619
GlyphClass: 2
Flags: W
AnchorPoint: "Anchor-0" 319 0 basechar 0
LayerCount: 2
Back
Fore
SplineSet
589 568 m 1,0,-1
 363 568 l 1,1,-1
 363 0 l 1,2,-1
 256 0 l 1,3,-1
 256 568 l 1,4,-1
 30 568 l 1,5,-1
 30 660 l 1,6,-1
 589 660 l 1,7,-1
 589 568 l 1,0,-1
EndSplineSet
Validated: 1
Substitution2: "Single Substitution lookup 56 subtable" T.swsh
Substitution2: "'swsh' Swash lookup 38 subtable" T.swsh
Substitution2: "'c2sc' Capitals to Small Capitals lookup 11 subtable" t.sc
AlternateSubs2: "'aalt' Access All Alternates lookup 1 subtable" t.sc T.swsh
EndChar

StartChar: Tcaron
Encoding: 356 356 77
Width: 619
GlyphClass: 2
Flags: W
AnchorPoint: "Anchor-0" 319 0 basechar 0
LayerCount: 2
Back
Fore
SplineSet
252 733 m 1,0,-1
 139 900 l 1,1,-1
 228 900 l 1,2,-1
 308 793 l 1,3,-1
 388 900 l 1,4,-1
 477 900 l 1,5,-1
 364 733 l 1,6,-1
 252 733 l 1,0,-1
589 568 m 1,7,-1
 363 568 l 1,8,-1
 363 0 l 1,9,-1
 256 0 l 1,10,-1
 256 568 l 1,11,-1
 30 568 l 1,12,-1
 30 660 l 1,13,-1
 589 660 l 1,14,-1
 589 568 l 1,7,-1
EndSplineSet
Validated: 1
Substitution2: "Single Substitution lookup 56 subtable" Tcaron.swsh
Substitution2: "'swsh' Swash lookup 38 subtable" Tcaron.swsh
Substitution2: "'c2sc' Capitals to Small Capitals lookup 11 subtable" tcaron.sc
AlternateSubs2: "'aalt' Access All Alternates lookup 1 subtable" tcaron.sc Tcaron.swsh
EndChar

StartChar: U
Encoding: 85 85 78
Width: 718
GlyphClass: 2
Flags: W
LayerCount: 2
Back
Fore
SplineSet
629 253 m 2,0,1
 629 123 629 123 560 56.5 c 128,-1,2
 491 -10 491 -10 359 -10 c 256,3,4
 227 -10 227 -10 158 56.5 c 128,-1,5
 89 123 89 123 89 253 c 2,6,-1
 89 660 l 1,7,-1
 197 660 l 1,8,-1
 197 266 l 2,9,10
 197 172 197 172 236.5 127.5 c 128,-1,11
 276 83 276 83 359 83 c 256,12,13
 442 83 442 83 481.5 127.5 c 128,-1,14
 521 172 521 172 521 266 c 2,15,-1
 521 660 l 1,16,-1
 629 660 l 1,17,-1
 629 253 l 2,0,1
EndSplineSet
Validated: 1
Substitution2: "'c2sc' Capitals to Small Capitals lookup 11 subtable" u.sc
Substitution2: "'aalt' Access All Alternates lookup 0 subtable" u.sc
EndChar

StartChar: Uacute
Encoding: 218 218 79
Width: 718
GlyphClass: 2
Flags: W
LayerCount: 2
Back
Fore
SplineSet
478 888 m 1,0,-1
 390 737 l 1,1,-1
 308 737 l 1,2,-1
 364 888 l 1,3,-1
 478 888 l 1,0,-1
629 253 m 2,4,5
 629 123 629 123 560 56.5 c 128,-1,6
 491 -10 491 -10 359 -10 c 256,7,8
 227 -10 227 -10 158 56.5 c 128,-1,9
 89 123 89 123 89 253 c 2,10,-1
 89 660 l 1,11,-1
 197 660 l 1,12,-1
 197 266 l 2,13,14
 197 172 197 172 236.5 127.5 c 128,-1,15
 276 83 276 83 359 83 c 256,16,17
 442 83 442 83 481.5 127.5 c 128,-1,18
 521 172 521 172 521 266 c 2,19,-1
 521 660 l 1,20,-1
 629 660 l 1,21,-1
 629 253 l 2,4,5
EndSplineSet
Validated: 1
Substitution2: "'c2sc' Capitals to Small Capitals lookup 11 subtable" uacute.sc
Substitution2: "'aalt' Access All Alternates lookup 0 subtable" uacute.sc
EndChar

StartChar: Ucircumflex
Encoding: 219 219 80
Width: 718
GlyphClass: 2
Flags: W
LayerCount: 2
Back
Fore
SplineSet
439 731 m 1,0,-1
 359 838 l 1,1,-1
 279 731 l 1,2,-1
 190 731 l 1,3,-1
 303 898 l 1,4,-1
 415 898 l 1,5,-1
 528 731 l 1,6,-1
 439 731 l 1,0,-1
629 253 m 2,7,8
 629 123 629 123 560 56.5 c 128,-1,9
 491 -10 491 -10 359 -10 c 256,10,11
 227 -10 227 -10 158 56.5 c 128,-1,12
 89 123 89 123 89 253 c 2,13,-1
 89 660 l 1,14,-1
 197 660 l 1,15,-1
 197 266 l 2,16,17
 197 172 197 172 236.5 127.5 c 128,-1,18
 276 83 276 83 359 83 c 256,19,20
 442 83 442 83 481.5 127.5 c 128,-1,21
 521 172 521 172 521 266 c 2,22,-1
 521 660 l 1,23,-1
 629 660 l 1,24,-1
 629 253 l 2,7,8
EndSplineSet
Validated: 1
Substitution2: "'c2sc' Capitals to Small Capitals lookup 11 subtable" ucircumflex.sc
Substitution2: "'aalt' Access All Alternates lookup 0 subtable" ucircumflex.sc
EndChar

StartChar: Ugrave
Encoding: 217 217 82
Width: 718
GlyphClass: 2
Flags: W
LayerCount: 2
Back
Fore
SplineSet
398 737 m 1,0,-1
 316 737 l 1,1,-1
 228 888 l 1,2,-1
 342 888 l 1,3,-1
 398 737 l 1,0,-1
629 253 m 2,4,5
 629 123 629 123 560 56.5 c 128,-1,6
 491 -10 491 -10 359 -10 c 256,7,8
 227 -10 227 -10 158 56.5 c 128,-1,9
 89 123 89 123 89 253 c 2,10,-1
 89 660 l 1,11,-1
 197 660 l 1,12,-1
 197 266 l 2,13,14
 197 172 197 172 236.5 127.5 c 128,-1,15
 276 83 276 83 359 83 c 256,16,17
 442 83 442 83 481.5 127.5 c 128,-1,18
 521 172 521 172 521 266 c 2,19,-1
 521 660 l 1,20,-1
 629 660 l 1,21,-1
 629 253 l 2,4,5
EndSplineSet
Validated: 1
Substitution2: "'c2sc' Capitals to Small Capitals lookup 11 subtable" ugrave.sc
Substitution2: "'aalt' Access All Alternates lookup 0 subtable" ugrave.sc
EndChar

StartChar: Uhungarumlaut
Encoding: 368 368 83
Width: 718
GlyphClass: 2
Flags: W
LayerCount: 2
Back
Fore
SplineSet
381 890 m 1,0,-1
 293 739 l 1,1,-1
 211 739 l 1,2,-1
 267 890 l 1,3,-1
 381 890 l 1,0,-1
568 888 m 1,4,-1
 480 737 l 1,5,-1
 398 737 l 1,6,-1
 454 888 l 1,7,-1
 568 888 l 1,4,-1
629 253 m 2,8,9
 629 123 629 123 560 56.5 c 128,-1,10
 491 -10 491 -10 359 -10 c 256,11,12
 227 -10 227 -10 158 56.5 c 128,-1,13
 89 123 89 123 89 253 c 2,14,-1
 89 660 l 1,15,-1
 197 660 l 1,16,-1
 197 266 l 2,17,18
 197 172 197 172 236.5 127.5 c 128,-1,19
 276 83 276 83 359 83 c 256,20,21
 442 83 442 83 481.5 127.5 c 128,-1,22
 521 172 521 172 521 266 c 2,23,-1
 521 660 l 1,24,-1
 629 660 l 1,25,-1
 629 253 l 2,8,9
EndSplineSet
Validated: 1
Substitution2: "'c2sc' Capitals to Small Capitals lookup 11 subtable" uhungarumlaut.sc
Substitution2: "'aalt' Access All Alternates lookup 0 subtable" uhungarumlaut.sc
EndChar

StartChar: Uogonek
Encoding: 370 370 85
Width: 718
GlyphClass: 2
Flags: W
LayerCount: 2
Back
Fore
SplineSet
629 660 m 1,0,-1
 629 253 l 2,1,2
 629 146 629 146 582.5 82 c 128,-1,3
 536 18 536 18 445 -2 c 1,4,5
 354 -45 354 -45 354 -96 c 0,6,7
 354 -120 354 -120 370.5 -133 c 128,-1,8
 387 -146 387 -146 415 -146 c 0,9,10
 450 -146 450 -146 468 -135 c 1,11,-1
 486 -196 l 1,12,13
 454 -215 454 -215 398 -215 c 256,14,15
 342 -215 342 -215 307.5 -187 c 128,-1,16
 273 -159 273 -159 273 -112 c 0,17,18
 273 -49 273 -49 329 -9 c 1,19,20
 212 -2 212 -2 150.5 64 c 128,-1,21
 89 130 89 130 89 253 c 2,22,-1
 89 660 l 1,23,-1
 197 660 l 1,24,-1
 197 266 l 2,25,26
 197 172 197 172 236.5 127.5 c 128,-1,27
 276 83 276 83 359 83 c 256,28,29
 442 83 442 83 481.5 127.5 c 128,-1,30
 521 172 521 172 521 266 c 2,31,-1
 521 660 l 1,32,-1
 629 660 l 1,0,-1
EndSplineSet
Validated: 1
Substitution2: "'c2sc' Capitals to Small Capitals lookup 11 subtable" uogonek.sc
Substitution2: "'aalt' Access All Alternates lookup 0 subtable" uogonek.sc
EndChar

StartChar: V
Encoding: 86 86 87
Width: 659
GlyphClass: 2
Flags: W
LayerCount: 2
Back
Fore
SplineSet
392 0 m 1,0,-1
 267 0 l 1,1,-1
 22 660 l 1,2,-1
 136 660 l 1,3,-1
 290 221 l 1,4,-1
 330 90 l 1,5,-1
 370 220 l 1,6,-1
 524 660 l 1,7,-1
 637 660 l 1,8,-1
 392 0 l 1,0,-1
EndSplineSet
Validated: 1
Substitution2: "'c2sc' Capitals to Small Capitals lookup 11 subtable" v.sc
Substitution2: "'aalt' Access All Alternates lookup 0 subtable" v.sc
EndChar

StartChar: W
Encoding: 87 87 88
Width: 972
GlyphClass: 2
Flags: W
LayerCount: 2
Back
Fore
SplineSet
349 0 m 1,0,-1
 222 0 l 1,1,-1
 28 660 l 1,2,-1
 144 660 l 1,3,-1
 288 85 l 1,4,-1
 433 660 l 1,5,-1
 543 660 l 1,6,-1
 689 84 l 1,7,-1
 834 660 l 1,8,-1
 944 660 l 1,9,-1
 751 0 l 1,10,-1
 625 0 l 1,11,-1
 520 396 l 1,12,-1
 487 548 l 1,13,-1
 486 548 l 1,14,-1
 453 396 l 1,15,-1
 349 0 l 1,0,-1
EndSplineSet
Validated: 1
Substitution2: "Single Substitution lookup 56 subtable" W.swsh
Substitution2: "'swsh' Swash lookup 38 subtable" W.swsh
Substitution2: "'c2sc' Capitals to Small Capitals lookup 11 subtable" w.sc
AlternateSubs2: "'aalt' Access All Alternates lookup 1 subtable" w.sc W.swsh
EndChar

StartChar: X
Encoding: 88 88 89
Width: 620
GlyphClass: 2
Flags: W
LayerCount: 2
Back
Fore
SplineSet
468 0 m 1,0,-1
 306 257 l 1,1,-1
 144 0 l 1,2,-1
 21 0 l 1,3,-1
 250 335 l 1,4,-1
 39 660 l 1,5,-1
 166 660 l 1,6,-1
 318 415 l 1,7,-1
 470 660 l 1,8,-1
 586 660 l 1,9,-1
 373 339 l 1,10,-1
 595 0 l 1,11,-1
 468 0 l 1,0,-1
EndSplineSet
Validated: 1
Substitution2: "'c2sc' Capitals to Small Capitals lookup 11 subtable" x.sc
Substitution2: "'aalt' Access All Alternates lookup 0 subtable" x.sc
EndChar

StartChar: Y
Encoding: 89 89 90
Width: 597
GlyphClass: 2
Flags: W
LayerCount: 2
Back
Fore
SplineSet
352 253 m 1,0,-1
 352 0 l 1,1,-1
 245 0 l 1,2,-1
 245 253 l 1,3,-1
 10 660 l 1,4,-1
 129 660 l 1,5,-1
 247 448 l 1,6,-1
 299 349 l 1,7,-1
 351 448 l 1,8,-1
 468 660 l 1,9,-1
 588 660 l 1,10,-1
 352 253 l 1,0,-1
EndSplineSet
Validated: 1
Substitution2: "'c2sc' Capitals to Small Capitals lookup 11 subtable" y.sc
Substitution2: "'aalt' Access All Alternates lookup 0 subtable" y.sc
EndChar

StartChar: Yacute
Encoding: 221 221 91
Width: 597
GlyphClass: 2
Flags: W
LayerCount: 2
Back
Fore
SplineSet
418 888 m 1,0,-1
 330 737 l 1,1,-1
 248 737 l 1,2,-1
 304 888 l 1,3,-1
 418 888 l 1,0,-1
352 253 m 1,4,-1
 352 0 l 1,5,-1
 245 0 l 1,6,-1
 245 253 l 1,7,-1
 10 660 l 1,8,-1
 129 660 l 1,9,-1
 247 448 l 1,10,-1
 299 349 l 1,11,-1
 351 448 l 1,12,-1
 468 660 l 1,13,-1
 588 660 l 1,14,-1
 352 253 l 1,4,-1
EndSplineSet
Validated: 1
Substitution2: "'c2sc' Capitals to Small Capitals lookup 11 subtable" yacute.sc
Substitution2: "'aalt' Access All Alternates lookup 0 subtable" yacute.sc
EndChar

StartChar: Z
Encoding: 90 90 93
Width: 631
GlyphClass: 2
Flags: W
LayerCount: 2
Back
Fore
SplineSet
583 91 m 1,0,-1
 583 0 l 1,1,-1
 50 0 l 1,2,-1
 50 87 l 1,3,-1
 449 569 l 1,4,-1
 59 569 l 1,5,-1
 59 660 l 1,6,-1
 571 660 l 1,7,-1
 571 573 l 1,8,-1
 172 91 l 1,9,-1
 583 91 l 1,0,-1
EndSplineSet
Validated: 1
Substitution2: "'c2sc' Capitals to Small Capitals lookup 11 subtable" z.sc
Substitution2: "'aalt' Access All Alternates lookup 0 subtable" z.sc
EndChar

StartChar: Zacute
Encoding: 377 377 94
Width: 631
GlyphClass: 2
Flags: W
LayerCount: 2
Back
Fore
SplineSet
342 737 m 1,0,-1
 260 737 l 1,1,-1
 316 888 l 1,2,-1
 430 888 l 1,3,-1
 342 737 l 1,0,-1
583 91 m 1,4,-1
 583 0 l 1,5,-1
 50 0 l 1,6,-1
 50 87 l 1,7,-1
 449 569 l 1,8,-1
 59 569 l 1,9,-1
 59 660 l 1,10,-1
 571 660 l 1,11,-1
 571 573 l 1,12,-1
 172 91 l 1,13,-1
 583 91 l 1,4,-1
EndSplineSet
Validated: 1
Substitution2: "'c2sc' Capitals to Small Capitals lookup 11 subtable" zacute.sc
Substitution2: "'aalt' Access All Alternates lookup 0 subtable" zacute.sc
EndChar

StartChar: Zcaron
Encoding: 381 381 95
Width: 631
GlyphClass: 2
Flags: W
LayerCount: 2
Back
Fore
SplineSet
253 733 m 1,0,-1
 140 900 l 1,1,-1
 229 900 l 1,2,-1
 309 793 l 1,3,-1
 389 900 l 1,4,-1
 478 900 l 1,5,-1
 365 733 l 1,6,-1
 253 733 l 1,0,-1
583 91 m 1,7,-1
 583 0 l 1,8,-1
 50 0 l 1,9,-1
 50 87 l 1,10,-1
 449 569 l 1,11,-1
 59 569 l 1,12,-1
 59 660 l 1,13,-1
 571 660 l 1,14,-1
 571 573 l 1,15,-1
 172 91 l 1,16,-1
 583 91 l 1,7,-1
EndSplineSet
Validated: 1
Substitution2: "'c2sc' Capitals to Small Capitals lookup 11 subtable" zcaron.sc
Substitution2: "'aalt' Access All Alternates lookup 0 subtable" zcaron.sc
EndChar

StartChar: uni015E
Encoding: 350 350 102
Width: 642
GlyphClass: 2
Flags: W
AnchorPoint: "Anchor-0" 355 0 basechar 0
LayerCount: 2
Back
Fore
SplineSet
536.5 57.5 m 128,-1,1
 483 8 483 8 391 -6 c 1,2,3
 418 -26 418 -26 432.5 -52 c 128,-1,4
 447 -78 447 -78 447 -105 c 0,5,6
 447 -153 447 -153 413 -184 c 128,-1,7
 379 -215 379 -215 323 -215 c 0,8,9
 284 -215 284 -215 256.5 -206 c 128,-1,10
 229 -197 229 -197 208 -178 c 1,11,-1
 241 -116 l 1,12,13
 254 -129 254 -129 272 -137.5 c 128,-1,14
 290 -146 290 -146 311 -146 c 0,15,16
 335 -146 335 -146 351 -130.5 c 128,-1,17
 367 -115 367 -115 367 -90 c 0,18,19
 367 -64 367 -64 351.5 -45.5 c 128,-1,20
 336 -27 336 -27 295 -9 c 1,21,22
 120 1 120 1 43 124 c 1,23,-1
 118 199 l 1,24,25
 150 139 150 139 200.5 111 c 128,-1,26
 251 83 251 83 326 83 c 0,27,28
 397 83 397 83 437.5 107.5 c 128,-1,29
 478 132 478 132 478 177 c 0,30,31
 478 213 478 213 441.5 235 c 128,-1,32
 405 257 405 257 314 274 c 256,33,34
 223 291 223 291 169 316 c 128,-1,35
 115 341 115 341 90.5 378 c 128,-1,36
 66 415 66 415 66 468 c 0,37,38
 66 524 66 524 97 570 c 128,-1,39
 128 616 128 616 186.5 643 c 128,-1,40
 245 670 245 670 323 670 c 0,41,42
 414 670 414 670 478.5 637 c 128,-1,43
 543 604 543 604 587 536 c 1,44,-1
 506 463 l 1,45,46
 478 523 478 523 436 550 c 128,-1,47
 394 577 394 577 324 577 c 0,48,49
 255 577 255 577 217 549.5 c 128,-1,50
 179 522 179 522 179 479 c 0,51,52
 179 439 179 439 216 415.5 c 128,-1,53
 253 392 253 392 348 375 c 0,54,55
 437 359 437 359 489.5 334.5 c 128,-1,56
 542 310 542 310 566 273.5 c 128,-1,57
 590 237 590 237 590 183 c 0,58,0
 590 107 590 107 536.5 57.5 c 128,-1,1
EndSplineSet
Validated: 1
Substitution2: "Single Substitution lookup 57 subtable" Scedilla.swsh
Substitution2: "'swsh' Swash lookup 38 subtable" Scedilla.swsh
Substitution2: "'c2sc' Capitals to Small Capitals lookup 11 subtable" Scedilla.sc
Substitution2: "'locl' Localized Forms in Latin lookup 8 subtable" uni0218
Substitution2: "'locl' Localized Forms in Latin lookup 7 subtable" uni0218
AlternateSubs2: "'aalt' Access All Alternates lookup 1 subtable" Scedilla.sc Scedilla.swsh
EndChar

StartChar: uni0162
Encoding: 354 354 103
Width: 619
GlyphClass: 2
Flags: W
AnchorPoint: "Anchor-0" 319 0 basechar 0
LayerCount: 2
Back
Fore
SplineSet
363 568 m 1,0,-1
 363 3 l 1,1,2
 428 -38 428 -38 428 -104 c 0,3,4
 428 -152 428 -152 393.5 -183.5 c 128,-1,5
 359 -215 359 -215 303 -215 c 0,6,7
 228 -215 228 -215 187 -178 c 1,8,-1
 222 -115 l 1,9,10
 250 -145 250 -145 291 -145 c 0,11,12
 315 -145 315 -145 331 -130 c 128,-1,13
 347 -115 347 -115 347 -89 c 0,14,15
 347 -62 347 -62 329.5 -43.5 c 128,-1,16
 312 -25 312 -25 268 0 c 1,17,-1
 256 0 l 1,18,-1
 256 568 l 1,19,-1
 30 568 l 1,20,-1
 30 660 l 1,21,-1
 589 660 l 1,22,-1
 589 568 l 1,23,-1
 363 568 l 1,0,-1
EndSplineSet
Validated: 1
Substitution2: "Single Substitution lookup 56 subtable" uni0162.swsh
Substitution2: "'swsh' Swash lookup 38 subtable" uni0162.swsh
Substitution2: "'c2sc' Capitals to Small Capitals lookup 11 subtable" uni0162.sc
Substitution2: "'locl' Localized Forms in Latin lookup 8 subtable" uni021A
Substitution2: "'locl' Localized Forms in Latin lookup 7 subtable" uni021A
AlternateSubs2: "'aalt' Access All Alternates lookup 1 subtable" uni0162.sc uni0162.swsh
EndChar

StartChar: E.swsh.001
Encoding: 65537 -1 106
Width: 772
GlyphClass: 2
Flags: W
AnchorPoint: "Anchor-0" 337 0 basechar 0
LayerCount: 2
Back
Fore
SplineSet
724 299.5 m 128,-1,1
 762 254 762 254 762 181 c 0,2,3
 762 93 762 93 705.5 46.5 c 128,-1,4
 649 0 649 0 550 0 c 2,5,-1
 98 0 l 1,6,-1
 98 660 l 1,7,-1
 604 660 l 1,8,-1
 604 568 l 1,9,-1
 205 568 l 1,10,-1
 205 371 l 1,11,-1
 419 371 l 1,12,-1
 419 281 l 1,13,-1
 205 281 l 1,14,-1
 205 92 l 1,15,-1
 531 92 l 2,16,17
 598 92 598 92 630 114 c 128,-1,18
 662 136 662 136 662 183 c 0,19,20
 662 225 662 225 642 248 c 128,-1,21
 622 271 622 271 587 273 c 1,22,-1
 626 350 l 1,23,0
 686 345 686 345 724 299.5 c 128,-1,1
EndSplineSet
Validated: 1
EndChar

StartChar: Eacute.swsh.001
Encoding: 65538 -1 107
Width: 772
GlyphClass: 2
Flags: W
AnchorPoint: "Anchor-0" 337 0 basechar 0
LayerCount: 2
Back
Fore
SplineSet
387 737 m 1,0,-1
 305 737 l 1,1,-1
 361 888 l 1,2,-1
 475 888 l 1,3,-1
 387 737 l 1,0,-1
724 299.5 m 128,-1,5
 762 254 762 254 762 181 c 0,6,7
 762 93 762 93 705.5 46.5 c 128,-1,8
 649 0 649 0 550 0 c 2,9,-1
 98 0 l 1,10,-1
 98 660 l 1,11,-1
 604 660 l 1,12,-1
 604 568 l 1,13,-1
 205 568 l 1,14,-1
 205 371 l 1,15,-1
 419 371 l 1,16,-1
 419 281 l 1,17,-1
 205 281 l 1,18,-1
 205 92 l 1,19,-1
 531 92 l 2,20,21
 598 92 598 92 630 114 c 128,-1,22
 662 136 662 136 662 183 c 0,23,24
 662 225 662 225 642 248 c 128,-1,25
 622 271 622 271 587 273 c 1,26,-1
 626 350 l 1,27,4
 686 345 686 345 724 299.5 c 128,-1,5
EndSplineSet
Validated: 1
EndChar

StartChar: Ecaron.swsh.001
Encoding: 65539 -1 108
Width: 772
GlyphClass: 2
Flags: W
AnchorPoint: "Anchor-0" 337 0 basechar 0
LayerCount: 2
Back
Fore
SplineSet
299 733 m 1,0,-1
 186 900 l 1,1,-1
 275 900 l 1,2,-1
 355 793 l 1,3,-1
 435 900 l 1,4,-1
 524 900 l 1,5,-1
 411 733 l 1,6,-1
 299 733 l 1,0,-1
724 299.5 m 128,-1,8
 762 254 762 254 762 181 c 0,9,10
 762 93 762 93 705.5 46.5 c 128,-1,11
 649 0 649 0 550 0 c 2,12,-1
 98 0 l 1,13,-1
 98 660 l 1,14,-1
 604 660 l 1,15,-1
 604 568 l 1,16,-1
 205 568 l 1,17,-1
 205 371 l 1,18,-1
 419 371 l 1,19,-1
 419 281 l 1,20,-1
 205 281 l 1,21,-1
 205 92 l 1,22,-1
 531 92 l 2,23,24
 598 92 598 92 630 114 c 128,-1,25
 662 136 662 136 662 183 c 0,26,27
 662 225 662 225 642 248 c 128,-1,28
 622 271 622 271 587 273 c 1,29,-1
 626 350 l 1,30,7
 686 345 686 345 724 299.5 c 128,-1,8
EndSplineSet
Validated: 1
EndChar

StartChar: Ecircumflex.swsh.001
Encoding: 65540 -1 109
Width: 772
GlyphClass: 2
Flags: W
AnchorPoint: "Anchor-0" 337 0 basechar 0
LayerCount: 2
Back
Fore
SplineSet
276 731 m 1,0,-1
 187 731 l 1,1,-1
 300 898 l 1,2,-1
 412 898 l 1,3,-1
 525 731 l 1,4,-1
 436 731 l 1,5,-1
 356 838 l 1,6,-1
 276 731 l 1,0,-1
724 299.5 m 128,-1,8
 762 254 762 254 762 181 c 0,9,10
 762 93 762 93 705.5 46.5 c 128,-1,11
 649 0 649 0 550 0 c 2,12,-1
 98 0 l 1,13,-1
 98 660 l 1,14,-1
 604 660 l 1,15,-1
 604 568 l 1,16,-1
 205 568 l 1,17,-1
 205 371 l 1,18,-1
 419 371 l 1,19,-1
 419 281 l 1,20,-1
 205 281 l 1,21,-1
 205 92 l 1,22,-1
 531 92 l 2,23,24
 598 92 598 92 630 114 c 128,-1,25
 662 136 662 136 662 183 c 0,26,27
 662 225 662 225 642 248 c 128,-1,28
 622 271 622 271 587 273 c 1,29,-1
 626 350 l 1,30,7
 686 345 686 345 724 299.5 c 128,-1,8
EndSplineSet
Validated: 1
EndChar

StartChar: Egrave.swsh.001
Encoding: 65543 -1 112
Width: 772
GlyphClass: 2
Flags: W
AnchorPoint: "Anchor-0" 337 0 basechar 0
LayerCount: 2
Back
Fore
SplineSet
313 737 m 1,0,-1
 225 888 l 1,1,-1
 339 888 l 1,2,-1
 395 737 l 1,3,-1
 313 737 l 1,0,-1
724 299.5 m 128,-1,5
 762 254 762 254 762 181 c 0,6,7
 762 93 762 93 705.5 46.5 c 128,-1,8
 649 0 649 0 550 0 c 2,9,-1
 98 0 l 1,10,-1
 98 660 l 1,11,-1
 604 660 l 1,12,-1
 604 568 l 1,13,-1
 205 568 l 1,14,-1
 205 371 l 1,15,-1
 419 371 l 1,16,-1
 419 281 l 1,17,-1
 205 281 l 1,18,-1
 205 92 l 1,19,-1
 531 92 l 2,20,21
 598 92 598 92 630 114 c 128,-1,22
 662 136 662 136 662 183 c 0,23,24
 662 225 662 225 642 248 c 128,-1,25
 622 271 622 271 587 273 c 1,26,-1
 626 350 l 1,27,4
 686 345 686 345 724 299.5 c 128,-1,5
EndSplineSet
Validated: 1
EndChar

StartChar: M.swsh.001
Encoding: 65545 -1 114
Width: 1099
GlyphClass: 2
Flags: W
LayerCount: 2
Back
Fore
SplineSet
1001 660 m 1,0,-1
 1001 0 l 1,1,-1
 902 0 l 1,2,-1
 902 382 l 1,3,-1
 910 564 l 1,4,-1
 909 564 l 1,5,-1
 708 0 l 1,6,-1
 618 0 l 1,7,-1
 418 564 l 1,8,-1
 416 564 l 1,9,-1
 424 382 l 1,10,-1
 424 0 l 1,11,-1
 325 0 l 1,12,-1
 325 577 l 1,13,-1
 243 577 l 2,14,15
 182 577 182 577 147 550 c 128,-1,16
 112 523 112 523 112 471 c 0,17,18
 112 430 112 430 140.5 401.5 c 128,-1,19
 169 373 169 373 216 365 c 1,20,-1
 179 286 l 1,21,22
 107 295 107 295 58.5 345.5 c 128,-1,23
 10 396 10 396 10 473 c 0,24,25
 10 561 10 561 68.5 610.5 c 128,-1,26
 127 660 127 660 229 660 c 2,27,-1
 485 660 l 1,28,-1
 617 278 l 1,29,-1
 664 121 l 1,30,-1
 666 121 l 1,31,-1
 713 278 l 1,32,-1
 844 660 l 1,33,-1
 1001 660 l 1,0,-1
EndSplineSet
Validated: 1
EndChar

StartChar: R.swsh.001
Encoding: 65546 -1 115
Width: 702
GlyphClass: 2
Flags: W
AnchorPoint: "Anchor-0" 364 0 basechar 0
LayerCount: 2
Back
Fore
SplineSet
622 25 m 128,-1,1
 666 -10 666 -10 702 -21 c 1,2,-1
 644 -89 l 1,3,4
 570 -57 570 -57 533.5 -25.5 c 128,-1,5
 497 6 497 6 463 55 c 2,6,-1
 317 264 l 1,7,-1
 204 264 l 1,8,-1
 204 0 l 1,9,-1
 98 0 l 1,10,-1
 98 660 l 1,11,-1
 367 660 l 2,12,13
 474 660 474 660 536 607.5 c 128,-1,14
 598 555 598 555 598 462 c 0,15,16
 598 384 598 384 552.5 333.5 c 128,-1,17
 507 283 507 283 427 269 c 1,18,-1
 550 98 l 2,19,0
 578 60 578 60 622 25 c 128,-1,1
204 353 m 1,20,-1
 358 353 l 2,21,22
 423 353 423 353 455 379.5 c 128,-1,23
 487 406 487 406 487 461 c 256,24,25
 487 516 487 516 455 542.5 c 128,-1,26
 423 569 423 569 358 569 c 2,27,-1
 204 569 l 1,28,-1
 204 353 l 1,20,-1
EndSplineSet
Validated: 1
EndChar

StartChar: Racute.swsh.001
Encoding: 65547 -1 116
Width: 702
GlyphClass: 2
Flags: W
AnchorPoint: "Anchor-0" 364 0 basechar 0
LayerCount: 2
Back
Fore
SplineSet
356 737 m 1,0,-1
 274 737 l 1,1,-1
 330 888 l 1,2,-1
 444 888 l 1,3,-1
 356 737 l 1,0,-1
622 25 m 128,-1,5
 666 -10 666 -10 702 -21 c 1,6,-1
 644 -89 l 1,7,8
 570 -57 570 -57 533.5 -25.5 c 128,-1,9
 497 6 497 6 463 55 c 2,10,-1
 317 264 l 1,11,-1
 204 264 l 1,12,-1
 204 0 l 1,13,-1
 98 0 l 1,14,-1
 98 660 l 1,15,-1
 367 660 l 2,16,17
 474 660 474 660 536 607.5 c 128,-1,18
 598 555 598 555 598 462 c 0,19,20
 598 384 598 384 552.5 333.5 c 128,-1,21
 507 283 507 283 427 269 c 1,22,-1
 550 98 l 2,23,4
 578 60 578 60 622 25 c 128,-1,5
204 353 m 1,24,-1
 358 353 l 2,25,26
 423 353 423 353 455 379.5 c 128,-1,27
 487 406 487 406 487 461 c 256,28,29
 487 516 487 516 455 542.5 c 128,-1,30
 423 569 423 569 358 569 c 2,31,-1
 204 569 l 1,32,-1
 204 353 l 1,24,-1
EndSplineSet
Validated: 1
EndChar

StartChar: Rcaron.swsh.001
Encoding: 65548 -1 117
Width: 702
GlyphClass: 2
Flags: W
AnchorPoint: "Anchor-0" 364 0 basechar 0
LayerCount: 2
Back
Fore
SplineSet
267 733 m 1,0,-1
 154 900 l 1,1,-1
 243 900 l 1,2,-1
 323 793 l 1,3,-1
 403 900 l 1,4,-1
 492 900 l 1,5,-1
 379 733 l 1,6,-1
 267 733 l 1,0,-1
622 25 m 128,-1,8
 666 -10 666 -10 702 -21 c 1,9,-1
 644 -89 l 1,10,11
 570 -57 570 -57 533.5 -25.5 c 128,-1,12
 497 6 497 6 463 55 c 2,13,-1
 317 264 l 1,14,-1
 204 264 l 1,15,-1
 204 0 l 1,16,-1
 98 0 l 1,17,-1
 98 660 l 1,18,-1
 367 660 l 2,19,20
 474 660 474 660 536 607.5 c 128,-1,21
 598 555 598 555 598 462 c 0,22,23
 598 384 598 384 552.5 333.5 c 128,-1,24
 507 283 507 283 427 269 c 1,25,-1
 550 98 l 2,26,7
 578 60 578 60 622 25 c 128,-1,8
204 353 m 1,27,-1
 358 353 l 2,28,29
 423 353 423 353 455 379.5 c 128,-1,30
 487 406 487 406 487 461 c 256,31,32
 487 516 487 516 455 542.5 c 128,-1,33
 423 569 423 569 358 569 c 2,34,-1
 204 569 l 1,35,-1
 204 353 l 1,27,-1
EndSplineSet
Validated: 1
EndChar

StartChar: Iacute_J.loclNLD
Encoding: 65550 -1 119
Width: 885
GlyphClass: 2
Flags: W
LayerCount: 2
Back
Fore
SplineSet
271 888 m 1,0,-1
 183 737 l 1,1,-1
 101 737 l 1,2,-1
 157 888 l 1,3,-1
 271 888 l 1,0,-1
871 888 m 1,4,-1
 783 737 l 1,5,-1
 701 737 l 1,6,-1
 757 888 l 1,7,-1
 871 888 l 1,4,-1
205 0 m 1,8,-1
 98 0 l 1,9,-1
 98 660 l 1,10,-1
 205 660 l 1,11,-1
 205 0 l 1,8,-1
796 234 m 2,12,13
 796 119 796 119 732.5 54.5 c 128,-1,14
 669 -10 669 -10 556 -10 c 0,15,16
 452 -10 452 -10 397 39.5 c 128,-1,17
 342 89 342 89 342 175 c 0,18,19
 342 206 342 206 347 231 c 1,20,-1
 449 250 l 1,21,22
 445 212 445 212 445 199 c 0,23,24
 445 139 445 139 472 111 c 128,-1,25
 499 83 499 83 556 83 c 0,26,27
 629 83 629 83 659 124.5 c 128,-1,28
 689 166 689 166 689 254 c 2,29,-1
 689 660 l 1,30,-1
 796 660 l 1,31,-1
 796 234 l 2,12,13
EndSplineSet
Validated: 1
Substitution2: "'ss05' Style Set 5 lookup 51 subtable" Iacute_J.loclNLD.ss05
Substitution2: "'salt' Stylistic Alternatives lookup 42 subtable" Iacute_J.loclNLD.ss05
Ligature2: "'locl' Localized Forms in Latin lookup 9 subtable" Iacute J
Substitution2: "'aalt' Access All Alternates lookup 0 subtable" Iacute_J.loclNLD.ss05
EndChar

StartChar: R.ss03
Encoding: 65551 -1 120
Width: 664
GlyphClass: 2
Flags: W
AnchorPoint: "Anchor-0" 364 0 basechar 0
LayerCount: 2
Back
Fore
SplineSet
98 660 m 1,0,-1
 367 660 l 2,1,2
 474 660 474 660 536 607.5 c 128,-1,3
 598 555 598 555 598 464 c 0,4,5
 598 398 598 398 563 355.5 c 128,-1,6
 528 313 528 313 462 296 c 1,7,-1
 462 294 l 1,8,9
 569 274 569 274 575 166 c 0,10,11
 581 89 581 89 588 56.5 c 128,-1,12
 595 24 595 24 608 3 c 1,13,-1
 608 0 l 1,14,-1
 494 0 l 1,15,16
 485 20 485 20 479.5 54 c 128,-1,17
 474 88 474 88 469 155 c 0,18,19
 465 210 465 210 431.5 237 c 128,-1,20
 398 264 398 264 328 264 c 2,21,-1
 204 264 l 1,22,-1
 204 0 l 1,23,-1
 98 0 l 1,24,-1
 98 660 l 1,0,-1
358 353 m 2,25,26
 423 353 423 353 455 379.5 c 128,-1,27
 487 406 487 406 487 461 c 256,28,29
 487 516 487 516 455 542.5 c 128,-1,30
 423 569 423 569 358 569 c 2,31,-1
 204 569 l 1,32,-1
 204 353 l 1,33,-1
 358 353 l 2,25,26
EndSplineSet
Validated: 1
EndChar

StartChar: Racute.ss03
Encoding: 65552 -1 121
Width: 664
GlyphClass: 2
Flags: W
AnchorPoint: "Anchor-0" 364 0 basechar 0
LayerCount: 2
Back
Fore
SplineSet
444 888 m 1,0,-1
 356 737 l 1,1,-1
 274 737 l 1,2,-1
 330 888 l 1,3,-1
 444 888 l 1,0,-1
98 660 m 1,4,-1
 367 660 l 2,5,6
 474 660 474 660 536 607.5 c 128,-1,7
 598 555 598 555 598 464 c 0,8,9
 598 398 598 398 563 355.5 c 128,-1,10
 528 313 528 313 462 296 c 1,11,-1
 462 294 l 1,12,13
 569 274 569 274 575 166 c 0,14,15
 581 89 581 89 588 56.5 c 128,-1,16
 595 24 595 24 608 3 c 1,17,-1
 608 0 l 1,18,-1
 494 0 l 1,19,20
 485 20 485 20 479.5 54 c 128,-1,21
 474 88 474 88 469 155 c 0,22,23
 465 210 465 210 431.5 237 c 128,-1,24
 398 264 398 264 328 264 c 2,25,-1
 204 264 l 1,26,-1
 204 0 l 1,27,-1
 98 0 l 1,28,-1
 98 660 l 1,4,-1
358 353 m 2,29,30
 423 353 423 353 455 379.5 c 128,-1,31
 487 406 487 406 487 461 c 256,32,33
 487 516 487 516 455 542.5 c 128,-1,34
 423 569 423 569 358 569 c 2,35,-1
 204 569 l 1,36,-1
 204 353 l 1,37,-1
 358 353 l 2,29,30
EndSplineSet
Validated: 1
EndChar

StartChar: Rcaron.ss03
Encoding: 65553 -1 122
Width: 664
GlyphClass: 2
Flags: W
AnchorPoint: "Anchor-0" 364 0 basechar 0
LayerCount: 2
Back
Fore
SplineSet
379 733 m 1,0,-1
 267 733 l 1,1,-1
 154 900 l 1,2,-1
 243 900 l 1,3,-1
 323 793 l 1,4,-1
 403 900 l 1,5,-1
 492 900 l 1,6,-1
 379 733 l 1,0,-1
98 660 m 1,7,-1
 367 660 l 2,8,9
 474 660 474 660 536 607.5 c 128,-1,10
 598 555 598 555 598 464 c 0,11,12
 598 398 598 398 563 355.5 c 128,-1,13
 528 313 528 313 462 296 c 1,14,-1
 462 294 l 1,15,16
 569 274 569 274 575 166 c 0,17,18
 581 89 581 89 588 56.5 c 128,-1,19
 595 24 595 24 608 3 c 1,20,-1
 608 0 l 1,21,-1
 494 0 l 1,22,23
 485 20 485 20 479.5 54 c 128,-1,24
 474 88 474 88 469 155 c 0,25,26
 465 210 465 210 431.5 237 c 128,-1,27
 398 264 398 264 328 264 c 2,28,-1
 204 264 l 1,29,-1
 204 0 l 1,30,-1
 98 0 l 1,31,-1
 98 660 l 1,7,-1
358 353 m 2,32,33
 423 353 423 353 455 379.5 c 128,-1,34
 487 406 487 406 487 461 c 256,35,36
 487 516 487 516 455 542.5 c 128,-1,37
 423 569 423 569 358 569 c 2,38,-1
 204 569 l 1,39,-1
 204 353 l 1,40,-1
 358 353 l 2,32,33
EndSplineSet
Validated: 1
EndChar

StartChar: G.ss04
Encoding: 65555 -1 124
Width: 724
GlyphClass: 2
Flags: W
AnchorPoint: "Anchor-0" 400 0 basechar 0
LayerCount: 2
Back
Fore
SplineSet
663 340 m 1,0,-1
 663 273 l 2,1,2
 663 140 663 140 587 65 c 128,-1,3
 511 -10 511 -10 373 -10 c 0,4,5
 278 -10 278 -10 207.5 31 c 128,-1,6
 137 72 137 72 99 148.5 c 128,-1,7
 61 225 61 225 61 330 c 0,8,9
 61 434 61 434 100 510.5 c 128,-1,10
 139 587 139 587 210 628.5 c 128,-1,11
 281 670 281 670 375 670 c 0,12,13
 477 670 477 670 542.5 632.5 c 128,-1,14
 608 595 608 595 647 514 c 1,15,-1
 548 467 l 1,16,17
 529 521 529 521 484.5 549 c 128,-1,18
 440 577 440 577 375 577 c 0,19,20
 283 577 283 577 228 511.5 c 128,-1,21
 173 446 173 446 173 330 c 0,22,23
 173 210 173 210 226.5 146.5 c 128,-1,24
 280 83 280 83 382 83 c 0,25,26
 445 83 445 83 486.5 107.5 c 128,-1,27
 528 132 528 132 547 169.5 c 128,-1,28
 566 207 566 207 566 248 c 2,29,-1
 566 255 l 1,30,-1
 364 255 l 1,31,-1
 364 340 l 1,32,-1
 663 340 l 1,0,-1
EndSplineSet
Validated: 1
EndChar

StartChar: IJ.ss05
Encoding: 65558 -1 127
Width: 642
GlyphClass: 2
Flags: W
LayerCount: 2
Back
Fore
SplineSet
553 234 m 2,0,1
 553 120 553 120 489.5 55 c 128,-1,2
 426 -10 426 -10 318 -10 c 0,3,4
 213 -10 213 -10 156 36 c 128,-1,5
 99 82 99 82 99 168 c 0,6,7
 99 179 99 179 101 201 c 1,8,-1
 206 201 l 1,9,10
 204 183 204 183 204 175 c 0,11,12
 204 129 204 129 234 106 c 128,-1,13
 264 83 264 83 319 83 c 0,14,15
 380 83 380 83 412.5 125 c 128,-1,16
 445 167 445 167 445 249 c 2,17,-1
 445 660 l 1,18,-1
 553 660 l 1,19,-1
 553 234 l 2,0,1
205 288 m 1,20,-1
 98 288 l 1,21,-1
 98 660 l 1,22,-1
 205 660 l 1,23,-1
 205 288 l 1,20,-1
EndSplineSet
Validated: 1
EndChar

StartChar: Iacute_J.loclNLD.ss05
Encoding: 65559 -1 128
Width: 633
GlyphClass: 2
Flags: W
LayerCount: 2
Back
Fore
SplineSet
262 888 m 1,0,-1
 175 737 l 1,1,-1
 92 737 l 1,2,-1
 148 888 l 1,3,-1
 262 888 l 1,0,-1
619 888 m 1,4,-1
 532 737 l 1,5,-1
 449 737 l 1,6,-1
 505 888 l 1,7,-1
 619 888 l 1,4,-1
544 234 m 2,8,9
 544 120 544 120 481 55 c 128,-1,10
 418 -10 418 -10 310 -10 c 0,11,12
 205 -10 205 -10 147.5 36 c 128,-1,13
 90 82 90 82 90 168 c 0,14,15
 90 179 90 179 92 201 c 1,16,-1
 198 201 l 1,17,18
 196 191 196 191 196 174 c 0,19,20
 196 129 196 129 226 106 c 128,-1,21
 256 83 256 83 311 83 c 0,22,23
 371 83 371 83 404 125.5 c 128,-1,24
 437 168 437 168 437 249 c 2,25,-1
 437 660 l 1,26,-1
 544 660 l 1,27,-1
 544 234 l 2,8,9
197 288 m 1,28,-1
 89 288 l 1,29,-1
 89 660 l 1,30,-1
 197 660 l 1,31,-1
 197 288 l 1,28,-1
EndSplineSet
Validated: 1
EndChar

StartChar: A.swsh
Encoding: 65560 -1 129
Width: 879
GlyphClass: 2
Flags: W
LayerCount: 2
Back
Fore
SplineSet
684 173 m 1,0,-1
 404 173 l 1,1,-1
 359 53 l 2,2,3
 330 -30 330 -30 279.5 -70 c 128,-1,4
 229 -110 229 -110 145 -110 c 0,5,6
 69 -110 69 -110 24 -78.5 c 128,-1,7
 -21 -47 -21 -47 -29 10 c 1,8,-1
 29 73 l 1,9,10
 40 17 40 17 66 -3 c 128,-1,11
 92 -23 92 -23 141 -23 c 0,12,13
 175 -23 175 -23 197 -11 c 128,-1,14
 219 1 219 1 236.5 29 c 128,-1,15
 254 57 254 57 274 110 c 2,16,-1
 451 577 l 1,17,-1
 320 577 l 2,18,19
 259 577 259 577 224 550 c 128,-1,20
 189 523 189 523 189 471 c 0,21,22
 189 430 189 430 217.5 401.5 c 128,-1,23
 246 373 246 373 293 365 c 1,24,-1
 257 286 l 1,25,26
 184 295 184 295 135.5 345.5 c 128,-1,27
 87 396 87 396 87 473 c 0,28,29
 87 561 87 561 145.5 610.5 c 128,-1,30
 204 660 204 660 307 660 c 2,31,-1
 611 660 l 1,32,-1
 859 0 l 1,33,-1
 747 0 l 1,34,-1
 684 173 l 1,0,-1
653 260 m 1,35,-1
 576 472 l 1,36,-1
 546 567 l 1,37,-1
 544 567 l 1,38,-1
 515 474 l 1,39,-1
 436 260 l 1,40,-1
 653 260 l 1,35,-1
EndSplineSet
Validated: 1
EndChar

StartChar: Aacute.swsh
Encoding: 65561 -1 130
Width: 879
GlyphClass: 2
Flags: W
LayerCount: 2
Back
Fore
SplineSet
578 737 m 1,0,-1
 496 737 l 1,1,-1
 552 888 l 1,2,-1
 666 888 l 1,3,-1
 578 737 l 1,0,-1
684 173 m 1,4,-1
 404 173 l 1,5,-1
 359 53 l 2,6,7
 330 -30 330 -30 279.5 -70 c 128,-1,8
 229 -110 229 -110 145 -110 c 0,9,10
 69 -110 69 -110 24 -78.5 c 128,-1,11
 -21 -47 -21 -47 -29 10 c 1,12,-1
 29 73 l 1,13,14
 40 17 40 17 66 -3 c 128,-1,15
 92 -23 92 -23 141 -23 c 0,16,17
 175 -23 175 -23 197 -11 c 128,-1,18
 219 1 219 1 236.5 29 c 128,-1,19
 254 57 254 57 274 110 c 2,20,-1
 451 577 l 1,21,-1
 320 577 l 2,22,23
 259 577 259 577 224 550 c 128,-1,24
 189 523 189 523 189 471 c 0,25,26
 189 430 189 430 217.5 401.5 c 128,-1,27
 246 373 246 373 293 365 c 1,28,-1
 257 286 l 1,29,30
 184 295 184 295 135.5 345.5 c 128,-1,31
 87 396 87 396 87 473 c 0,32,33
 87 561 87 561 145.5 610.5 c 128,-1,34
 204 660 204 660 307 660 c 2,35,-1
 611 660 l 1,36,-1
 859 0 l 1,37,-1
 747 0 l 1,38,-1
 684 173 l 1,4,-1
653 260 m 1,39,-1
 576 472 l 1,40,-1
 546 567 l 1,41,-1
 544 567 l 1,42,-1
 515 474 l 1,43,-1
 436 260 l 1,44,-1
 653 260 l 1,39,-1
EndSplineSet
Validated: 1
EndChar

StartChar: Acircumflex.swsh
Encoding: 65563 -1 132
Width: 879
GlyphClass: 2
Flags: W
LayerCount: 2
Back
Fore
SplineSet
466 731 m 1,0,-1
 377 731 l 1,1,-1
 490 898 l 1,2,-1
 602 898 l 1,3,-1
 715 731 l 1,4,-1
 626 731 l 1,5,-1
 546 838 l 1,6,-1
 466 731 l 1,0,-1
684 173 m 1,7,-1
 404 173 l 1,8,-1
 359 53 l 2,9,10
 330 -30 330 -30 279.5 -70 c 128,-1,11
 229 -110 229 -110 145 -110 c 0,12,13
 69 -110 69 -110 24 -78.5 c 128,-1,14
 -21 -47 -21 -47 -29 10 c 1,15,-1
 29 73 l 1,16,17
 40 17 40 17 66 -3 c 128,-1,18
 92 -23 92 -23 141 -23 c 0,19,20
 175 -23 175 -23 197 -11 c 128,-1,21
 219 1 219 1 236.5 29 c 128,-1,22
 254 57 254 57 274 110 c 2,23,-1
 451 577 l 1,24,-1
 320 577 l 2,25,26
 259 577 259 577 224 550 c 128,-1,27
 189 523 189 523 189 471 c 0,28,29
 189 430 189 430 217.5 401.5 c 128,-1,30
 246 373 246 373 293 365 c 1,31,-1
 257 286 l 1,32,33
 184 295 184 295 135.5 345.5 c 128,-1,34
 87 396 87 396 87 473 c 0,35,36
 87 561 87 561 145.5 610.5 c 128,-1,37
 204 660 204 660 307 660 c 2,38,-1
 611 660 l 1,39,-1
 859 0 l 1,40,-1
 747 0 l 1,41,-1
 684 173 l 1,7,-1
653 260 m 1,42,-1
 576 472 l 1,43,-1
 546 567 l 1,44,-1
 544 567 l 1,45,-1
 515 474 l 1,46,-1
 436 260 l 1,47,-1
 653 260 l 1,42,-1
EndSplineSet
Validated: 1
EndChar

StartChar: Agrave.swsh
Encoding: 65565 -1 134
Width: 879
GlyphClass: 2
Flags: W
LayerCount: 2
Back
Fore
SplineSet
503 737 m 1,0,-1
 415 888 l 1,1,-1
 529 888 l 1,2,-1
 585 737 l 1,3,-1
 503 737 l 1,0,-1
684 173 m 1,4,-1
 404 173 l 1,5,-1
 359 53 l 2,6,7
 330 -30 330 -30 279.5 -70 c 128,-1,8
 229 -110 229 -110 145 -110 c 0,9,10
 69 -110 69 -110 24 -78.5 c 128,-1,11
 -21 -47 -21 -47 -29 10 c 1,12,-1
 29 73 l 1,13,14
 40 17 40 17 66 -3 c 128,-1,15
 92 -23 92 -23 141 -23 c 0,16,17
 175 -23 175 -23 197 -11 c 128,-1,18
 219 1 219 1 236.5 29 c 128,-1,19
 254 57 254 57 274 110 c 2,20,-1
 451 577 l 1,21,-1
 320 577 l 2,22,23
 259 577 259 577 224 550 c 128,-1,24
 189 523 189 523 189 471 c 0,25,26
 189 430 189 430 217.5 401.5 c 128,-1,27
 246 373 246 373 293 365 c 1,28,-1
 257 286 l 1,29,30
 184 295 184 295 135.5 345.5 c 128,-1,31
 87 396 87 396 87 473 c 0,32,33
 87 561 87 561 145.5 610.5 c 128,-1,34
 204 660 204 660 307 660 c 2,35,-1
 611 660 l 1,36,-1
 859 0 l 1,37,-1
 747 0 l 1,38,-1
 684 173 l 1,4,-1
653 260 m 1,39,-1
 576 472 l 1,40,-1
 546 567 l 1,41,-1
 544 567 l 1,42,-1
 515 474 l 1,43,-1
 436 260 l 1,44,-1
 653 260 l 1,39,-1
EndSplineSet
Validated: 1
EndChar

StartChar: Aogonek.swsh
Encoding: 65567 -1 136
Width: 879
GlyphClass: 2
Flags: W
LayerCount: 2
Back
Fore
SplineSet
870 -195 m 1,0,1
 839 -215 839 -215 781 -215 c 0,2,3
 724 -215 724 -215 690 -187 c 128,-1,4
 656 -159 656 -159 656 -108 c 0,5,6
 656 -30 656 -30 743 9 c 1,7,-1
 684 173 l 1,8,-1
 404 173 l 1,9,-1
 359 53 l 2,10,11
 330 -30 330 -30 279.5 -70 c 128,-1,12
 229 -110 229 -110 145 -110 c 0,13,14
 69 -110 69 -110 24 -78.5 c 128,-1,15
 -21 -47 -21 -47 -29 10 c 1,16,-1
 29 73 l 1,17,18
 40 17 40 17 66 -3 c 128,-1,19
 92 -23 92 -23 141 -23 c 0,20,21
 175 -23 175 -23 197 -11 c 128,-1,22
 219 1 219 1 236.5 29 c 128,-1,23
 254 57 254 57 274 110 c 2,24,-1
 451 577 l 1,25,-1
 320 577 l 2,26,27
 259 577 259 577 224 550 c 128,-1,28
 189 523 189 523 189 471 c 0,29,30
 189 430 189 430 217.5 401.5 c 128,-1,31
 246 373 246 373 293 365 c 1,32,-1
 257 286 l 1,33,34
 184 295 184 295 135.5 345.5 c 128,-1,35
 87 396 87 396 87 473 c 0,36,37
 87 561 87 561 145.5 610.5 c 128,-1,38
 204 660 204 660 307 660 c 2,39,-1
 611 660 l 1,40,-1
 859 0 l 1,41,42
 790 -20 790 -20 763.5 -43.5 c 128,-1,43
 737 -67 737 -67 737 -97 c 0,44,45
 737 -120 737 -120 753.5 -133 c 128,-1,46
 770 -146 770 -146 799 -146 c 0,47,48
 834 -146 834 -146 852 -134 c 1,49,-1
 870 -195 l 1,0,1
653 260 m 1,50,-1
 576 472 l 1,51,-1
 546 567 l 1,52,-1
 544 567 l 1,53,-1
 515 474 l 1,54,-1
 436 260 l 1,55,-1
 653 260 l 1,50,-1
EndSplineSet
Validated: 1
EndChar

StartChar: E.swsh
Encoding: 65569 -1 138
Width: 868
GlyphClass: 2
Flags: W
AnchorPoint: "Anchor-0" 569 0 basechar 0
LayerCount: 2
Back
Fore
SplineSet
822 92 m 1,0,-1
 822 0 l 1,1,-1
 330 0 l 1,2,-1
 330 577 l 1,3,-1
 243 577 l 2,4,5
 182 577 182 577 147 550 c 128,-1,6
 112 523 112 523 112 471 c 0,7,8
 112 430 112 430 140.5 401.5 c 128,-1,9
 169 373 169 373 216 365 c 1,10,-1
 179 286 l 1,11,12
 107 295 107 295 58.5 345.5 c 128,-1,13
 10 396 10 396 10 473 c 0,14,15
 10 561 10 561 68.5 610.5 c 128,-1,16
 127 660 127 660 229 660 c 2,17,-1
 808 660 l 1,18,-1
 808 568 l 1,19,-1
 437 568 l 1,20,-1
 437 378 l 1,21,-1
 727 378 l 1,22,-1
 727 288 l 1,23,-1
 437 288 l 1,24,-1
 437 92 l 1,25,-1
 822 92 l 1,0,-1
EndSplineSet
Validated: 1
EndChar

StartChar: Eacute.swsh
Encoding: 65570 -1 139
Width: 868
GlyphClass: 2
Flags: W
AnchorPoint: "Anchor-0" 569 0 basechar 0
LayerCount: 2
Back
Fore
SplineSet
598 737 m 1,0,-1
 516 737 l 1,1,-1
 572 888 l 1,2,-1
 686 888 l 1,3,-1
 598 737 l 1,0,-1
822 92 m 1,4,-1
 822 0 l 1,5,-1
 330 0 l 1,6,-1
 330 577 l 1,7,-1
 243 577 l 2,8,9
 182 577 182 577 147 550 c 128,-1,10
 112 523 112 523 112 471 c 0,11,12
 112 430 112 430 140.5 401.5 c 128,-1,13
 169 373 169 373 216 365 c 1,14,-1
 179 286 l 1,15,16
 107 295 107 295 58.5 345.5 c 128,-1,17
 10 396 10 396 10 473 c 0,18,19
 10 561 10 561 68.5 610.5 c 128,-1,20
 127 660 127 660 229 660 c 2,21,-1
 808 660 l 1,22,-1
 808 568 l 1,23,-1
 437 568 l 1,24,-1
 437 378 l 1,25,-1
 727 378 l 1,26,-1
 727 288 l 1,27,-1
 437 288 l 1,28,-1
 437 92 l 1,29,-1
 822 92 l 1,4,-1
EndSplineSet
Validated: 1
EndChar

StartChar: Ecaron.swsh
Encoding: 65571 -1 140
Width: 868
GlyphClass: 2
Flags: W
AnchorPoint: "Anchor-0" 569 0 basechar 0
LayerCount: 2
Back
Fore
SplineSet
509 733 m 1,0,-1
 396 900 l 1,1,-1
 485 900 l 1,2,-1
 565 793 l 1,3,-1
 645 900 l 1,4,-1
 734 900 l 1,5,-1
 621 733 l 1,6,-1
 509 733 l 1,0,-1
822 92 m 1,7,-1
 822 0 l 1,8,-1
 330 0 l 1,9,-1
 330 577 l 1,10,-1
 243 577 l 2,11,12
 182 577 182 577 147 550 c 128,-1,13
 112 523 112 523 112 471 c 0,14,15
 112 430 112 430 140.5 401.5 c 128,-1,16
 169 373 169 373 216 365 c 1,17,-1
 179 286 l 1,18,19
 107 295 107 295 58.5 345.5 c 128,-1,20
 10 396 10 396 10 473 c 0,21,22
 10 561 10 561 68.5 610.5 c 128,-1,23
 127 660 127 660 229 660 c 2,24,-1
 808 660 l 1,25,-1
 808 568 l 1,26,-1
 437 568 l 1,27,-1
 437 378 l 1,28,-1
 727 378 l 1,29,-1
 727 288 l 1,30,-1
 437 288 l 1,31,-1
 437 92 l 1,32,-1
 822 92 l 1,7,-1
EndSplineSet
Validated: 1
EndChar

StartChar: Ecircumflex.swsh
Encoding: 65572 -1 141
Width: 868
GlyphClass: 2
Flags: W
AnchorPoint: "Anchor-0" 569 0 basechar 0
LayerCount: 2
Back
Fore
SplineSet
486 731 m 1,0,-1
 397 731 l 1,1,-1
 510 898 l 1,2,-1
 622 898 l 1,3,-1
 735 731 l 1,4,-1
 646 731 l 1,5,-1
 566 838 l 1,6,-1
 486 731 l 1,0,-1
822 92 m 1,7,-1
 822 0 l 1,8,-1
 330 0 l 1,9,-1
 330 577 l 1,10,-1
 243 577 l 2,11,12
 182 577 182 577 147 550 c 128,-1,13
 112 523 112 523 112 471 c 0,14,15
 112 430 112 430 140.5 401.5 c 128,-1,16
 169 373 169 373 216 365 c 1,17,-1
 179 286 l 1,18,19
 107 295 107 295 58.5 345.5 c 128,-1,20
 10 396 10 396 10 473 c 0,21,22
 10 561 10 561 68.5 610.5 c 128,-1,23
 127 660 127 660 229 660 c 2,24,-1
 808 660 l 1,25,-1
 808 568 l 1,26,-1
 437 568 l 1,27,-1
 437 378 l 1,28,-1
 727 378 l 1,29,-1
 727 288 l 1,30,-1
 437 288 l 1,31,-1
 437 92 l 1,32,-1
 822 92 l 1,7,-1
EndSplineSet
Validated: 1
EndChar

StartChar: Egrave.swsh
Encoding: 65575 -1 144
Width: 868
GlyphClass: 2
Flags: W
AnchorPoint: "Anchor-0" 569 0 basechar 0
LayerCount: 2
Back
Fore
SplineSet
523 737 m 1,0,-1
 435 888 l 1,1,-1
 549 888 l 1,2,-1
 605 737 l 1,3,-1
 523 737 l 1,0,-1
822 92 m 1,4,-1
 822 0 l 1,5,-1
 330 0 l 1,6,-1
 330 577 l 1,7,-1
 243 577 l 2,8,9
 182 577 182 577 147 550 c 128,-1,10
 112 523 112 523 112 471 c 0,11,12
 112 430 112 430 140.5 401.5 c 128,-1,13
 169 373 169 373 216 365 c 1,14,-1
 179 286 l 1,15,16
 107 295 107 295 58.5 345.5 c 128,-1,17
 10 396 10 396 10 473 c 0,18,19
 10 561 10 561 68.5 610.5 c 128,-1,20
 127 660 127 660 229 660 c 2,21,-1
 808 660 l 1,22,-1
 808 568 l 1,23,-1
 437 568 l 1,24,-1
 437 378 l 1,25,-1
 727 378 l 1,26,-1
 727 288 l 1,27,-1
 437 288 l 1,28,-1
 437 92 l 1,29,-1
 822 92 l 1,4,-1
EndSplineSet
Validated: 1
EndChar

StartChar: Eogonek.swsh
Encoding: 65577 -1 146
Width: 868
GlyphClass: 2
Flags: W
AnchorPoint: "Anchor-0" 569 0 basechar 0
LayerCount: 2
Back
Fore
SplineSet
833 -195 m 1,0,1
 803 -215 803 -215 744 -215 c 0,2,3
 687 -215 687 -215 653 -188 c 128,-1,4
 619 -161 619 -161 619 -113 c 0,5,6
 619 -74 619 -74 640.5 -46.5 c 128,-1,7
 662 -19 662 -19 705 0 c 1,8,-1
 330 0 l 1,9,-1
 330 577 l 1,10,-1
 243 577 l 2,11,12
 182 577 182 577 147 550 c 128,-1,13
 112 523 112 523 112 471 c 0,14,15
 112 430 112 430 140.5 401.5 c 128,-1,16
 169 373 169 373 216 365 c 1,17,-1
 179 286 l 1,18,19
 107 295 107 295 58.5 345.5 c 128,-1,20
 10 396 10 396 10 473 c 0,21,22
 10 561 10 561 68.5 610.5 c 128,-1,23
 127 660 127 660 229 660 c 2,24,-1
 808 660 l 1,25,-1
 808 568 l 1,26,-1
 437 568 l 1,27,-1
 437 378 l 1,28,-1
 727 378 l 1,29,-1
 727 288 l 1,30,-1
 437 288 l 1,31,-1
 437 92 l 1,32,-1
 822 92 l 1,33,-1
 822 1 l 1,34,-1
 823 0 l 1,35,36
 753 -20 753 -20 726.5 -43.5 c 128,-1,37
 700 -67 700 -67 700 -97 c 0,38,39
 700 -120 700 -120 716.5 -133 c 128,-1,40
 733 -146 733 -146 762 -146 c 0,41,42
 797 -146 797 -146 815 -134 c 1,43,-1
 833 -195 l 1,0,1
EndSplineSet
Validated: 1
EndChar

StartChar: F.swsh
Encoding: 65578 -1 147
Width: 838
GlyphClass: 2
Flags: W
LayerCount: 2
Back
Fore
SplineSet
433 568 m 1,0,-1
 433 377 l 1,1,-1
 723 377 l 1,2,-1
 723 284 l 1,3,-1
 433 284 l 1,4,-1
 433 0 l 1,5,-1
 325 0 l 1,6,-1
 325 577 l 1,7,-1
 243 577 l 2,8,9
 182 577 182 577 147 550 c 128,-1,10
 112 523 112 523 112 471 c 0,11,12
 112 430 112 430 140.5 401.5 c 128,-1,13
 169 373 169 373 216 365 c 1,14,-1
 179 286 l 1,15,16
 107 295 107 295 58.5 345.5 c 128,-1,17
 10 396 10 396 10 473 c 0,18,19
 10 561 10 561 68.5 610.5 c 128,-1,20
 127 660 127 660 229 660 c 2,21,-1
 803 660 l 1,22,-1
 803 568 l 1,23,-1
 433 568 l 1,0,-1
EndSplineSet
Validated: 1
EndChar

StartChar: L.swsh
Encoding: 65579 -1 148
Width: 655
GlyphClass: 2
Flags: W
AnchorPoint: "Anchor-0" 375 0 basechar 0
LayerCount: 2
Back
Fore
SplineSet
599.5 313.5 m 128,-1,1
 645 265 645 265 645 187 c 0,2,3
 645 95 645 95 587.5 47.5 c 128,-1,4
 530 0 530 0 426 0 c 2,5,-1
 98 0 l 1,6,-1
 98 660 l 1,7,-1
 205 660 l 1,8,-1
 205 92 l 1,9,-1
 412 92 l 2,10,11
 477 92 477 92 511 114.5 c 128,-1,12
 545 137 545 137 545 189 c 0,13,14
 545 236 545 236 517.5 260.5 c 128,-1,15
 490 285 490 285 441 287 c 1,16,-1
 478 364 l 1,17,0
 554 362 554 362 599.5 313.5 c 128,-1,1
EndSplineSet
Validated: 1
EndChar

StartChar: Lacute.swsh
Encoding: 65580 -1 149
Width: 655
GlyphClass: 2
Flags: W
AnchorPoint: "Anchor-0" 375 0 basechar 0
LayerCount: 2
Back
Fore
SplineSet
183 737 m 1,0,-1
 101 737 l 1,1,-1
 157 888 l 1,2,-1
 271 888 l 1,3,-1
 183 737 l 1,0,-1
599.5 313.5 m 128,-1,5
 645 265 645 265 645 187 c 0,6,7
 645 95 645 95 587.5 47.5 c 128,-1,8
 530 0 530 0 426 0 c 2,9,-1
 98 0 l 1,10,-1
 98 660 l 1,11,-1
 205 660 l 1,12,-1
 205 92 l 1,13,-1
 412 92 l 2,14,15
 477 92 477 92 511 114.5 c 128,-1,16
 545 137 545 137 545 189 c 0,17,18
 545 236 545 236 517.5 260.5 c 128,-1,19
 490 285 490 285 441 287 c 1,20,-1
 478 364 l 1,21,4
 554 362 554 362 599.5 313.5 c 128,-1,5
EndSplineSet
Validated: 1
EndChar

StartChar: Lcaron.swsh
Encoding: 65581 -1 150
Width: 655
GlyphClass: 2
Flags: W
AnchorPoint: "Anchor-0" 375 0 basechar 0
LayerCount: 2
Back
Fore
SplineSet
206 733 m 1,0,-1
 94 733 l 1,1,-1
 -19 900 l 1,2,-1
 70 900 l 1,3,-1
 150 793 l 1,4,-1
 230 900 l 1,5,-1
 319 900 l 1,6,-1
 206 733 l 1,0,-1
599.5 313.5 m 128,-1,8
 645 265 645 265 645 187 c 0,9,10
 645 95 645 95 587.5 47.5 c 128,-1,11
 530 0 530 0 426 0 c 2,12,-1
 98 0 l 1,13,-1
 98 660 l 1,14,-1
 205 660 l 1,15,-1
 205 92 l 1,16,-1
 412 92 l 2,17,18
 477 92 477 92 511 114.5 c 128,-1,19
 545 137 545 137 545 189 c 0,20,21
 545 236 545 236 517.5 260.5 c 128,-1,22
 490 285 490 285 441 287 c 1,23,-1
 478 364 l 1,24,7
 554 362 554 362 599.5 313.5 c 128,-1,8
EndSplineSet
Validated: 1
EndChar

StartChar: Lslash.swsh
Encoding: 65583 -1 152
Width: 689
GlyphClass: 2
Flags: W
AnchorPoint: "Anchor-0" 408 0 basechar 0
LayerCount: 2
Back
Fore
SplineSet
633 313.5 m 128,-1,1
 679 265 679 265 679 187 c 0,2,3
 679 95 679 95 621.5 47.5 c 128,-1,4
 564 0 564 0 459 0 c 2,5,-1
 131 0 l 1,6,-1
 131 243 l 1,7,-1
 25 187 l 1,8,-1
 25 283 l 1,9,-1
 131 339 l 1,10,-1
 131 660 l 1,11,-1
 239 660 l 1,12,-1
 239 396 l 1,13,-1
 414 489 l 1,14,-1
 414 393 l 1,15,-1
 239 301 l 1,16,-1
 239 92 l 1,17,-1
 445 92 l 2,18,19
 510 92 510 92 544 114.5 c 128,-1,20
 578 137 578 137 578 189 c 0,21,22
 578 236 578 236 550.5 260.5 c 128,-1,23
 523 285 523 285 474 287 c 1,24,-1
 511 364 l 1,25,0
 587 362 587 362 633 313.5 c 128,-1,1
EndSplineSet
Validated: 1
EndChar

StartChar: M.swsh
Encoding: 65584 -1 153
Width: 1099
GlyphClass: 2
Flags: W
LayerCount: 2
Back
Fore
SplineSet
1001 660 m 1,0,-1
 1001 0 l 1,1,-1
 902 0 l 1,2,-1
 902 382 l 1,3,-1
 910 564 l 1,4,-1
 909 564 l 1,5,-1
 708 0 l 1,6,-1
 618 0 l 1,7,-1
 418 564 l 1,8,-1
 416 564 l 1,9,-1
 424 382 l 1,10,-1
 424 79 l 2,11,12
 424 -5 424 -5 370.5 -57.5 c 128,-1,13
 317 -110 317 -110 221 -110 c 0,14,15
 71 -110 71 -110 42 12 c 1,16,-1
 102 74 l 1,17,18
 113 22 113 22 139 -1 c 128,-1,19
 165 -24 165 -24 215 -24 c 0,20,21
 267 -24 267 -24 296 9 c 128,-1,22
 325 42 325 42 325 96 c 2,23,-1
 325 577 l 1,24,-1
 243 577 l 2,25,26
 182 577 182 577 147 550 c 128,-1,27
 112 523 112 523 112 471 c 0,28,29
 112 430 112 430 140.5 401.5 c 128,-1,30
 169 373 169 373 216 365 c 1,31,-1
 179 286 l 1,32,33
 107 295 107 295 58.5 345.5 c 128,-1,34
 10 396 10 396 10 473 c 0,35,36
 10 561 10 561 68.5 610.5 c 128,-1,37
 127 660 127 660 229 660 c 2,38,-1
 485 660 l 1,39,-1
 617 278 l 1,40,-1
 664 121 l 1,41,-1
 666 121 l 1,42,-1
 713 278 l 1,43,-1
 844 660 l 1,44,-1
 1001 660 l 1,0,-1
EndSplineSet
Validated: 1
Substitution2: "'salt' Stylistic Alternatives lookup 42 subtable" M.swsh.001
Substitution2: "'aalt' Access All Alternates lookup 0 subtable" M.swsh.001
EndChar

StartChar: N.swsh
Encoding: 65585 -1 154
Width: 885
GlyphClass: 2
Flags: W
AnchorPoint: "Anchor-0" 393 0 basechar 0
LayerCount: 2
Back
Fore
SplineSet
864 700.5 m 128,-1,1
 908 669 908 669 923 612 c 1,2,-1
 862 551 l 1,3,4
 851 602 851 602 825.5 624 c 128,-1,5
 800 646 800 646 750 646 c 0,6,7
 698 646 698 646 668.5 612 c 128,-1,8
 639 578 639 578 639 521 c 2,9,-1
 639 0 l 1,10,-1
 512 0 l 1,11,-1
 257 416 l 1,12,-1
 193 538 l 1,13,-1
 192 538 l 1,14,-1
 196 426 l 1,15,-1
 196 0 l 1,16,-1
 98 0 l 1,17,-1
 98 660 l 1,18,-1
 224 660 l 1,19,-1
 478 245 l 1,20,-1
 543 122 l 1,21,-1
 544 122 l 1,22,-1
 540 234 l 1,23,-1
 540 543 l 2,24,25
 540 627 540 627 594 679.5 c 128,-1,26
 648 732 648 732 744 732 c 0,27,0
 820 732 820 732 864 700.5 c 128,-1,1
EndSplineSet
Validated: 1
EndChar

StartChar: Nacute.swsh
Encoding: 65586 -1 155
Width: 885
GlyphClass: 2
Flags: W
AnchorPoint: "Anchor-0" 393 0 basechar 0
LayerCount: 2
Back
Fore
SplineSet
403 737 m 1,0,-1
 321 737 l 1,1,-1
 377 888 l 1,2,-1
 491 888 l 1,3,-1
 403 737 l 1,0,-1
864 700.5 m 128,-1,5
 908 669 908 669 923 612 c 1,6,-1
 862 551 l 1,7,8
 851 602 851 602 825.5 624 c 128,-1,9
 800 646 800 646 750 646 c 0,10,11
 698 646 698 646 668.5 612 c 128,-1,12
 639 578 639 578 639 521 c 2,13,-1
 639 0 l 1,14,-1
 512 0 l 1,15,-1
 257 416 l 1,16,-1
 193 538 l 1,17,-1
 192 538 l 1,18,-1
 196 426 l 1,19,-1
 196 0 l 1,20,-1
 98 0 l 1,21,-1
 98 660 l 1,22,-1
 224 660 l 1,23,-1
 478 245 l 1,24,-1
 543 122 l 1,25,-1
 544 122 l 1,26,-1
 540 234 l 1,27,-1
 540 543 l 2,28,29
 540 627 540 627 594 679.5 c 128,-1,30
 648 732 648 732 744 732 c 0,31,4
 820 732 820 732 864 700.5 c 128,-1,5
EndSplineSet
Validated: 1
EndChar

StartChar: Ncaron.swsh
Encoding: 65587 -1 156
Width: 885
GlyphClass: 2
Flags: W
AnchorPoint: "Anchor-0" 393 0 basechar 0
LayerCount: 2
Back
Fore
SplineSet
314 733 m 1,0,-1
 201 900 l 1,1,-1
 290 900 l 1,2,-1
 370 793 l 1,3,-1
 450 900 l 1,4,-1
 539 900 l 1,5,-1
 426 733 l 1,6,-1
 314 733 l 1,0,-1
864 700.5 m 128,-1,8
 908 669 908 669 923 612 c 1,9,-1
 862 551 l 1,10,11
 851 602 851 602 825.5 624 c 128,-1,12
 800 646 800 646 750 646 c 0,13,14
 698 646 698 646 668.5 612 c 128,-1,15
 639 578 639 578 639 521 c 2,16,-1
 639 0 l 1,17,-1
 512 0 l 1,18,-1
 257 416 l 1,19,-1
 193 538 l 1,20,-1
 192 538 l 1,21,-1
 196 426 l 1,22,-1
 196 0 l 1,23,-1
 98 0 l 1,24,-1
 98 660 l 1,25,-1
 224 660 l 1,26,-1
 478 245 l 1,27,-1
 543 122 l 1,28,-1
 544 122 l 1,29,-1
 540 234 l 1,30,-1
 540 543 l 2,31,32
 540 627 540 627 594 679.5 c 128,-1,33
 648 732 648 732 744 732 c 0,34,7
 820 732 820 732 864 700.5 c 128,-1,8
EndSplineSet
Validated: 1
EndChar

StartChar: R.swsh
Encoding: 65590 -1 159
Width: 900
GlyphClass: 2
Flags: W
AnchorPoint: "Anchor-0" 592 0 basechar 0
LayerCount: 2
Back
Fore
SplineSet
574 264 m 1,0,-1
 432 264 l 1,1,-1
 432 81 l 2,2,3
 432 -4 432 -4 376.5 -57 c 128,-1,4
 321 -110 321 -110 223 -110 c 0,5,6
 146 -110 146 -110 101 -78 c 128,-1,7
 56 -46 56 -46 42 14 c 1,8,-1
 104 74 l 1,9,10
 115 22 115 22 141 -1 c 128,-1,11
 167 -24 167 -24 217 -24 c 256,12,13
 267 -24 267 -24 296 9.5 c 128,-1,14
 325 43 325 43 325 98 c 2,15,-1
 325 577 l 1,16,-1
 243 577 l 2,17,18
 182 577 182 577 147 550 c 128,-1,19
 112 523 112 523 112 471 c 0,20,21
 112 430 112 430 140.5 401.5 c 128,-1,22
 169 373 169 373 216 365 c 1,23,-1
 179 286 l 1,24,25
 107 295 107 295 58.5 345.5 c 128,-1,26
 10 396 10 396 10 473 c 0,27,28
 10 561 10 561 68.5 610.5 c 128,-1,29
 127 660 127 660 229 660 c 2,30,-1
 595 660 l 2,31,32
 701 660 701 660 763.5 607 c 128,-1,33
 826 554 826 554 826 462 c 0,34,35
 826 392 826 392 789 344 c 128,-1,36
 752 296 752 296 685 276 c 1,37,-1
 865 0 l 1,38,-1
 742 0 l 1,39,-1
 574 264 l 1,0,-1
432 353 m 1,40,-1
 585 353 l 2,41,42
 651 353 651 353 683 379.5 c 128,-1,43
 715 406 715 406 715 461 c 256,44,45
 715 516 715 516 683 542.5 c 128,-1,46
 651 569 651 569 585 569 c 2,47,-1
 432 569 l 1,48,-1
 432 353 l 1,40,-1
EndSplineSet
Validated: 1
EndChar

StartChar: Racute.swsh
Encoding: 65591 -1 160
Width: 900
GlyphClass: 2
Flags: W
AnchorPoint: "Anchor-0" 592 0 basechar 0
LayerCount: 2
Back
Fore
SplineSet
583 737 m 1,0,-1
 501 737 l 1,1,-1
 557 888 l 1,2,-1
 671 888 l 1,3,-1
 583 737 l 1,0,-1
574 264 m 1,4,-1
 432 264 l 1,5,-1
 432 81 l 2,6,7
 432 -4 432 -4 376.5 -57 c 128,-1,8
 321 -110 321 -110 223 -110 c 0,9,10
 146 -110 146 -110 101 -78 c 128,-1,11
 56 -46 56 -46 42 14 c 1,12,-1
 104 74 l 1,13,14
 115 22 115 22 141 -1 c 128,-1,15
 167 -24 167 -24 217 -24 c 256,16,17
 267 -24 267 -24 296 9.5 c 128,-1,18
 325 43 325 43 325 98 c 2,19,-1
 325 577 l 1,20,-1
 243 577 l 2,21,22
 182 577 182 577 147 550 c 128,-1,23
 112 523 112 523 112 471 c 0,24,25
 112 430 112 430 140.5 401.5 c 128,-1,26
 169 373 169 373 216 365 c 1,27,-1
 179 286 l 1,28,29
 107 295 107 295 58.5 345.5 c 128,-1,30
 10 396 10 396 10 473 c 0,31,32
 10 561 10 561 68.5 610.5 c 128,-1,33
 127 660 127 660 229 660 c 2,34,-1
 595 660 l 2,35,36
 701 660 701 660 763.5 607 c 128,-1,37
 826 554 826 554 826 462 c 0,38,39
 826 392 826 392 789 344 c 128,-1,40
 752 296 752 296 685 276 c 1,41,-1
 865 0 l 1,42,-1
 742 0 l 1,43,-1
 574 264 l 1,4,-1
432 353 m 1,44,-1
 585 353 l 2,45,46
 651 353 651 353 683 379.5 c 128,-1,47
 715 406 715 406 715 461 c 256,48,49
 715 516 715 516 683 542.5 c 128,-1,50
 651 569 651 569 585 569 c 2,51,-1
 432 569 l 1,52,-1
 432 353 l 1,44,-1
EndSplineSet
Validated: 1
EndChar

StartChar: Rcaron.swsh
Encoding: 65592 -1 161
Width: 900
GlyphClass: 2
Flags: W
AnchorPoint: "Anchor-0" 592 0 basechar 0
LayerCount: 2
Back
Fore
SplineSet
495 733 m 1,0,-1
 382 900 l 1,1,-1
 471 900 l 1,2,-1
 551 793 l 1,3,-1
 631 900 l 1,4,-1
 720 900 l 1,5,-1
 607 733 l 1,6,-1
 495 733 l 1,0,-1
574 264 m 1,7,-1
 432 264 l 1,8,-1
 432 81 l 2,9,10
 432 -4 432 -4 376.5 -57 c 128,-1,11
 321 -110 321 -110 223 -110 c 0,12,13
 146 -110 146 -110 101 -78 c 128,-1,14
 56 -46 56 -46 42 14 c 1,15,-1
 104 74 l 1,16,17
 115 22 115 22 141 -1 c 128,-1,18
 167 -24 167 -24 217 -24 c 256,19,20
 267 -24 267 -24 296 9.5 c 128,-1,21
 325 43 325 43 325 98 c 2,22,-1
 325 577 l 1,23,-1
 243 577 l 2,24,25
 182 577 182 577 147 550 c 128,-1,26
 112 523 112 523 112 471 c 0,27,28
 112 430 112 430 140.5 401.5 c 128,-1,29
 169 373 169 373 216 365 c 1,30,-1
 179 286 l 1,31,32
 107 295 107 295 58.5 345.5 c 128,-1,33
 10 396 10 396 10 473 c 0,34,35
 10 561 10 561 68.5 610.5 c 128,-1,36
 127 660 127 660 229 660 c 2,37,-1
 595 660 l 2,38,39
 701 660 701 660 763.5 607 c 128,-1,40
 826 554 826 554 826 462 c 0,41,42
 826 392 826 392 789 344 c 128,-1,43
 752 296 752 296 685 276 c 1,44,-1
 865 0 l 1,45,-1
 742 0 l 1,46,-1
 574 264 l 1,7,-1
432 353 m 1,47,-1
 585 353 l 2,48,49
 651 353 651 353 683 379.5 c 128,-1,50
 715 406 715 406 715 461 c 256,51,52
 715 516 715 516 683 542.5 c 128,-1,53
 651 569 651 569 585 569 c 2,54,-1
 432 569 l 1,55,-1
 432 353 l 1,47,-1
EndSplineSet
Validated: 1
EndChar

StartChar: S.swsh
Encoding: 65594 -1 163
Width: 642
GlyphClass: 2
Flags: W
AnchorPoint: "Anchor-0" 330 -100 basechar 0
LayerCount: 2
Back
Fore
SplineSet
127 -62 m 128,-1,1
 58 -14 58 -14 58 73 c 0,2,3
 58 96 58 96 61 115 c 1,4,-1
 159 143 l 1,5,6
 155 113 155 113 155 103 c 0,7,8
 155 42 155 42 197.5 12.5 c 128,-1,9
 240 -17 240 -17 328 -17 c 0,10,11
 406 -17 406 -17 446 14.5 c 128,-1,12
 486 46 486 46 486 106 c 0,13,14
 486 151 486 151 448 179.5 c 128,-1,15
 410 208 410 208 312 232 c 0,16,17
 181 263 181 263 125.5 313 c 128,-1,18
 70 363 70 363 70 447 c 0,19,20
 70 514 70 514 101.5 564.5 c 128,-1,21
 133 615 133 615 192.5 642.5 c 128,-1,22
 252 670 252 670 331 670 c 0,23,24
 446 670 446 670 509 622 c 128,-1,25
 572 574 572 574 580 479 c 1,26,-1
 479 439 l 1,27,28
 477 511 477 511 442 544 c 128,-1,29
 407 577 407 577 331 577 c 0,30,31
 260 577 260 577 221 545 c 128,-1,32
 182 513 182 513 182 454 c 0,33,34
 182 421 182 421 198.5 397.5 c 128,-1,35
 215 374 215 374 254 355.5 c 128,-1,36
 293 337 293 337 361 319 c 0,37,38
 448 297 448 297 498 269.5 c 128,-1,39
 548 242 548 242 570.5 204 c 128,-1,40
 593 166 593 166 593 111 c 0,41,42
 593 44 593 44 559.5 -6 c 128,-1,43
 526 -56 526 -56 464.5 -83 c 128,-1,44
 403 -110 403 -110 322 -110 c 0,45,0
 196 -110 196 -110 127 -62 c 128,-1,1
EndSplineSet
Validated: 1
EndChar

StartChar: Sacute.swsh
Encoding: 65595 -1 164
Width: 642
GlyphClass: 2
Flags: W
AnchorPoint: "Anchor-0" 330 -100 basechar 0
LayerCount: 2
Back
Fore
SplineSet
446 888 m 1,0,-1
 358 737 l 1,1,-1
 276 737 l 1,2,-1
 332 888 l 1,3,-1
 446 888 l 1,0,-1
127 -62 m 128,-1,5
 58 -14 58 -14 58 73 c 0,6,7
 58 96 58 96 61 115 c 1,8,-1
 159 143 l 1,9,10
 155 113 155 113 155 103 c 0,11,12
 155 42 155 42 197.5 12.5 c 128,-1,13
 240 -17 240 -17 328 -17 c 0,14,15
 406 -17 406 -17 446 14.5 c 128,-1,16
 486 46 486 46 486 106 c 0,17,18
 486 151 486 151 448 179.5 c 128,-1,19
 410 208 410 208 312 232 c 0,20,21
 181 263 181 263 125.5 313 c 128,-1,22
 70 363 70 363 70 447 c 0,23,24
 70 514 70 514 101.5 564.5 c 128,-1,25
 133 615 133 615 192.5 642.5 c 128,-1,26
 252 670 252 670 331 670 c 0,27,28
 446 670 446 670 509 622 c 128,-1,29
 572 574 572 574 580 479 c 1,30,-1
 479 439 l 1,31,32
 477 511 477 511 442 544 c 128,-1,33
 407 577 407 577 331 577 c 0,34,35
 260 577 260 577 221 545 c 128,-1,36
 182 513 182 513 182 454 c 0,37,38
 182 421 182 421 198.5 397.5 c 128,-1,39
 215 374 215 374 254 355.5 c 128,-1,40
 293 337 293 337 361 319 c 0,41,42
 448 297 448 297 498 269.5 c 128,-1,43
 548 242 548 242 570.5 204 c 128,-1,44
 593 166 593 166 593 111 c 0,45,46
 593 44 593 44 559.5 -6 c 128,-1,47
 526 -56 526 -56 464.5 -83 c 128,-1,48
 403 -110 403 -110 322 -110 c 0,49,4
 196 -110 196 -110 127 -62 c 128,-1,5
EndSplineSet
Validated: 1
EndChar

StartChar: Scaron.swsh
Encoding: 65596 -1 165
Width: 642
GlyphClass: 2
Flags: W
AnchorPoint: "Anchor-0" 330 -100 basechar 0
LayerCount: 2
Back
Fore
SplineSet
382 733 m 1,0,-1
 270 733 l 1,1,-1
 157 900 l 1,2,-1
 246 900 l 1,3,-1
 326 793 l 1,4,-1
 406 900 l 1,5,-1
 495 900 l 1,6,-1
 382 733 l 1,0,-1
127 -62 m 128,-1,8
 58 -14 58 -14 58 73 c 0,9,10
 58 96 58 96 61 115 c 1,11,-1
 159 143 l 1,12,13
 155 113 155 113 155 103 c 0,14,15
 155 42 155 42 197.5 12.5 c 128,-1,16
 240 -17 240 -17 328 -17 c 0,17,18
 406 -17 406 -17 446 14.5 c 128,-1,19
 486 46 486 46 486 106 c 0,20,21
 486 151 486 151 448 179.5 c 128,-1,22
 410 208 410 208 312 232 c 0,23,24
 181 263 181 263 125.5 313 c 128,-1,25
 70 363 70 363 70 447 c 0,26,27
 70 514 70 514 101.5 564.5 c 128,-1,28
 133 615 133 615 192.5 642.5 c 128,-1,29
 252 670 252 670 331 670 c 0,30,31
 446 670 446 670 509 622 c 128,-1,32
 572 574 572 574 580 479 c 1,33,-1
 479 439 l 1,34,35
 477 511 477 511 442 544 c 128,-1,36
 407 577 407 577 331 577 c 0,37,38
 260 577 260 577 221 545 c 128,-1,39
 182 513 182 513 182 454 c 0,40,41
 182 421 182 421 198.5 397.5 c 128,-1,42
 215 374 215 374 254 355.5 c 128,-1,43
 293 337 293 337 361 319 c 0,44,45
 448 297 448 297 498 269.5 c 128,-1,46
 548 242 548 242 570.5 204 c 128,-1,47
 593 166 593 166 593 111 c 0,48,49
 593 44 593 44 559.5 -6 c 128,-1,50
 526 -56 526 -56 464.5 -83 c 128,-1,51
 403 -110 403 -110 322 -110 c 0,52,7
 196 -110 196 -110 127 -62 c 128,-1,8
EndSplineSet
Validated: 1
EndChar

StartChar: Scedilla.swsh
Encoding: 65597 -1 166
Width: 642
GlyphClass: 2
Flags: W
AnchorPoint: "Anchor-0" 330 -100 basechar 0
LayerCount: 2
Back
Fore
SplineSet
532.5 -38.5 m 128,-1,1
 472 -97 472 -97 369 -108 c 1,2,3
 395 -127 395 -127 408.5 -152.5 c 128,-1,4
 422 -178 422 -178 422 -205 c 0,5,6
 422 -253 422 -253 388 -284 c 128,-1,7
 354 -315 354 -315 298 -315 c 0,8,9
 259 -315 259 -315 231.5 -306 c 128,-1,10
 204 -297 204 -297 183 -278 c 1,11,-1
 216 -216 l 1,12,13
 229 -229 229 -229 247 -237.5 c 128,-1,14
 265 -246 265 -246 286 -246 c 0,15,16
 310 -246 310 -246 326 -230.5 c 128,-1,17
 342 -215 342 -215 342 -190 c 0,18,19
 342 -163 342 -163 325.5 -144.5 c 128,-1,20
 309 -126 309 -126 266 -107 c 1,21,22
 166 -97 166 -97 112 -50.5 c 128,-1,23
 58 -4 58 -4 58 73 c 0,24,25
 58 96 58 96 61 115 c 1,26,-1
 159 143 l 1,27,28
 155 113 155 113 155 103 c 0,29,30
 155 42 155 42 197.5 12.5 c 128,-1,31
 240 -17 240 -17 328 -17 c 0,32,33
 406 -17 406 -17 446 14.5 c 128,-1,34
 486 46 486 46 486 106 c 0,35,36
 486 151 486 151 448 179.5 c 128,-1,37
 410 208 410 208 312 232 c 0,38,39
 181 263 181 263 125.5 313 c 128,-1,40
 70 363 70 363 70 447 c 0,41,42
 70 514 70 514 101.5 564.5 c 128,-1,43
 133 615 133 615 192.5 642.5 c 128,-1,44
 252 670 252 670 331 670 c 0,45,46
 446 670 446 670 509 622 c 128,-1,47
 572 574 572 574 580 479 c 1,48,-1
 479 439 l 1,49,50
 477 511 477 511 442 544 c 128,-1,51
 407 577 407 577 331 577 c 0,52,53
 260 577 260 577 221 545 c 128,-1,54
 182 513 182 513 182 454 c 0,55,56
 182 421 182 421 198.5 397.5 c 128,-1,57
 215 374 215 374 254 355.5 c 128,-1,58
 293 337 293 337 361 319 c 0,59,60
 448 297 448 297 498 269.5 c 128,-1,61
 548 242 548 242 570.5 204 c 128,-1,62
 593 166 593 166 593 111 c 0,63,0
 593 20 593 20 532.5 -38.5 c 128,-1,1
EndSplineSet
Validated: 1
EndChar

StartChar: T.swsh
Encoding: 65599 -1 168
Width: 733
GlyphClass: 2
Flags: W
AnchorPoint: "Anchor-0" 434 0 basechar 0
LayerCount: 2
Back
Fore
SplineSet
704 568 m 1,0,-1
 478 568 l 1,1,-1
 478 0 l 1,2,-1
 370 0 l 1,3,-1
 370 568 l 1,4,-1
 245 568 l 2,5,6
 112 568 112 568 112 471 c 0,7,8
 112 429 112 429 140 401 c 128,-1,9
 168 373 168 373 216 365 c 1,10,-1
 179 286 l 1,11,12
 107 295 107 295 58.5 346 c 128,-1,13
 10 397 10 397 10 473 c 0,14,15
 10 561 10 561 68.5 610.5 c 128,-1,16
 127 660 127 660 229 660 c 2,17,-1
 704 660 l 1,18,-1
 704 568 l 1,0,-1
EndSplineSet
Validated: 1
EndChar

StartChar: Tcaron.swsh
Encoding: 65600 -1 169
Width: 733
GlyphClass: 2
Flags: W
AnchorPoint: "Anchor-0" 434 0 basechar 0
LayerCount: 2
Back
Fore
SplineSet
367 733 m 1,0,-1
 254 900 l 1,1,-1
 343 900 l 1,2,-1
 423 793 l 1,3,-1
 503 900 l 1,4,-1
 592 900 l 1,5,-1
 479 733 l 1,6,-1
 367 733 l 1,0,-1
704 568 m 1,7,-1
 478 568 l 1,8,-1
 478 0 l 1,9,-1
 370 0 l 1,10,-1
 370 568 l 1,11,-1
 245 568 l 2,12,13
 112 568 112 568 112 471 c 0,14,15
 112 429 112 429 140 401 c 128,-1,16
 168 373 168 373 216 365 c 1,17,-1
 179 286 l 1,18,19
 107 295 107 295 58.5 346 c 128,-1,20
 10 397 10 397 10 473 c 0,21,22
 10 561 10 561 68.5 610.5 c 128,-1,23
 127 660 127 660 229 660 c 2,24,-1
 704 660 l 1,25,-1
 704 568 l 1,7,-1
EndSplineSet
Validated: 1
EndChar

StartChar: uni0162.swsh
Encoding: 65601 -1 170
Width: 733
GlyphClass: 2
Flags: W
AnchorPoint: "Anchor-0" 434 0 basechar 0
LayerCount: 2
Back
Fore
SplineSet
478 568 m 1,0,-1
 478 3 l 1,1,2
 542 -38 542 -38 542 -104 c 0,3,4
 542 -152 542 -152 507.5 -183.5 c 128,-1,5
 473 -215 473 -215 417 -215 c 0,6,7
 342 -215 342 -215 302 -178 c 1,8,-1
 337 -115 l 1,9,10
 365 -145 365 -145 405 -145 c 0,11,12
 430 -145 430 -145 446 -130 c 128,-1,13
 462 -115 462 -115 462 -89 c 0,14,15
 462 -62 462 -62 444.5 -43.5 c 128,-1,16
 427 -25 427 -25 383 0 c 1,17,-1
 370 0 l 1,18,-1
 370 568 l 1,19,-1
 245 568 l 2,20,21
 112 568 112 568 112 471 c 0,22,23
 112 429 112 429 140 401 c 128,-1,24
 168 373 168 373 216 365 c 1,25,-1
 179 286 l 1,26,27
 107 295 107 295 58.5 346 c 128,-1,28
 10 397 10 397 10 473 c 0,29,30
 10 561 10 561 68.5 610.5 c 128,-1,31
 127 660 127 660 229 660 c 2,32,-1
 704 660 l 1,33,-1
 704 568 l 1,34,-1
 478 568 l 1,0,-1
EndSplineSet
Validated: 1
EndChar

StartChar: W.swsh
Encoding: 65603 -1 172
Width: 1239
GlyphClass: 2
Flags: W
LayerCount: 2
Back
Fore
SplineSet
1211 660 m 1,0,-1
 1018 0 l 1,1,-1
 892 0 l 1,2,-1
 787 396 l 1,3,-1
 754 548 l 1,4,-1
 753 548 l 1,5,-1
 720 396 l 1,6,-1
 616 0 l 1,7,-1
 489 0 l 1,8,-1
 319 577 l 1,9,-1
 244 577 l 2,10,11
 182 577 182 577 147 550 c 128,-1,12
 112 523 112 523 112 471 c 0,13,14
 112 429 112 429 140.5 401 c 128,-1,15
 169 373 169 373 217 365 c 1,16,-1
 179 286 l 1,17,18
 133 291 133 291 94 315.5 c 128,-1,19
 55 340 55 340 32.5 381 c 128,-1,20
 10 422 10 422 10 473 c 0,21,22
 10 561 10 561 68.5 610.5 c 128,-1,23
 127 660 127 660 229 660 c 2,24,-1
 411 660 l 1,25,-1
 555 85 l 1,26,-1
 700 660 l 1,27,-1
 810 660 l 1,28,-1
 956 84 l 1,29,-1
 1101 660 l 1,30,-1
 1211 660 l 1,0,-1
EndSplineSet
Validated: 1
EndChar

StartChar: Adieresis.titl
Encoding: 65604 -1 173
Width: 665
GlyphClass: 2
Flags: W
LayerCount: 2
Back
Fore
SplineSet
107 565.5 m 128,-1,1
 92 581 92 581 92 607 c 0,2,3
 92 632 92 632 107.5 647 c 128,-1,4
 123 662 123 662 148 662 c 0,5,6
 175 662 175 662 191 647 c 128,-1,7
 207 632 207 632 207 607 c 0,8,9
 207 581 207 581 191 565.5 c 128,-1,10
 175 550 175 550 148 550 c 0,11,0
 122 550 122 550 107 565.5 c 128,-1,1
475.5 565.5 m 128,-1,13
 460 581 460 581 460 607 c 0,14,15
 460 632 460 632 475.5 647 c 128,-1,16
 491 662 491 662 517 662 c 256,17,18
 543 662 543 662 559 647 c 128,-1,19
 575 632 575 632 575 607 c 0,20,21
 575 581 575 581 559 565.5 c 128,-1,22
 543 550 543 550 517 550 c 256,23,12
 491 550 491 550 475.5 565.5 c 128,-1,13
471 173 m 1,24,-1
 192 173 l 1,25,-1
 130 0 l 1,26,-1
 19 0 l 1,27,-1
 269 660 l 1,28,-1
 397 660 l 1,29,-1
 645 0 l 1,30,-1
 533 0 l 1,31,-1
 471 173 l 1,24,-1
439 260 m 1,32,-1
 362 472 l 1,33,-1
 332 567 l 1,34,-1
 330 567 l 1,35,-1
 302 474 l 1,36,-1
 224 260 l 1,37,-1
 439 260 l 1,32,-1
EndSplineSet
Validated: 1
EndChar

StartChar: Odieresis.titl
Encoding: 65605 -1 174
Width: 745
GlyphClass: 2
Flags: W
LayerCount: 2
Back
Fore
SplineSet
537.5 629 m 128,-1,1
 608 588 608 588 645.5 511 c 128,-1,2
 683 434 683 434 683 330 c 256,3,4
 683 226 683 226 645.5 149 c 128,-1,5
 608 72 608 72 537.5 31 c 128,-1,6
 467 -10 467 -10 372 -10 c 256,7,8
 277 -10 277 -10 206.5 31 c 128,-1,9
 136 72 136 72 98.5 149 c 128,-1,10
 61 226 61 226 61 330 c 256,11,12
 61 434 61 434 98.5 511 c 128,-1,13
 136 588 136 588 206.5 629 c 128,-1,14
 277 670 277 670 372 670 c 256,15,0
 467 670 467 670 537.5 629 c 128,-1,1
125 646.5 m 128,-1,17
 141 631 141 631 141 606 c 256,18,19
 141 581 141 581 125 565.5 c 128,-1,20
 109 550 109 550 83 550 c 0,21,22
 58 550 58 550 42 565.5 c 128,-1,23
 26 581 26 581 26 606 c 256,24,25
 26 631 26 631 41.5 646.5 c 128,-1,26
 57 662 57 662 83 662 c 256,27,16
 109 662 109 662 125 646.5 c 128,-1,17
703.5 647 m 128,-1,29
 719 632 719 632 719 607 c 0,30,31
 719 581 719 581 703.5 565.5 c 128,-1,32
 688 550 688 550 662 550 c 256,33,34
 636 550 636 550 620 565.5 c 128,-1,35
 604 581 604 581 604 607 c 0,36,37
 604 632 604 632 620 647 c 128,-1,38
 636 662 636 662 662 662 c 256,39,28
 688 662 688 662 703.5 647 c 128,-1,29
226 512 m 128,-1,41
 173 447 173 447 173 330 c 256,42,43
 173 213 173 213 226 148 c 128,-1,44
 279 83 279 83 373 83 c 0,45,46
 466 83 466 83 519 148 c 128,-1,47
 572 213 572 213 572 330 c 256,48,49
 572 447 572 447 519 512 c 128,-1,50
 466 577 466 577 373 577 c 0,51,40
 279 577 279 577 226 512 c 128,-1,41
EndSplineSet
Validated: 1
EndChar

StartChar: Udieresis.titl
Encoding: 65606 -1 175
Width: 718
GlyphClass: 2
Flags: W
LayerCount: 2
Back
Fore
SplineSet
243 566 m 128,-1,1
 227 582 227 582 227 607 c 256,2,3
 227 632 227 632 242.5 647 c 128,-1,4
 258 662 258 662 284 662 c 256,5,6
 310 662 310 662 326 647 c 128,-1,7
 342 632 342 632 342 607 c 0,8,9
 342 581 342 581 326 565.5 c 128,-1,10
 310 550 310 550 284 550 c 0,11,0
 259 550 259 550 243 566 c 128,-1,1
393 566 m 128,-1,13
 377 582 377 582 377 607 c 256,14,15
 377 632 377 632 392.5 647 c 128,-1,16
 408 662 408 662 434 662 c 256,17,18
 460 662 460 662 476 647 c 128,-1,19
 492 632 492 632 492 607 c 0,20,21
 492 581 492 581 476 565.5 c 128,-1,22
 460 550 460 550 434 550 c 0,23,12
 409 550 409 550 393 566 c 128,-1,13
629 253 m 2,24,25
 629 123 629 123 560 56.5 c 128,-1,26
 491 -10 491 -10 359 -10 c 256,27,28
 227 -10 227 -10 158 56.5 c 128,-1,29
 89 123 89 123 89 253 c 2,30,-1
 89 660 l 1,31,-1
 197 660 l 1,32,-1
 197 266 l 2,33,34
 197 172 197 172 236.5 127.5 c 128,-1,35
 276 83 276 83 359 83 c 256,36,37
 442 83 442 83 481.5 127.5 c 128,-1,38
 521 172 521 172 521 266 c 2,39,-1
 521 660 l 1,40,-1
 629 660 l 1,41,-1
 629 253 l 2,24,25
EndSplineSet
Validated: 1
EndChar

StartChar: a
Encoding: 97 97 176
Width: 630
GlyphClass: 2
Flags: W
LayerCount: 2
Back
Fore
SplineSet
547 500 m 1,0,-1
 547 0 l 1,1,-1
 446 0 l 5,2,-1
 440 81 l 1,3,4
 417 39 417 39 375 14.5 c 128,-1,5
 333 -10 333 -10 279 -10 c 0,6,7
 176 -10 176 -10 116.5 59.5 c 128,-1,8
 57 129 57 129 57 251 c 256,9,10
 57 373 57 373 116 441.5 c 128,-1,11
 175 510 175 510 278 510 c 0,12,13
 337 510 337 510 381.5 482.5 c 128,-1,14
 426 455 426 455 448 408 c 1,15,-1
 453 500 l 1,16,-1
 547 500 l 1,0,-1
402.5 121.5 m 128,-1,18
 440 166 440 166 440 244 c 2,19,-1
 440 256 l 2,20,21
 440 334 440 334 402.5 379 c 128,-1,22
 365 424 365 424 302 424 c 0,23,24
 237 424 237 424 200.5 378 c 128,-1,25
 164 332 164 332 164 250 c 256,26,27
 164 168 164 168 200.5 122.5 c 128,-1,28
 237 77 237 77 302 77 c 0,29,17
 365 77 365 77 402.5 121.5 c 128,-1,18
EndSplineSet
Validated: 1
Substitution2: "Single Substitution lookup 55 subtable" ordfeminine
Substitution2: "'smcp' Lowercase to Small Capitals lookup 12 subtable" a.sc
AlternateSubs2: "'aalt' Access All Alternates lookup 1 subtable" a.sc ordfeminine
EndChar

StartChar: aogonek
Encoding: 261 261 183
Width: 570
GlyphClass: 2
Flags: W
LayerCount: 2
Back
Fore
SplineSet
534 -135 m 1,1,-1
 552 -196 l 1,2,3
 520 -215 520 -215 467 -215 c 0,4,5
 411 -215 411 -215 377.5 -188 c 128,-1,6
 344 -161 344 -161 344 -114 c 0,7,8
 344 -36 344 -36 437 7 c 1,9,10
 397 25 397 25 385 72 c 1,11,12
 364 33 364 33 317.5 11.5 c 128,-1,13
 271 -10 271 -10 212 -10 c 0,14,15
 139 -10 139 -10 94 24 c 128,-1,16
 49 58 49 58 49 121 c 0,17,18
 49 180 49 180 98 220.5 c 128,-1,19
 147 261 147 261 244 278 c 2,20,-1
 371 300 l 1,21,-1
 371 327 l 2,22,23
 371 373 371 373 344 399.5 c 128,-1,24
 317 426 317 426 269 426 c 0,25,26
 170 426 170 426 140 336 c 1,27,-1
 57 380 l 1,28,29
 75 440 75 440 130.5 475 c 128,-1,30
 186 510 186 510 267 510 c 0,31,32
 364 510 364 510 421 465 c 128,-1,33
 478 420 478 420 478 333 c 2,34,-1
 478 107 l 2,35,36
 478 88 478 88 486.5 79 c 128,-1,37
 495 70 495 70 515 70 c 0,38,39
 537 70 537 70 552 74 c 1,40,-1
 545 2 l 1,41,42
 479 -17 479 -17 452 -40.5 c 128,-1,43
 425 -64 425 -64 425 -96 c 0,44,45
 425 -120 425 -120 439.5 -133.5 c 128,-1,46
 454 -147 454 -147 481 -147 c 0,47,0
 516 -147 516 -147 534 -135 c 1,1,-1
330 97 m 128,-1,49
 371 123 371 123 371 166 c 2,50,-1
 371 226 l 1,51,-1
 262 204 l 2,52,53
 210 193 210 193 185 175 c 128,-1,54
 160 157 160 157 160 128 c 0,55,56
 160 100 160 100 179.5 85.5 c 128,-1,57
 199 71 199 71 235 71 c 0,58,48
 289 71 289 71 330 97 c 128,-1,49
EndSplineSet
Validated: 1
Substitution2: "'smcp' Lowercase to Small Capitals lookup 12 subtable" aogonek.sc
Substitution2: "'aalt' Access All Alternates lookup 0 subtable" aogonek.sc
EndChar

StartChar: ae
Encoding: 230 230 186
Width: 883
GlyphClass: 2
Flags: W
LayerCount: 2
Back
Fore
SplineSet
826 214 m 1,1,-1
 480 214 l 1,2,3
 487 148 487 148 524 111.5 c 128,-1,4
 561 75 561 75 616 75 c 0,5,6
 664 75 664 75 692 92 c 128,-1,7
 720 109 720 109 732 143 c 1,8,-1
 820 106 l 1,9,10
 793 48 793 48 744 19 c 128,-1,11
 695 -10 695 -10 614 -10 c 0,12,13
 548 -10 548 -10 499.5 17 c 128,-1,14
 451 44 451 44 425 99 c 1,15,16
 402 45 402 45 346 17.5 c 128,-1,17
 290 -10 290 -10 212 -10 c 0,18,19
 137 -10 137 -10 93 25.5 c 128,-1,20
 49 61 49 61 49 121 c 0,21,22
 49 180 49 180 96 219 c 128,-1,23
 143 258 143 258 235 273 c 2,24,-1
 377 295 l 1,25,-1
 377 327 l 2,26,27
 377 373 377 373 348.5 399.5 c 128,-1,28
 320 426 320 426 268 426 c 0,29,30
 222 426 222 426 189.5 403.5 c 128,-1,31
 157 381 157 381 141 337 c 1,32,-1
 58 378 l 1,33,34
 77 440 77 440 133 475 c 128,-1,35
 189 510 189 510 272 510 c 0,36,37
 331 510 331 510 373.5 487 c 128,-1,38
 416 464 416 464 440 419 c 1,39,40
 468 463 468 463 511 486.5 c 128,-1,41
 554 510 554 510 609 510 c 0,42,43
 716 510 716 510 773 444 c 128,-1,44
 830 378 830 378 830 274 c 0,45,0
 830 244 830 244 826 214 c 1,1,-1
523 390.5 m 128,-1,47
 489 356 489 356 480 291 c 1,48,-1
 731 291 l 1,49,50
 718 425 718 425 611 425 c 0,51,46
 557 425 557 425 523 390.5 c 128,-1,47
336 103.5 m 128,-1,53
 377 136 377 136 377 191 c 2,54,-1
 377 225 l 1,55,-1
 266 204 l 2,56,57
 209 193 209 193 184.5 176 c 128,-1,58
 160 159 160 159 160 128 c 0,59,60
 160 71 160 71 239 71 c 0,61,52
 295 71 295 71 336 103.5 c 128,-1,53
EndSplineSet
Validated: 1
Substitution2: "'smcp' Lowercase to Small Capitals lookup 12 subtable" ae.sc
Substitution2: "'aalt' Access All Alternates lookup 0 subtable" ae.sc
EndChar

StartChar: b
Encoding: 98 98 187
Width: 629
GlyphClass: 2
Flags: W
LayerCount: 2
Back
Fore
SplineSet
514 440.5 m 128,-1,1
 573 371 573 371 573 249 c 256,2,3
 573 127 573 127 514 58.5 c 128,-1,4
 455 -10 455 -10 352 -10 c 0,5,6
 293 -10 293 -10 248.5 18 c 128,-1,7
 204 46 204 46 182 93 c 1,8,-1
 177 0 l 1,9,-1
 83 0 l 1,10,-1
 83 725 l 1,11,-1
 190 725 l 1,12,-1
 190 420 l 1,13,14
 213 462 213 462 255.5 486 c 128,-1,15
 298 510 298 510 352 510 c 0,16,0
 455 510 455 510 514 440.5 c 128,-1,1
429.5 122 m 128,-1,18
 466 168 466 168 466 250 c 256,19,20
 466 332 466 332 429.5 377.5 c 128,-1,21
 393 423 393 423 328 423 c 0,22,23
 267 423 267 423 230.5 382 c 128,-1,24
 194 341 194 341 190 269 c 1,25,-1
 190 231 l 1,26,27
 194 158 194 158 230.5 117 c 128,-1,28
 267 76 267 76 328 76 c 0,29,17
 393 76 393 76 429.5 122 c 128,-1,18
EndSplineSet
Validated: 1
Substitution2: "'smcp' Lowercase to Small Capitals lookup 12 subtable" b.sc
Substitution2: "'aalt' Access All Alternates lookup 0 subtable" b.sc
EndChar

StartChar: c
Encoding: 99 99 188
Width: 566
GlyphClass: 2
Flags: W
LayerCount: 2
Back
Fore
SplineSet
520 370 m 1,1,-1
 420 330 l 1,2,3
 394 425 394 425 303 425 c 0,4,5
 236 425 236 425 199 379 c 128,-1,6
 162 333 162 333 162 249 c 256,7,8
 162 165 162 165 199 120 c 128,-1,9
 236 75 236 75 303 75 c 0,10,11
 354 75 354 75 385 100 c 128,-1,12
 416 125 416 125 426 172 c 1,13,-1
 524 139 l 1,14,15
 502 69 502 69 446 29.5 c 128,-1,16
 390 -10 390 -10 305 -10 c 0,17,18
 187 -10 187 -10 120.5 59 c 128,-1,19
 54 128 54 128 54 250 c 256,20,21
 54 372 54 372 120 441 c 128,-1,22
 186 510 186 510 303 510 c 0,23,0
 467 510 467 510 520 370 c 1,1,-1
EndSplineSet
Validated: 1
Substitution2: "'smcp' Lowercase to Small Capitals lookup 12 subtable" c.sc
Substitution2: "'aalt' Access All Alternates lookup 0 subtable" c.sc
EndChar

StartChar: ccedilla
Encoding: 231 231 191
Width: 566
GlyphClass: 2
Flags: W
LayerCount: 2
Back
Fore
SplineSet
464.5 43.5 m 128,-1,1
 423 6 423 6 360 -5 c 1,2,3
 387 -25 387 -25 401.5 -51 c 128,-1,4
 416 -77 416 -77 416 -105 c 0,5,6
 416 -153 416 -153 382 -184 c 128,-1,7
 348 -215 348 -215 292 -215 c 0,8,9
 253 -215 253 -215 225.5 -206 c 128,-1,10
 198 -197 198 -197 177 -178 c 1,11,-1
 210 -116 l 1,12,13
 223 -129 223 -129 241 -137.5 c 128,-1,14
 259 -146 259 -146 280 -146 c 0,15,16
 304 -146 304 -146 320 -130.5 c 128,-1,17
 336 -115 336 -115 336 -90 c 0,18,19
 336 -63 336 -63 319.5 -44.5 c 128,-1,20
 303 -26 303 -26 260 -7 c 1,21,22
 162 6 162 6 108 73 c 128,-1,23
 54 140 54 140 54 250 c 0,24,25
 54 372 54 372 120 441 c 128,-1,26
 186 510 186 510 303 510 c 0,27,28
 467 510 467 510 520 370 c 1,29,-1
 420 330 l 1,30,31
 394 425 394 425 303 425 c 0,32,33
 236 425 236 425 199 379 c 128,-1,34
 162 333 162 333 162 249 c 256,35,36
 162 165 162 165 199 120 c 128,-1,37
 236 75 236 75 303 75 c 0,38,39
 354 75 354 75 385 100 c 128,-1,40
 416 125 416 125 426 172 c 1,41,-1
 524 139 l 1,42,0
 506 81 506 81 464.5 43.5 c 128,-1,1
EndSplineSet
Validated: 1
Substitution2: "'smcp' Lowercase to Small Capitals lookup 12 subtable" ccedilla.sc
Substitution2: "'aalt' Access All Alternates lookup 0 subtable" ccedilla.sc
EndChar

StartChar: d
Encoding: 100 100 192
Width: 629
GlyphClass: 2
Flags: W
LayerCount: 2
Back
Fore
SplineSet
546 725 m 1,0,-1
 546 0 l 1,1,-1
 452 0 l 1,2,-1
 446 89 l 1,3,4
 424 44 424 44 379.5 17 c 128,-1,5
 335 -10 335 -10 278 -10 c 0,6,7
 175 -10 175 -10 115.5 58.5 c 128,-1,8
 56 127 56 127 56 249 c 256,9,10
 56 371 56 371 115.5 440.5 c 128,-1,11
 175 510 175 510 278 510 c 0,12,13
 333 510 333 510 375 485.5 c 128,-1,14
 417 461 417 461 439 419 c 1,15,-1
 439 725 l 1,16,-1
 546 725 l 1,0,-1
402 121 m 128,-1,18
 439 166 439 166 439 244 c 2,19,-1
 439 256 l 2,20,21
 439 334 439 334 402 378.5 c 128,-1,22
 365 423 365 423 302 423 c 0,23,24
 237 423 237 423 200.5 377.5 c 128,-1,25
 164 332 164 332 164 250 c 256,26,27
 164 168 164 168 200.5 122 c 128,-1,28
 237 76 237 76 302 76 c 0,29,17
 365 76 365 76 402 121 c 128,-1,18
EndSplineSet
Validated: 1
Substitution2: "'smcp' Lowercase to Small Capitals lookup 12 subtable" d.sc
Substitution2: "'aalt' Access All Alternates lookup 0 subtable" d.sc
EndChar

StartChar: eth
Encoding: 240 240 193
Width: 615
GlyphClass: 2
Flags: W
LayerCount: 2
Back
Fore
SplineSet
457 608 m 1,0,1
 551 481 551 481 551 293 c 0,2,3
 551 149 551 149 487.5 69.5 c 128,-1,4
 424 -10 424 -10 296 -10 c 0,5,6
 185 -10 185 -10 120.5 56 c 128,-1,7
 56 122 56 122 56 239 c 0,8,9
 56 315 56 315 86.5 371.5 c 128,-1,10
 117 428 117 428 170.5 458 c 128,-1,11
 224 488 224 488 293 488 c 0,12,13
 403 488 403 488 454 418 c 1,14,15
 432 518 432 518 375 589 c 1,16,-1
 195 545 l 1,17,-1
 185 596 l 1,18,-1
 339 627 l 1,19,20
 289 675 289 675 196 728 c 1,21,-1
 321 728 l 1,22,23
 382 692 382 692 425 646 c 1,24,-1
 537 677 l 1,25,-1
 552 625 l 1,26,-1
 457 608 l 1,0,1
409 122 m 128,-1,28
 448 169 448 169 448 239 c 0,29,30
 448 319 448 319 411 362 c 128,-1,31
 374 405 374 405 307 405 c 0,32,33
 239 405 239 405 202 362 c 128,-1,34
 165 319 165 319 165 239 c 0,35,36
 165 161 165 161 201.5 118 c 128,-1,37
 238 75 238 75 303 75 c 0,38,27
 370 75 370 75 409 122 c 128,-1,28
EndSplineSet
Validated: 1
Substitution2: "'smcp' Lowercase to Small Capitals lookup 12 subtable" eth.sc
Substitution2: "'aalt' Access All Alternates lookup 0 subtable" eth.sc
EndChar

StartChar: dcaron
Encoding: 271 271 194
Width: 663
GlyphClass: 2
Flags: W
LayerCount: 2
Back
Fore
SplineSet
710 725 m 1,0,-1
 666 515 l 1,1,-1
 598 515 l 1,2,-1
 618 725 l 1,3,-1
 710 725 l 1,0,-1
439 725 m 1,4,-1
 546 725 l 1,5,-1
 546 0 l 1,6,-1
 452 0 l 1,7,-1
 446 89 l 1,8,9
 424 44 424 44 379.5 17 c 128,-1,10
 335 -10 335 -10 278 -10 c 0,11,12
 175 -10 175 -10 115.5 58.5 c 128,-1,13
 56 127 56 127 56 249 c 256,14,15
 56 371 56 371 115.5 440.5 c 128,-1,16
 175 510 175 510 278 510 c 0,17,18
 333 510 333 510 375 485.5 c 128,-1,19
 417 461 417 461 439 419 c 1,20,-1
 439 725 l 1,4,-1
402 121 m 128,-1,22
 439 166 439 166 439 244 c 2,23,-1
 439 256 l 2,24,25
 439 334 439 334 402 378.5 c 128,-1,26
 365 423 365 423 302 423 c 0,27,28
 237 423 237 423 200.5 377.5 c 128,-1,29
 164 332 164 332 164 250 c 256,30,31
 164 168 164 168 200.5 122 c 128,-1,32
 237 76 237 76 302 76 c 0,33,21
 365 76 365 76 402 121 c 128,-1,22
EndSplineSet
Validated: 1
Substitution2: "'smcp' Lowercase to Small Capitals lookup 12 subtable" dcaron.sc
Substitution2: "'aalt' Access All Alternates lookup 0 subtable" dcaron.sc
EndChar

StartChar: dcroat
Encoding: 273 273 195
Width: 629
GlyphClass: 2
Flags: W
LayerCount: 2
Back
Fore
SplineSet
623 558 m 1,0,-1
 546 558 l 1,1,-1
 546 0 l 1,2,-1
 452 0 l 1,3,-1
 446 89 l 1,4,5
 424 44 424 44 379.5 17 c 128,-1,6
 335 -10 335 -10 278 -10 c 0,7,8
 175 -10 175 -10 115.5 58.5 c 128,-1,9
 56 127 56 127 56 249 c 256,10,11
 56 371 56 371 115.5 440.5 c 128,-1,12
 175 510 175 510 278 510 c 0,13,14
 333 510 333 510 375 485.5 c 128,-1,15
 417 461 417 461 439 419 c 1,16,-1
 439 558 l 1,17,-1
 290 558 l 1,18,-1
 290 629 l 1,19,-1
 439 629 l 1,20,-1
 439 725 l 1,21,-1
 546 725 l 1,22,-1
 546 629 l 1,23,-1
 623 629 l 1,24,-1
 623 558 l 1,0,-1
402 121 m 128,-1,26
 439 166 439 166 439 244 c 2,27,-1
 439 256 l 2,28,29
 439 334 439 334 402 378.5 c 128,-1,30
 365 423 365 423 302 423 c 0,31,32
 237 423 237 423 200.5 377.5 c 128,-1,33
 164 332 164 332 164 250 c 256,34,35
 164 168 164 168 200.5 122 c 128,-1,36
 237 76 237 76 302 76 c 0,37,25
 365 76 365 76 402 121 c 128,-1,26
EndSplineSet
Validated: 1
Substitution2: "'smcp' Lowercase to Small Capitals lookup 12 subtable" dcroat.sc
Substitution2: "'aalt' Access All Alternates lookup 0 subtable" dcroat.sc
EndChar

StartChar: e
Encoding: 101 101 196
Width: 581
GlyphClass: 2
Flags: W
AnchorPoint: "Anchor-0" 302 0 basechar 0
LayerCount: 2
Back
Fore
SplineSet
526 210 m 1,1,-1
 160 210 l 1,2,3
 169 144 169 144 207 109.5 c 128,-1,4
 245 75 245 75 305 75 c 0,5,6
 354 75 354 75 386.5 92.5 c 128,-1,7
 419 110 419 110 431 143 c 1,8,-1
 520 106 l 1,9,10
 464 -10 464 -10 305 -10 c 0,11,12
 187 -10 187 -10 120.5 59 c 128,-1,13
 54 128 54 128 54 250 c 0,14,15
 54 373 54 373 118 441.5 c 128,-1,16
 182 510 182 510 298 510 c 0,17,18
 408 510 408 510 469 443 c 128,-1,19
 530 376 530 376 530 265 c 0,20,0
 530 236 530 236 526 210 c 1,1,-1
204.5 391 m 128,-1,22
 169 357 169 357 160 292 c 1,23,-1
 430 292 l 1,24,25
 422 355 422 355 387.5 390 c 128,-1,26
 353 425 353 425 298 425 c 0,27,21
 240 425 240 425 204.5 391 c 128,-1,22
EndSplineSet
Validated: 1
Substitution2: "'smcp' Lowercase to Small Capitals lookup 12 subtable" e.sc
Substitution2: "'aalt' Access All Alternates lookup 0 subtable" e.sc
EndChar

StartChar: eogonek
Encoding: 281 281 204
Width: 581
GlyphClass: 2
Flags: W
AnchorPoint: "Anchor-0" 302 0 basechar 0
LayerCount: 2
Back
Fore
SplineSet
526 210 m 1,1,-1
 160 210 l 1,2,3
 169 144 169 144 207 109.5 c 128,-1,4
 245 75 245 75 305 75 c 0,5,6
 354 75 354 75 386.5 92.5 c 128,-1,7
 419 110 419 110 431 143 c 1,8,-1
 520 106 l 1,9,10
 481 27 481 27 396 2 c 1,11,12
 353 -24 353 -24 333 -46.5 c 128,-1,13
 313 -69 313 -69 313 -93 c 0,14,15
 313 -118 313 -118 329.5 -132 c 128,-1,16
 346 -146 346 -146 374 -146 c 0,17,18
 408 -146 408 -146 426 -135 c 1,19,-1
 444 -196 l 1,20,21
 412 -215 412 -215 356 -215 c 256,22,23
 300 -215 300 -215 265.5 -186.5 c 128,-1,24
 231 -158 231 -158 231 -110 c 0,25,26
 231 -53 231 -53 287 -10 c 1,27,28
 177 -4 177 -4 115.5 64 c 128,-1,29
 54 132 54 132 54 250 c 0,30,31
 54 373 54 373 118 441.5 c 128,-1,32
 182 510 182 510 298 510 c 0,33,34
 408 510 408 510 469 443 c 128,-1,35
 530 376 530 376 530 265 c 0,36,0
 530 236 530 236 526 210 c 1,1,-1
204.5 391 m 128,-1,38
 169 357 169 357 160 292 c 1,39,-1
 430 292 l 1,40,41
 422 355 422 355 387.5 390 c 128,-1,42
 353 425 353 425 298 425 c 0,43,37
 240 425 240 425 204.5 391 c 128,-1,38
EndSplineSet
Validated: 1
Substitution2: "'smcp' Lowercase to Small Capitals lookup 12 subtable" eogonek.sc
Substitution2: "'aalt' Access All Alternates lookup 0 subtable" eogonek.sc
EndChar

StartChar: f
Encoding: 102 102 205
Width: 400
GlyphClass: 2
Flags: W
LayerCount: 2
Back
Fore
SplineSet
225 500 m 1,0,-1
 387 500 l 1,1,-1
 387 416 l 1,2,-1
 228 416 l 1,3,-1
 228 0 l 1,4,-1
 121 0 l 1,5,-1
 121 416 l 1,6,-1
 27 416 l 1,7,-1
 27 500 l 1,8,-1
 121 500 l 1,9,-1
 121 572 l 2,10,11
 121 648 121 648 167 690 c 128,-1,12
 213 732 213 732 296 732 c 0,13,14
 326 732 326 732 351 725.5 c 128,-1,15
 376 719 376 719 390 708 c 1,16,-1
 370 630 l 1,17,18
 347 645 347 645 313 645 c 0,19,20
 225 645 225 645 225 564 c 2,21,-1
 225 500 l 1,0,-1
EndSplineSet
Validated: 1
Substitution2: "'smcp' Lowercase to Small Capitals lookup 12 subtable" f.sc
Substitution2: "'aalt' Access All Alternates lookup 0 subtable" f.sc
EndChar

StartChar: g
Encoding: 103 103 206
Width: 630
GlyphClass: 2
Flags: W
LayerCount: 2
Back
Fore
SplineSet
402.5 121.5 m 128,-1,1
 440 166 440 166 440 244 c 2,2,-1
 440 256 l 2,3,4
 440 334 440 334 402.5 379 c 128,-1,5
 365 424 365 424 302 424 c 0,6,7
 237 424 237 424 200.5 378 c 128,-1,8
 164 332 164 332 164 250 c 128,-1,9
 164 168 164 168 200.5 122.5 c 128,-1,10
 237 77 237 77 302 77 c 0,11,0
 365 77 365 77 402.5 121.5 c 128,-1,1
440 29.869487398 m 2,12,-1
 440 81 l 1,13,14
 417 39 417 39 375 14.5 c 128,-1,15
 333 -10 333 -10 279 -10 c 0,16,17
 176 -10 176 -10 116.5 59.5 c 128,-1,18
 57 129 57 129 57 251 c 128,-1,19
 57 373 57 373 116 441.5 c 128,-1,20
 175 510 175 510 278 510 c 0,21,22
 337 510 337 510 381.5 482.5 c 128,-1,23
 426 455 426 455 448 408 c 1,24,-1
 453 500 l 1,25,-1
 547 500 l 1,26,-1
 547 30 l 2,27,28
 545 -80 545 -80 480.5 -161 c 0,29,30
 423.420629097 -230 423.420629097 -230 296 -230 c 0,31,32
 211 -230 211 -230 165 -199.5 c 128,-1,33
 119 -169 119 -169 89 -121 c 1,34,-1
 187 -88 l 1,35,36
 196 -120 196 -120 234.25 -137.75 c 0,37,38
 249.873239437 -145 249.873239437 -145 298 -145 c 0,39,40
 365 -145 365 -145 402 -100 c 128,-1,41
 439 -55 439 -55 439 29 c 0,42,43
 439.501162499 29.4367918326 439.501162499 29.4367918326 440 29.869487398 c 2,12,-1
EndSplineSet
Validated: 1
Substitution2: "'ss01' Style Set 1 lookup 47 subtable" g.ss01
Substitution2: "'salt' Stylistic Alternatives lookup 42 subtable" g.ss01
Substitution2: "'smcp' Lowercase to Small Capitals lookup 12 subtable" g.sc
AlternateSubs2: "'aalt' Access All Alternates lookup 1 subtable" g.sc g.ss01
EndChar

StartChar: gbreve
Encoding: 287 287 207
Width: 540
GlyphClass: 2
Flags: W
LayerCount: 2
Back
Fore
SplineSet
167 612 m 128,-1,1
 125 654 125 654 125 723 c 1,2,-1
 204 723 l 1,3,4
 204 689 204 689 225 665 c 128,-1,5
 246 641 246 641 279 641 c 256,6,7
 312 641 312 641 333 665 c 128,-1,8
 354 689 354 689 354 723 c 1,9,-1
 433 723 l 1,10,11
 433 654 433 654 391 612 c 128,-1,12
 349 570 349 570 279 570 c 256,13,0
 209 570 209 570 167 612 c 128,-1,1
437 454 m 1,15,16
 485 409 485 409 485 341 c 0,17,18
 485 291 485 291 458 252.5 c 128,-1,19
 431 214 431 214 381.5 193 c 128,-1,20
 332 172 332 172 268 172 c 0,21,22
 221 172 221 172 185 181 c 1,23,24
 159 175 159 175 147.5 161.5 c 128,-1,25
 136 148 136 148 136 126 c 0,26,27
 136 103 136 103 153 90.5 c 128,-1,28
 170 78 170 78 198 78 c 2,29,-1
 366 78 l 2,30,31
 442 78 442 78 484 44 c 128,-1,32
 526 10 526 10 526 -50 c 0,33,34
 526 -101 526 -101 492.5 -138 c 128,-1,35
 459 -175 459 -175 400.5 -195 c 128,-1,36
 342 -215 342 -215 269 -215 c 0,37,38
 150 -215 150 -215 90.5 -180 c 128,-1,39
 31 -145 31 -145 31 -87 c 0,40,41
 31 -53 31 -53 54.5 -27.5 c 128,-1,42
 78 -2 78 -2 120 9 c 1,43,44
 88 24 88 24 69 47.5 c 128,-1,45
 50 71 50 71 50 104 c 0,46,47
 50 141 50 141 71 166 c 128,-1,48
 92 191 92 191 128 204 c 1,49,50
 90 226 90 226 70.5 261 c 128,-1,51
 51 296 51 296 51 341 c 0,52,53
 51 418 51 418 110.5 464 c 128,-1,54
 170 510 170 510 268 510 c 0,55,56
 335 510 335 510 386 487 c 1,57,58
 393 540 393 540 432 572.5 c 128,-1,59
 471 605 471 605 526 605 c 1,60,-1
 544 522 l 1,61,14
 446 524 446 524 437 454 c 1,15,16
344.5 272.5 m 128,-1,63
 375 299 375 299 375 341 c 256,64,65
 375 383 375 383 344.5 409 c 128,-1,66
 314 435 314 435 268 435 c 0,67,68
 221 435 221 435 190.5 409 c 128,-1,69
 160 383 160 383 160 341 c 256,70,71
 160 299 160 299 190.5 272.5 c 128,-1,72
 221 246 221 246 268 246 c 0,73,62
 314 246 314 246 344.5 272.5 c 128,-1,63
211 -11 m 2,74,75
 167 -11 167 -11 144.5 -25 c 128,-1,76
 122 -39 122 -39 122 -64 c 0,77,78
 122 -98 122 -98 161.5 -116.5 c 128,-1,79
 201 -135 201 -135 279 -135 c 0,80,81
 352 -135 352 -135 393 -114 c 128,-1,82
 434 -93 434 -93 434 -62 c 0,83,84
 434 -37 434 -37 414 -24 c 128,-1,85
 394 -11 394 -11 346 -11 c 2,86,-1
 211 -11 l 2,74,75
EndSplineSet
Validated: 33
Substitution2: "'ss01' Style Set 1 lookup 47 subtable" gbreve.ss01
Substitution2: "'salt' Stylistic Alternatives lookup 42 subtable" gbreve.ss01
Substitution2: "'smcp' Lowercase to Small Capitals lookup 12 subtable" gbreve.sc
AlternateSubs2: "'aalt' Access All Alternates lookup 1 subtable" gbreve.sc gbreve.ss01
EndChar

StartChar: h
Encoding: 104 104 208
Width: 619
GlyphClass: 2
Flags: W
LayerCount: 2
Back
Fore
SplineSet
487.5 462 m 128,-1,1
 540 414 540 414 540 324 c 2,2,-1
 540 0 l 1,3,-1
 433 0 l 1,4,-1
 433 290 l 2,5,6
 433 422 433 422 326 422 c 0,7,8
 270 422 270 422 230 383 c 128,-1,9
 190 344 190 344 190 264 c 2,10,-1
 190 0 l 1,11,-1
 83 0 l 1,12,-1
 83 725 l 1,13,-1
 190 725 l 1,14,-1
 190 420 l 1,15,16
 215 466 215 466 256.5 488 c 128,-1,17
 298 510 298 510 352 510 c 0,18,0
 435 510 435 510 487.5 462 c 128,-1,1
EndSplineSet
Validated: 1
Substitution2: "'smcp' Lowercase to Small Capitals lookup 12 subtable" h.sc
Substitution2: "'aalt' Access All Alternates lookup 0 subtable" h.sc
EndChar

StartChar: i
Encoding: 105 105 209
Width: 274
GlyphClass: 2
Flags: W
LayerCount: 2
Back
Fore
SplineSet
84 601.5 m 128,-1,1
 65 619 65 619 65 651 c 256,2,3
 65 683 65 683 84 700 c 128,-1,4
 103 717 103 717 137 717 c 256,5,6
 171 717 171 717 189.5 700 c 128,-1,7
 208 683 208 683 208 651 c 256,8,9
 208 619 208 619 189.5 601.5 c 128,-1,10
 171 584 171 584 137 584 c 256,11,0
 103 584 103 584 84 601.5 c 128,-1,1
190 0 m 1,12,-1
 83 0 l 1,13,-1
 83 500 l 1,14,-1
 190 500 l 1,15,-1
 190 0 l 1,12,-1
EndSplineSet
Validated: 1
Substitution2: "'smcp' Lowercase to Small Capitals lookup 12 subtable" i.sc
Substitution2: "'locl' Localized Forms in Latin lookup 6 subtable" i.loclTRK
Substitution2: "'locl' Localized Forms in Latin lookup 5 subtable" i.loclTRK
Substitution2: "'locl' Localized Forms in Latin lookup 4 subtable" i.loclTRK
Substitution2: "'locl' Localized Forms in Latin lookup 3 subtable" i.loclTRK
Substitution2: "'locl' Localized Forms in Latin lookup 2 subtable" i.loclTRK
Substitution2: "'aalt' Access All Alternates lookup 0 subtable" i.sc
EndChar

StartChar: dotlessi
Encoding: 305 305 210
Width: 274
GlyphClass: 2
Flags: W
LayerCount: 2
Back
Fore
SplineSet
190 0 m 1,0,-1
 83 0 l 1,1,-1
 83 500 l 1,2,-1
 190 500 l 1,3,-1
 190 0 l 1,0,-1
EndSplineSet
Validated: 1
EndChar

StartChar: idieresis
Encoding: 239 239 213
Width: 274
GlyphClass: 2
Flags: W
LayerCount: 2
Back
Fore
SplineSet
5.5 591 m 128,-1,1
 -12 608 -12 608 -12 637 c 256,2,3
 -12 666 -12 666 5.5 683.5 c 128,-1,4
 23 701 23 701 52 701 c 0,5,6
 82 701 82 701 99.5 683.5 c 128,-1,7
 117 666 117 666 117 637 c 256,8,9
 117 608 117 608 99.5 591 c 128,-1,10
 82 574 82 574 52 574 c 0,11,0
 23 574 23 574 5.5 591 c 128,-1,1
174 591 m 128,-1,13
 157 608 157 608 157 637 c 0,14,15
 157 667 157 667 174.5 684 c 128,-1,16
 192 701 192 701 222 701 c 0,17,18
 251 701 251 701 268.5 683.5 c 128,-1,19
 286 666 286 666 286 637 c 256,20,21
 286 608 286 608 268.5 591 c 128,-1,22
 251 574 251 574 222 574 c 0,23,12
 191 574 191 574 174 591 c 128,-1,13
190 0 m 1,24,-1
 83 0 l 1,25,-1
 83 500 l 1,26,-1
 190 500 l 1,27,-1
 190 0 l 1,24,-1
EndSplineSet
Validated: 1
Substitution2: "'smcp' Lowercase to Small Capitals lookup 12 subtable" idieresis.sc
Substitution2: "'aalt' Access All Alternates lookup 0 subtable" idieresis.sc
EndChar

StartChar: imacron
Encoding: 299 299 217
Width: 274
GlyphClass: 2
Flags: W
LayerCount: 2
Back
Fore
SplineSet
256 588 m 1,0,-1
 18 588 l 1,1,-1
 18 666 l 1,2,-1
 256 666 l 1,3,-1
 256 588 l 1,0,-1
190 0 m 1,4,-1
 83 0 l 1,5,-1
 83 500 l 1,6,-1
 190 500 l 1,7,-1
 190 0 l 1,4,-1
EndSplineSet
Validated: 1
Substitution2: "'smcp' Lowercase to Small Capitals lookup 12 subtable" imacron.sc
Substitution2: "'aalt' Access All Alternates lookup 0 subtable" imacron.sc
EndChar

StartChar: iogonek
Encoding: 303 303 218
Width: 274
GlyphClass: 2
Flags: W
LayerCount: 2
Back
Fore
SplineSet
84 601.5 m 128,-1,1
 65 619 65 619 65 651 c 256,2,3
 65 683 65 683 84 700 c 128,-1,4
 103 717 103 717 137 717 c 256,5,6
 171 717 171 717 189.5 700 c 128,-1,7
 208 683 208 683 208 651 c 256,8,9
 208 619 208 619 189.5 601.5 c 128,-1,10
 171 584 171 584 137 584 c 256,11,0
 103 584 103 584 84 601.5 c 128,-1,1
220 -193 m 1,12,13
 186 -215 186 -215 129 -215 c 0,14,15
 73 -215 73 -215 40 -188 c 128,-1,16
 7 -161 7 -161 7 -113 c 0,17,18
 7 -45 7 -45 88 0 c 1,19,-1
 83 0 l 1,20,-1
 83 500 l 1,21,-1
 190 500 l 1,22,-1
 190 0 l 1,23,24
 134 -26 134 -26 111.5 -49 c 128,-1,25
 89 -72 89 -72 89 -99 c 0,26,27
 89 -121 89 -121 103 -134 c 128,-1,28
 117 -147 117 -147 144 -147 c 0,29,30
 178 -147 178 -147 200 -134 c 1,31,-1
 220 -193 l 1,12,13
EndSplineSet
Validated: 1
Substitution2: "'smcp' Lowercase to Small Capitals lookup 12 subtable" iogonek.sc
Substitution2: "'aalt' Access All Alternates lookup 0 subtable" iogonek.sc
EndChar

StartChar: j
Encoding: 106 106 219
Width: 273
GlyphClass: 2
Flags: W
LayerCount: 2
Back
Fore
SplineSet
188.5 699 m 128,-1,1
 208 681 208 681 208 651 c 256,2,3
 208 621 208 621 188.5 602.5 c 128,-1,4
 169 584 169 584 137 584 c 0,5,6
 104 584 104 584 84.5 602.5 c 128,-1,7
 65 621 65 621 65 651 c 256,8,9
 65 681 65 681 84.5 699 c 128,-1,10
 104 717 104 717 137 717 c 0,11,0
 169 717 169 717 188.5 699 c 128,-1,1
190 -44 m 2,12,13
 190 -133 190 -133 143.5 -174 c 128,-1,14
 97 -215 97 -215 26 -215 c 0,15,16
 -39 -215 -39 -215 -84 -182 c 1,17,-1
 -65 -96 l 1,18,19
 -31 -124 -31 -124 12 -124 c 0,20,21
 46 -124 46 -124 64.5 -103 c 128,-1,22
 83 -82 83 -82 83 -34 c 2,23,-1
 83 500 l 1,24,-1
 190 500 l 1,25,-1
 190 -44 l 2,12,13
EndSplineSet
Validated: 1
Substitution2: "'smcp' Lowercase to Small Capitals lookup 12 subtable" j.sc
Substitution2: "'aalt' Access All Alternates lookup 0 subtable" j.sc
EndChar

StartChar: k
Encoding: 107 107 220
Width: 583
GlyphClass: 2
Flags: W
AnchorPoint: "Anchor-0" 319 0 basechar 0
LayerCount: 2
Back
Fore
SplineSet
289 235 m 1,0,-1
 190 133 l 1,1,-1
 190 0 l 1,2,-1
 83 0 l 1,3,-1
 83 725 l 1,4,-1
 190 725 l 1,5,-1
 190 255 l 1,6,-1
 429 500 l 1,7,-1
 555 500 l 1,8,-1
 364 304 l 1,9,-1
 567 0 l 1,10,-1
 443 0 l 1,11,-1
 289 235 l 1,0,-1
EndSplineSet
Validated: 1
Substitution2: "'smcp' Lowercase to Small Capitals lookup 12 subtable" k.sc
Substitution2: "'aalt' Access All Alternates lookup 0 subtable" k.sc
EndChar

StartChar: l
Encoding: 108 108 221
Width: 267
GlyphClass: 2
Flags: W
AnchorPoint: "Anchor-0" 207 0 basechar 0
LayerCount: 2
Back
Fore
SplineSet
80 0 m 0,0,-1
 80 725 l 1,1,-1
 187 725 l 1,2,-1
 187 0 l 2,3,-1
 80 0 l 0,0,-1
EndSplineSet
Validated: 1
Substitution2: "'ss02' Style Set 2 lookup 48 subtable" l.ss02
Substitution2: "'salt' Stylistic Alternatives lookup 42 subtable" l.ss02
Substitution2: "'smcp' Lowercase to Small Capitals lookup 12 subtable" l.sc
AlternateSubs2: "'aalt' Access All Alternates lookup 1 subtable" l.sc l.ss02
Position2: "Single Positioning lookup 6 per glyph data 0" dx=0 dy=0 dh=-40 dv=0
EndChar

StartChar: lacute
Encoding: 314 314 222
Width: 320
GlyphClass: 2
Flags: W
AnchorPoint: "Anchor-0" 207 0 basechar 0
LayerCount: 2
Back
Fore
SplineSet
237 927 m 1,0,-1
 171 790 l 1,1,-1
 89 790 l 1,2,-1
 130 927 l 1,3,-1
 237 927 l 1,0,-1
187 146 m 2,4,5
 187 109 187 109 198 94.5 c 128,-1,6
 209 80 209 80 239 80 c 0,7,8
 258 80 258 80 271.5 82.5 c 128,-1,9
 285 85 285 85 305 93 c 1,10,-1
 293 7 l 1,11,12
 259 -10 259 -10 210 -10 c 0,13,14
 143 -10 143 -10 111.5 24 c 128,-1,15
 80 58 80 58 80 131 c 2,16,-1
 80 725 l 1,17,-1
 187 725 l 1,18,-1
 187 146 l 2,4,5
EndSplineSet
Validated: 1
Substitution2: "'ss02' Style Set 2 lookup 48 subtable" lacute.ss02
Substitution2: "'salt' Stylistic Alternatives lookup 42 subtable" lacute.ss02
Substitution2: "'smcp' Lowercase to Small Capitals lookup 12 subtable" lacute.sc
AlternateSubs2: "'aalt' Access All Alternates lookup 1 subtable" lacute.sc lacute.ss02
EndChar

StartChar: lcaron
Encoding: 318 318 223
Width: 338
GlyphClass: 2
Flags: W
AnchorPoint: "Anchor-0" 207 0 basechar 0
LayerCount: 2
Back
Fore
SplineSet
306 515 m 1,0,-1
 238 515 l 1,1,-1
 258 725 l 1,2,-1
 350 725 l 1,3,-1
 306 515 l 1,0,-1
187 146 m 2,4,5
 187 109 187 109 198 94.5 c 128,-1,6
 209 80 209 80 239 80 c 0,7,8
 258 80 258 80 271.5 82.5 c 128,-1,9
 285 85 285 85 305 93 c 1,10,-1
 293 7 l 1,11,12
 259 -10 259 -10 210 -10 c 0,13,14
 143 -10 143 -10 111.5 24 c 128,-1,15
 80 58 80 58 80 131 c 2,16,-1
 80 725 l 1,17,-1
 187 725 l 1,18,-1
 187 146 l 2,4,5
EndSplineSet
Validated: 1
Substitution2: "'ss02' Style Set 2 lookup 48 subtable" lcaron.ss02
Substitution2: "'salt' Stylistic Alternatives lookup 42 subtable" lcaron.ss02
Substitution2: "'smcp' Lowercase to Small Capitals lookup 12 subtable" lcaron.sc
AlternateSubs2: "'aalt' Access All Alternates lookup 1 subtable" lcaron.sc lcaron.ss02
EndChar

StartChar: lslash
Encoding: 322 322 225
Width: 379
GlyphClass: 2
Flags: W
AnchorPoint: "Anchor-0" 252 0 basechar 0
LayerCount: 2
Back
Fore
SplineSet
316.5 83 m 128,-1,1
 331 86 331 86 350 93 c 1,2,-1
 337 7 l 1,3,4
 305 -10 305 -10 254 -10 c 0,5,6
 188 -10 188 -10 156.5 24 c 128,-1,7
 125 58 125 58 125 131 c 2,8,-1
 125 274 l 1,9,-1
 32 214 l 1,10,-1
 32 309 l 1,11,-1
 125 364 l 1,12,-1
 125 725 l 1,13,-1
 232 725 l 1,14,-1
 232 429 l 1,15,-1
 347 503 l 1,16,-1
 347 408 l 1,17,-1
 232 340 l 1,18,-1
 232 146 l 2,19,20
 232 109 232 109 243 94.5 c 128,-1,21
 254 80 254 80 283 80 c 0,22,0
 302 80 302 80 316.5 83 c 128,-1,1
EndSplineSet
Validated: 1
Substitution2: "'ss02' Style Set 2 lookup 48 subtable" lslash.ss02
Substitution2: "'salt' Stylistic Alternatives lookup 42 subtable" lslash.ss02
Substitution2: "'smcp' Lowercase to Small Capitals lookup 12 subtable" lslash.sc
AlternateSubs2: "'aalt' Access All Alternates lookup 1 subtable" lslash.sc lslash.ss02
EndChar

StartChar: m
Encoding: 109 109 226
Width: 949
GlyphClass: 2
Flags: W
LayerCount: 2
Back
Fore
SplineSet
778 489.5 m 128,-1,1
 820 469 820 469 845 427 c 128,-1,2
 870 385 870 385 870 324 c 2,3,-1
 870 0 l 1,4,-1
 763 0 l 1,5,-1
 763 307 l 2,6,7
 763 366 763 366 735 394 c 128,-1,8
 707 422 707 422 660 422 c 0,9,10
 605 422 605 422 567.5 382 c 128,-1,11
 530 342 530 342 530 272 c 2,12,-1
 530 0 l 1,13,-1
 423 0 l 1,14,-1
 423 307 l 2,15,16
 423 366 423 366 395 394 c 128,-1,17
 367 422 367 422 320 422 c 0,18,19
 288 422 288 422 258 405.5 c 128,-1,20
 228 389 228 389 209 354 c 128,-1,21
 190 319 190 319 190 266 c 2,22,-1
 190 0 l 1,23,-1
 83 0 l 1,24,-1
 83 500 l 1,25,-1
 178 500 l 1,26,-1
 183 417 l 1,27,28
 208 463 208 463 251 486.5 c 128,-1,29
 294 510 294 510 345 510 c 0,30,31
 401 510 401 510 446.5 484.5 c 128,-1,32
 492 459 492 459 514 410 c 1,33,34
 537 459 537 459 584.5 484.5 c 128,-1,35
 632 510 632 510 686 510 c 0,36,0
 736 510 736 510 778 489.5 c 128,-1,1
EndSplineSet
Validated: 1
Substitution2: "'smcp' Lowercase to Small Capitals lookup 12 subtable" m.sc
Substitution2: "'aalt' Access All Alternates lookup 0 subtable" m.sc
EndChar

StartChar: n
Encoding: 110 110 227
Width: 619
GlyphClass: 2
Flags: W
AnchorPoint: "Anchor-0" 335 0 basechar 0
LayerCount: 2
Back
Fore
SplineSet
487.5 462 m 128,-1,1
 540 414 540 414 540 324 c 2,2,-1
 540 0 l 1,3,-1
 433 0 l 1,4,-1
 433 290 l 2,5,6
 433 422 433 422 326 422 c 0,7,8
 270 422 270 422 230 383.5 c 128,-1,9
 190 345 190 345 190 265 c 2,10,-1
 190 0 l 1,11,-1
 83 0 l 1,12,-1
 83 500 l 1,13,-1
 178 500 l 1,14,-1
 183 417 l 1,15,16
 208 464 208 464 252 487 c 128,-1,17
 296 510 296 510 352 510 c 0,18,0
 435 510 435 510 487.5 462 c 128,-1,1
EndSplineSet
Validated: 1
Substitution2: "Single Substitution lookup 57 subtable" n.swsh
Substitution2: "'swsh' Swash lookup 38 subtable" n.swsh
Substitution2: "'smcp' Lowercase to Small Capitals lookup 12 subtable" n.sc
AlternateSubs2: "'aalt' Access All Alternates lookup 1 subtable" n.sc n.swsh
EndChar

StartChar: o
Encoding: 111 111 231
Width: 606
GlyphClass: 2
Flags: W
LayerCount: 2
Back
Fore
SplineSet
486 441 m 128,-1,1
 552 372 552 372 552 250 c 256,2,3
 552 128 552 128 486 59 c 128,-1,4
 420 -10 420 -10 303 -10 c 256,5,6
 186 -10 186 -10 120 59 c 128,-1,7
 54 128 54 128 54 250 c 256,8,9
 54 372 54 372 120 441 c 128,-1,10
 186 510 186 510 303 510 c 256,11,0
 420 510 420 510 486 441 c 128,-1,1
198.5 380.5 m 128,-1,13
 162 335 162 335 162 250 c 256,14,15
 162 165 162 165 198.5 119.5 c 128,-1,16
 235 74 235 74 303 74 c 256,17,18
 371 74 371 74 408 120 c 128,-1,19
 445 166 445 166 445 250 c 256,20,21
 445 334 445 334 408 380 c 128,-1,22
 371 426 371 426 303 426 c 256,23,12
 235 426 235 426 198.5 380.5 c 128,-1,13
EndSplineSet
Validated: 1
Substitution2: "Single Substitution lookup 55 subtable" ordmasculine
Substitution2: "'smcp' Lowercase to Small Capitals lookup 12 subtable" o.sc
AlternateSubs2: "'aalt' Access All Alternates lookup 1 subtable" o.sc ordmasculine
EndChar

StartChar: oslash
Encoding: 248 248 238
Width: 607
GlyphClass: 2
Flags: W
LayerCount: 2
Back
Fore
SplineSet
448 472 m 1,1,-1
 487 522 l 1,2,-1
 554 522 l 1,3,-1
 488 438 l 1,4,5
 552 369 552 369 552 250 c 0,6,7
 552 128 552 128 486 59 c 128,-1,8
 420 -10 420 -10 303 -10 c 0,9,10
 224 -10 224 -10 168 22 c 1,11,-1
 125 -34 l 1,12,-1
 58 -34 l 1,13,-1
 125 54 l 1,14,15
 54 123 54 123 54 250 c 0,16,17
 54 372 54 372 120 441 c 128,-1,18
 186 510 186 510 303 510 c 0,19,0
 389 510 389 510 448 472 c 1,1,-1
192 136 m 1,20,-1
 224 181 l 1,21,-1
 388 398 l 1,22,23
 354 426 354 426 303 426 c 0,24,25
 235 426 235 426 198.5 380.5 c 128,-1,26
 162 335 162 335 162 250 c 0,27,28
 162 180 162 180 191 136 c 1,29,-1
 192 136 l 1,20,-1
408 120 m 128,-1,31
 445 166 445 166 445 250 c 0,32,33
 445 311 445 311 420 353 c 1,34,-1
 419 353 l 1,35,-1
 390 313 l 1,36,-1
 227 96 l 1,37,38
 258 74 258 74 303 74 c 0,39,30
 371 74 371 74 408 120 c 128,-1,31
EndSplineSet
Validated: 1
Substitution2: "'smcp' Lowercase to Small Capitals lookup 12 subtable" oslash.sc
Substitution2: "'aalt' Access All Alternates lookup 0 subtable" oslash.sc
EndChar

StartChar: oe
Encoding: 339 339 240
Width: 978
GlyphClass: 2
Flags: W
LayerCount: 2
Back
Fore
SplineSet
921 217 m 1,1,-1
 555 217 l 1,2,3
 562 149 562 149 600.5 112 c 128,-1,4
 639 75 639 75 701 75 c 0,5,6
 751 75 751 75 783.5 92.5 c 128,-1,7
 816 110 816 110 828 143 c 1,8,-1
 916 106 l 1,9,10
 860 -10 860 -10 701 -10 c 0,11,12
 633 -10 633 -10 583 17 c 128,-1,13
 533 44 533 44 504 95 c 1,14,15
 474 44 474 44 423 17 c 128,-1,16
 372 -10 372 -10 303 -10 c 0,17,18
 187 -10 187 -10 120.5 59 c 128,-1,19
 54 128 54 128 54 250 c 256,20,21
 54 372 54 372 120.5 441 c 128,-1,22
 187 510 187 510 303 510 c 0,23,24
 372 510 372 510 422.5 483.5 c 128,-1,25
 473 457 473 457 503 406 c 1,26,27
 531 457 531 457 579.5 483.5 c 128,-1,28
 628 510 628 510 694 510 c 0,29,30
 767 510 767 510 819.5 479 c 128,-1,31
 872 448 872 448 899 394.5 c 128,-1,32
 926 341 926 341 926 274 c 0,33,0
 926 240 926 240 921 217 c 1,1,-1
600 391 m 128,-1,35
 565 357 565 357 556 291 c 1,36,-1
 823 291 l 1,37,38
 815 355 815 355 782.5 390 c 128,-1,39
 750 425 750 425 694 425 c 0,40,34
 635 425 635 425 600 391 c 128,-1,35
410 120.5 m 128,-1,42
 447 166 447 166 447 250 c 256,43,44
 447 334 447 334 410 379.5 c 128,-1,45
 373 425 373 425 306 425 c 0,46,47
 238 425 238 425 201 379.5 c 128,-1,48
 164 334 164 334 164 250 c 256,49,50
 164 166 164 166 201 120.5 c 128,-1,51
 238 75 238 75 306 75 c 0,52,41
 373 75 373 75 410 120.5 c 128,-1,42
EndSplineSet
Validated: 1
Substitution2: "'smcp' Lowercase to Small Capitals lookup 12 subtable" oe.sc
Substitution2: "'aalt' Access All Alternates lookup 0 subtable" oe.sc
EndChar

StartChar: p
Encoding: 112 112 241
Width: 629
GlyphClass: 2
Flags: W
LayerCount: 2
Back
Fore
SplineSet
514 441.5 m 128,-1,1
 573 373 573 373 573 251 c 256,2,3
 573 129 573 129 514 59.5 c 128,-1,4
 455 -10 455 -10 352 -10 c 0,5,6
 298 -10 298 -10 255.5 14 c 128,-1,7
 213 38 213 38 190 80 c 1,8,-1
 190 -210 l 1,9,-1
 83 -210 l 1,10,-1
 83 500 l 1,11,-1
 177 500 l 1,12,-1
 182 407 l 1,13,14
 204 454 204 454 248.5 482 c 128,-1,15
 293 510 293 510 352 510 c 0,16,0
 455 510 455 510 514 441.5 c 128,-1,1
429.5 122.5 m 128,-1,18
 466 168 466 168 466 250 c 256,19,20
 466 332 466 332 429.5 378 c 128,-1,21
 393 424 393 424 328 424 c 0,22,23
 267 424 267 424 230.5 383 c 128,-1,24
 194 342 194 342 190 269 c 1,25,-1
 190 231 l 1,26,27
 194 159 194 159 230.5 118 c 128,-1,28
 267 77 267 77 328 77 c 0,29,17
 393 77 393 77 429.5 122.5 c 128,-1,18
EndSplineSet
Validated: 1
Substitution2: "'smcp' Lowercase to Small Capitals lookup 12 subtable" p.sc
Substitution2: "'aalt' Access All Alternates lookup 0 subtable" p.sc
EndChar

StartChar: thorn
Encoding: 254 254 242
Width: 629
GlyphClass: 2
Flags: W
LayerCount: 2
Back
Fore
SplineSet
513 442 m 128,-1,1
 573 374 573 374 573 251 c 0,2,3
 573 167 573 167 544.5 108 c 128,-1,4
 516 49 516 49 466.5 19.5 c 128,-1,5
 417 -10 417 -10 352 -10 c 0,6,7
 298 -10 298 -10 256.5 11.5 c 128,-1,8
 215 33 215 33 190 71 c 1,9,-1
 190 -210 l 1,10,-1
 83 -210 l 1,11,-1
 83 725 l 1,12,-1
 190 725 l 1,13,-1
 190 426 l 1,14,15
 214 465 214 465 256 487.5 c 128,-1,16
 298 510 298 510 353 510 c 0,17,0
 453 510 453 510 513 442 c 128,-1,1
429.5 122.5 m 128,-1,19
 466 168 466 168 466 250 c 256,20,21
 466 332 466 332 429.5 378 c 128,-1,22
 393 424 393 424 328 424 c 0,23,24
 265 424 265 424 227.5 379 c 128,-1,25
 190 334 190 334 190 256 c 2,26,-1
 190 244 l 2,27,28
 190 166 190 166 227.5 121.5 c 128,-1,29
 265 77 265 77 328 77 c 0,30,18
 393 77 393 77 429.5 122.5 c 128,-1,19
EndSplineSet
Validated: 1
Substitution2: "'smcp' Lowercase to Small Capitals lookup 12 subtable" thorn.sc
Substitution2: "'aalt' Access All Alternates lookup 0 subtable" thorn.sc
EndChar

StartChar: q
Encoding: 113 113 243
Width: 630
GlyphClass: 2
Flags: W
LayerCount: 2
Back
Fore
SplineSet
547 500 m 1,0,-1
 547 -210 l 1,1,-1
 440 -210 l 1,2,-1
 440 81 l 1,3,4
 417 39 417 39 375 14.5 c 128,-1,5
 333 -10 333 -10 279 -10 c 0,6,7
 176 -10 176 -10 116.5 59.5 c 128,-1,8
 57 129 57 129 57 251 c 256,9,10
 57 373 57 373 116 441.5 c 128,-1,11
 175 510 175 510 278 510 c 0,12,13
 337 510 337 510 381.5 482.5 c 128,-1,14
 426 455 426 455 448 408 c 1,15,-1
 453 500 l 1,16,-1
 547 500 l 1,0,-1
402.5 121.5 m 128,-1,18
 440 166 440 166 440 244 c 2,19,-1
 440 256 l 2,20,21
 440 334 440 334 402.5 379 c 128,-1,22
 365 424 365 424 302 424 c 0,23,24
 237 424 237 424 200.5 378 c 128,-1,25
 164 332 164 332 164 250 c 256,26,27
 164 168 164 168 200.5 122.5 c 128,-1,28
 237 77 237 77 302 77 c 0,29,17
 365 77 365 77 402.5 121.5 c 128,-1,18
EndSplineSet
Validated: 1
Substitution2: "'smcp' Lowercase to Small Capitals lookup 12 subtable" q.sc
Substitution2: "'aalt' Access All Alternates lookup 0 subtable" q.sc
EndChar

StartChar: r
Encoding: 114 114 244
Width: 414
GlyphClass: 2
Flags: W
AnchorPoint: "Anchor-0" 152 0 basechar 0
LayerCount: 2
Back
Fore
SplineSet
396 500 m 1,1,-1
 379 402 l 1,2,3
 356 415 356 415 316 415 c 0,4,5
 284 415 284 415 255.5 398 c 128,-1,6
 227 381 227 381 208.5 347 c 128,-1,7
 190 313 190 313 190 265 c 2,8,-1
 190 0 l 1,9,-1
 83 0 l 1,10,-1
 83 500 l 1,11,-1
 174 500 l 1,12,-1
 183 410 l 1,13,14
 225 510 225 510 341 510 c 0,15,0
 376 510 376 510 396 500 c 1,1,-1
EndSplineSet
Validated: 1
Substitution2: "Single Substitution lookup 57 subtable" r.swsh
Substitution2: "'swsh' Swash lookup 38 subtable" r.swsh
Substitution2: "'smcp' Lowercase to Small Capitals lookup 12 subtable" r.sc
AlternateSubs2: "'aalt' Access All Alternates lookup 1 subtable" r.sc r.swsh
EndChar

StartChar: s
Encoding: 115 115 247
Width: 529
GlyphClass: 2
Flags: W
AnchorPoint: "Anchor-0" 278 0 basechar 0
LayerCount: 2
Back
Fore
SplineSet
129.5 16 m 128,-1,1
 71 42 71 42 41 95 c 1,2,-1
 113 157 l 1,3,4
 132 114 132 114 172 94 c 128,-1,5
 212 74 212 74 268 74 c 0,6,7
 319 74 319 74 347 90.5 c 128,-1,8
 375 107 375 107 375 134 c 0,9,10
 375 158 375 158 349 172.5 c 128,-1,11
 323 187 323 187 259 200 c 0,12,13
 148 221 148 221 103 256 c 128,-1,14
 58 291 58 291 58 355 c 0,15,16
 58 396 58 396 83 431.5 c 128,-1,17
 108 467 108 467 155.5 488.5 c 128,-1,18
 203 510 203 510 268 510 c 0,19,20
 351 510 351 510 401 482.5 c 128,-1,21
 451 455 451 455 478 397 c 1,22,-1
 402 341 l 1,23,24
 384 385 384 385 351.5 405.5 c 128,-1,25
 319 426 319 426 269 426 c 0,26,27
 224 426 224 426 194.5 407.5 c 128,-1,28
 165 389 165 389 165 365 c 0,29,30
 165 338 165 338 191.5 322 c 128,-1,31
 218 306 218 306 288 293 c 0,32,33
 394 274 394 274 438 239 c 128,-1,34
 482 204 482 204 482 141 c 0,35,36
 482 74 482 74 424 32 c 128,-1,37
 366 -10 366 -10 264 -10 c 0,38,0
 188 -10 188 -10 129.5 16 c 128,-1,1
EndSplineSet
Validated: 1
Substitution2: "'hist' Historical Forms lookup 44 subtable" longs
Substitution2: "'smcp' Lowercase to Small Capitals lookup 12 subtable" s.sc
AlternateSubs2: "'aalt' Access All Alternates lookup 1 subtable" s.sc longs
EndChar

StartChar: germandbls
Encoding: 223 223 250
Width: 628
GlyphClass: 2
Flags: W
LayerCount: 2
Back
Fore
SplineSet
495.5 356 m 128,-1,1
 537 329 537 329 556.5 285.5 c 128,-1,2
 576 242 576 242 576 193 c 0,3,4
 576 139 576 139 551 92.5 c 128,-1,5
 526 46 526 46 476 18 c 128,-1,6
 426 -10 426 -10 355 -10 c 0,7,8
 321 -10 321 -10 291 -0.5 c 128,-1,9
 261 9 261 9 245 23 c 1,10,-1
 269 102 l 1,11,12
 297 78 297 78 349 78 c 0,13,14
 408 78 408 78 440.5 113 c 128,-1,15
 473 148 473 148 473 206 c 0,16,17
 473 268 473 268 433.5 300 c 128,-1,18
 394 332 394 332 319 332 c 2,19,-1
 277 332 l 1,20,-1
 282 421 l 1,21,-1
 319 421 l 2,22,23
 378 421 378 421 412 452.5 c 128,-1,24
 446 484 446 484 446 534 c 0,25,26
 446 587 446 587 415 613.5 c 128,-1,27
 384 640 384 640 325 640 c 0,28,29
 250 640 250 640 220 598 c 128,-1,30
 190 556 190 556 190 465 c 2,31,-1
 190 0 l 1,32,-1
 83 0 l 1,33,-1
 83 486 l 2,34,35
 83 602 83 602 141 666 c 128,-1,36
 199 730 199 730 331 730 c 0,37,38
 406 730 406 730 456 702.5 c 128,-1,39
 506 675 506 675 529.5 632 c 128,-1,40
 553 589 553 589 553 541 c 0,41,42
 553 504 553 504 535 468 c 128,-1,43
 517 432 517 432 480.5 408.5 c 128,-1,44
 444 385 444 385 391 385 c 1,45,-1
 391 383 l 1,46,0
 454 383 454 383 495.5 356 c 128,-1,1
EndSplineSet
Validated: 1
Substitution2: "Single Substitution lookup 57 subtable" germandbls.calt
Substitution2: "'smcp' Lowercase to Small Capitals lookup 12 subtable" germandbls.sc
AlternateSubs2: "'aalt' Access All Alternates lookup 1 subtable" germandbls.sc germandbls.calt
EndChar

StartChar: longs
Encoding: 383 383 251
Width: 280
GlyphClass: 2
Flags: W
LayerCount: 2
Back
Fore
SplineSet
80 572 m 2,0,1
 80 649 80 649 118.5 690.5 c 128,-1,2
 157 732 157 732 232 732 c 0,3,4
 289 732 289 732 315 709 c 1,5,-1
 300 631 l 1,6,7
 283 645 283 645 256 645 c 0,8,9
 186 645 186 645 186 563 c 2,10,-1
 186 0 l 1,11,-1
 80 0 l 1,12,-1
 80 572 l 2,0,1
EndSplineSet
Validated: 1
EndChar

StartChar: t
Encoding: 116 116 252
Width: 424
GlyphClass: 2
Flags: W
AnchorPoint: "Anchor-0" 255 0 basechar 0
LayerCount: 2
Back
Fore
SplineSet
26 440 m 1,0,-1
 228 647 l 1,1,-1
 228 500 l 1,2,-1
 403 500 l 1,3,-1
 403 416 l 1,4,-1
 228 416 l 1,5,-1
 228 150 l 2,6,7
 228 114 228 114 247.5 96.5 c 128,-1,8
 267 79 267 79 301 79 c 0,9,10
 347 79 347 79 382 111 c 1,11,12
 407 33 l 1,13,14
 383 13 383 13 348.5 1.5 c 128,-1,15
 314 -10 314 -10 274 -10 c 0,16,17
 205 -10 205 -10 163.5 24.5 c 0,18,19
 121 60 121 60 121 132 c 2,20,-1
 121 416 l 1,21,-1
 26 416 l 1,22,-1
 26 440 l 1,0,-1
EndSplineSet
Validated: 1
Substitution2: "Single Substitution lookup 57 subtable" t.swsh
Substitution2: "'swsh' Swash lookup 38 subtable" t.swsh
Substitution2: "'smcp' Lowercase to Small Capitals lookup 12 subtable" t.sc
AlternateSubs2: "'aalt' Access All Alternates lookup 1 subtable" t.sc t.swsh
EndChar

StartChar: tcaron
Encoding: 357 357 253
Width: 424
GlyphClass: 2
Flags: W
AnchorPoint: "Anchor-0" 255 0 basechar 0
LayerCount: 2
Back
Fore
SplineSet
353 563 m 1,0,-1
 285 563 l 1,1,-1
 305 767 l 1,2,-1
 397 767 l 1,3,-1
 353 563 l 1,0,-1
407 33 m 1,4,5
 383 13 383 13 348.5 1.5 c 128,-1,6
 314 -10 314 -10 274 -10 c 0,7,8
 205 -10 205 -10 163.5 24.5 c 128,-1,9
 122 59 122 59 121 132 c 2,10,-1
 121 416 l 1,11,-1
 26 416 l 1,12,-1
 26 500 l 1,13,-1
 121 500 l 1,14,-1
 121 617 l 1,15,-1
 228 647 l 1,16,-1
 228 500 l 1,17,-1
 403 500 l 1,18,-1
 403 416 l 1,19,-1
 228 416 l 1,20,-1
 228 150 l 2,21,22
 228 114 228 114 247.5 96.5 c 128,-1,23
 267 79 267 79 301 79 c 0,24,25
 347 79 347 79 382 111 c 1,26,-1
 407 33 l 1,4,5
EndSplineSet
Validated: 1
Substitution2: "Single Substitution lookup 57 subtable" tcaron.swsh
Substitution2: "'swsh' Swash lookup 38 subtable" tcaron.swsh
Substitution2: "'smcp' Lowercase to Small Capitals lookup 12 subtable" tcaron.sc
AlternateSubs2: "'aalt' Access All Alternates lookup 1 subtable" tcaron.sc tcaron.swsh
EndChar

StartChar: u
Encoding: 117 117 254
Width: 619
GlyphClass: 2
Flags: W
LayerCount: 2
Back
Fore
SplineSet
536 500 m 1,0,-1
 536 0 l 1,1,-1
 441 0 l 1,2,-1
 437 81 l 1,3,4
 386 -10 386 -10 259 -10 c 0,5,6
 178 -10 178 -10 128.5 34.5 c 128,-1,7
 79 79 79 79 79 171 c 2,8,-1
 79 500 l 1,9,-1
 186 500 l 1,10,-1
 186 199 l 2,11,12
 186 133 186 133 212 105.5 c 128,-1,13
 238 78 238 78 289 78 c 0,14,15
 350 78 350 78 389.5 116.5 c 128,-1,16
 429 155 429 155 429 230 c 2,17,-1
 429 500 l 1,18,-1
 536 500 l 1,0,-1
EndSplineSet
Validated: 1
Substitution2: "'smcp' Lowercase to Small Capitals lookup 12 subtable" u.sc
Substitution2: "'aalt' Access All Alternates lookup 0 subtable" u.sc
EndChar

StartChar: uni0123
Encoding: 291 291 261
Width: 540
GlyphClass: 2
Flags: W
LayerCount: 2
Back
Fore
SplineSet
325 580 m 1,0,-1
 221 580 l 1,1,-1
 291 776 l 1,2,-1
 365 776 l 1,3,-1
 325 580 l 1,0,-1
492 44 m 128,-1,5
 534 10 534 10 534 -50 c 0,6,7
 534 -101 534 -101 500.5 -138 c 128,-1,8
 467 -175 467 -175 408.5 -195 c 128,-1,9
 350 -215 350 -215 277 -215 c 0,10,11
 158 -215 158 -215 98.5 -180 c 128,-1,12
 39 -145 39 -145 39 -87 c 0,13,14
 39 -53 39 -53 62.5 -27.5 c 128,-1,15
 86 -2 86 -2 128 9 c 1,16,17
 96 24 96 24 77 47.5 c 128,-1,18
 58 71 58 71 58 104 c 0,19,20
 58 177 58 177 136 204 c 1,21,22
 98 226 98 226 78.5 261 c 128,-1,23
 59 296 59 296 59 341 c 0,24,25
 59 391 59 391 86 429.5 c 128,-1,26
 113 468 113 468 162.5 489 c 128,-1,27
 212 510 212 510 276 510 c 0,28,29
 331 510 331 510 377 494 c 1,30,31
 391 549 391 549 427.5 577.5 c 128,-1,32
 464 606 464 606 524 605 c 1,33,-1
 542 522 l 1,34,35
 494 523 494 523 464.5 510 c 128,-1,36
 435 497 435 497 424 471 c 1,37,38
 457 448 457 448 475 415 c 128,-1,39
 493 382 493 382 493 341 c 0,40,41
 493 264 493 264 433.5 218 c 128,-1,42
 374 172 374 172 276 172 c 0,43,44
 230 172 230 172 193 181 c 1,45,46
 168 175 168 175 156.5 161.5 c 128,-1,47
 145 148 145 148 145 126 c 0,48,49
 145 103 145 103 161.5 90.5 c 128,-1,50
 178 78 178 78 207 78 c 2,51,-1
 374 78 l 2,52,4
 450 78 450 78 492 44 c 128,-1,5
199 408.5 m 128,-1,54
 168 382 168 382 168 341 c 0,55,56
 168 299 168 299 199 272.5 c 128,-1,57
 230 246 230 246 276 246 c 0,58,59
 323 246 323 246 353.5 272.5 c 128,-1,60
 384 299 384 299 384 341 c 256,61,62
 384 383 384 383 353.5 409 c 128,-1,63
 323 435 323 435 276 435 c 0,64,53
 230 435 230 435 199 408.5 c 128,-1,54
401 -114 m 128,-1,66
 442 -93 442 -93 442 -62 c 0,67,68
 442 -37 442 -37 422 -24 c 128,-1,69
 402 -11 402 -11 355 -11 c 2,70,-1
 220 -11 l 2,71,72
 175 -11 175 -11 152.5 -25 c 128,-1,73
 130 -39 130 -39 130 -64 c 0,74,75
 130 -98 130 -98 169.5 -116.5 c 128,-1,76
 209 -135 209 -135 287 -135 c 0,77,65
 360 -135 360 -135 401 -114 c 128,-1,66
EndSplineSet
Validated: 33
Substitution2: "'ss01' Style Set 1 lookup 47 subtable" gcommaaccent.ss01
Substitution2: "'salt' Stylistic Alternatives lookup 42 subtable" gcommaaccent.ss01
Substitution2: "'aalt' Access All Alternates lookup 0 subtable" gcommaaccent.ss01
EndChar

StartChar: uni015F
Encoding: 351 351 266
Width: 529
GlyphClass: 2
Flags: W
AnchorPoint: "Anchor-0" 278 0 basechar 0
LayerCount: 2
Back
Fore
SplineSet
442.5 47.5 m 128,-1,1
 403 9 403 9 332 -4 c 1,2,3
 360 -25 360 -25 374.5 -51 c 128,-1,4
 389 -77 389 -77 389 -105 c 0,5,6
 389 -153 389 -153 355 -184 c 128,-1,7
 321 -215 321 -215 265 -215 c 0,8,9
 226 -215 226 -215 198.5 -206 c 128,-1,10
 171 -197 171 -197 150 -178 c 1,11,-1
 183 -116 l 1,12,13
 196 -129 196 -129 214 -137.5 c 128,-1,14
 232 -146 232 -146 253 -146 c 0,15,16
 277 -146 277 -146 293 -130.5 c 128,-1,17
 309 -115 309 -115 309 -90 c 0,18,19
 309 -64 309 -64 293.5 -45.5 c 128,-1,20
 278 -27 278 -27 237 -9 c 1,21,22
 171 -5 171 -5 120 21 c 128,-1,23
 69 47 69 47 41 95 c 1,24,-1
 113 157 l 1,25,26
 132 114 132 114 172 94 c 128,-1,27
 212 74 212 74 268 74 c 0,28,29
 319 74 319 74 347 90.5 c 128,-1,30
 375 107 375 107 375 134 c 0,31,32
 375 158 375 158 349 172.5 c 128,-1,33
 323 187 323 187 259 200 c 0,34,35
 148 221 148 221 103 256 c 128,-1,36
 58 291 58 291 58 355 c 0,37,38
 58 396 58 396 83 431.5 c 128,-1,39
 108 467 108 467 155.5 488.5 c 128,-1,40
 203 510 203 510 268 510 c 0,41,42
 351 510 351 510 401 482.5 c 128,-1,43
 451 455 451 455 478 397 c 1,44,-1
 402 341 l 1,45,46
 384 385 384 385 351.5 405.5 c 128,-1,47
 319 426 319 426 269 426 c 0,48,49
 224 426 224 426 194.5 407.5 c 128,-1,50
 165 389 165 389 165 365 c 0,51,52
 165 338 165 338 191.5 322 c 128,-1,53
 218 306 218 306 288 293 c 0,54,55
 394 274 394 274 438 239 c 128,-1,56
 482 204 482 204 482 141 c 0,57,0
 482 86 482 86 442.5 47.5 c 128,-1,1
EndSplineSet
Validated: 1
Substitution2: "'locl' Localized Forms in Latin lookup 8 subtable" uni0219
Substitution2: "'locl' Localized Forms in Latin lookup 7 subtable" uni0219
EndChar

StartChar: uni0163
Encoding: 355 355 267
Width: 440
GlyphClass: 2
Flags: W
AnchorPoint: "Anchor-0" 255 0 basechar 0
LayerCount: 2
Back
Fore
SplineSet
372 -105 m 0,1,2
 372 -153 372 -153 338 -184 c 128,-1,3
 304 -215 304 -215 247 -215 c 0,4,5
 174 -215 174 -215 133 -179 c 1,6,-1
 166 -116 l 1,7,8
 179 -129 179 -129 197 -137.5 c 128,-1,9
 215 -146 215 -146 235 -146 c 0,10,11
 260 -146 260 -146 276 -130.5 c 128,-1,12
 292 -115 292 -115 292 -90 c 0,13,14
 292 -62 292 -62 275 -42.5 c 128,-1,15
 258 -23 258 -23 212 -2 c 1,16,17
 122 26 122 26 121 132 c 2,18,-1
 121 416 l 1,19,-1
 26 416 l 1,20,-1
 26 500 l 1,21,-1
 121 500 l 1,22,-1
 121 617 l 1,23,-1
 228 647 l 1,24,-1
 228 500 l 1,25,-1
 403 500 l 1,26,-1
 403 416 l 1,27,-1
 228 416 l 1,28,-1
 228 150 l 2,29,30
 228 114 228 114 247.5 96.5 c 128,-1,31
 267 79 267 79 301 79 c 0,32,33
 347 79 347 79 382 111 c 1,34,-1
 407 33 l 1,35,36
 370 3 370 3 318 -6 c 1,37,0
 372 -48 372 -48 372 -105 c 0,1,2
EndSplineSet
Validated: 1
Substitution2: "Single Substitution lookup 57 subtable" uni0163.swsh
Substitution2: "'swsh' Swash lookup 38 subtable" uni0163.swsh
Substitution2: "'locl' Localized Forms in Latin lookup 8 subtable" uni021B
Substitution2: "'locl' Localized Forms in Latin lookup 7 subtable" uni021B
Substitution2: "'aalt' Access All Alternates lookup 0 subtable" uni0163.swsh
EndChar

StartChar: uogonek
Encoding: 371 371 270
Width: 619
GlyphClass: 2
Flags: W
LayerCount: 2
Back
Fore
SplineSet
545 -194 m 1,0,1
 529 -204 529 -204 506 -209.5 c 128,-1,2
 483 -215 483 -215 458 -215 c 0,3,4
 403 -215 403 -215 373.5 -189 c 128,-1,5
 344 -163 344 -163 344 -117 c 0,6,7
 344 -76 344 -76 369 -46.5 c 128,-1,8
 394 -17 394 -17 445 6 c 1,9,-1
 435 92 l 1,10,11
 408 44 408 44 360.5 17 c 128,-1,12
 313 -10 313 -10 259 -10 c 0,13,14
 178 -10 178 -10 128.5 34.5 c 128,-1,15
 79 79 79 79 79 171 c 2,16,-1
 79 500 l 1,17,-1
 186 500 l 1,18,-1
 186 199 l 2,19,20
 186 133 186 133 211.5 105.5 c 128,-1,21
 237 78 237 78 285 78 c 0,22,23
 324 78 324 78 357 97 c 128,-1,24
 390 116 390 116 409.5 152 c 128,-1,25
 429 188 429 188 429 237 c 2,26,-1
 429 500 l 1,27,-1
 536 500 l 1,28,-1
 536 0 l 1,29,30
 475 -27 475 -27 448.5 -50 c 128,-1,31
 422 -73 422 -73 422 -100 c 0,32,33
 422 -146 422 -146 475 -146 c 0,34,35
 510 -146 510 -146 527 -134 c 1,36,-1
 545 -194 l 1,0,1
EndSplineSet
Validated: 1
Substitution2: "'smcp' Lowercase to Small Capitals lookup 12 subtable" uogonek.sc
Substitution2: "'aalt' Access All Alternates lookup 0 subtable" uogonek.sc
EndChar

StartChar: v
Encoding: 118 118 272
Width: 532
GlyphClass: 2
Flags: W
LayerCount: 2
Back
Fore
SplineSet
524 500 m 1,0,-1
 325 0 l 1,1,-1
 208 0 l 1,2,-1
 8 500 l 1,3,-1
 126 500 l 1,4,-1
 267 87 l 1,5,-1
 412 500 l 1,6,-1
 524 500 l 1,0,-1
EndSplineSet
Validated: 1
Substitution2: "'smcp' Lowercase to Small Capitals lookup 12 subtable" v.sc
Substitution2: "'aalt' Access All Alternates lookup 0 subtable" v.sc
EndChar

StartChar: w
Encoding: 119 119 273
Width: 871
GlyphClass: 2
Flags: W
LayerCount: 2
Back
Fore
SplineSet
843 500 m 1,0,-1
 676 0 l 1,1,-1
 559 0 l 1,2,-1
 433 378 l 1,3,-1
 313 0 l 1,4,-1
 196 0 l 1,5,-1
 29 500 l 1,6,-1
 145 500 l 1,7,-1
 258 100 l 1,8,-1
 383 500 l 1,9,-1
 489 500 l 1,10,-1
 613 100 l 1,11,-1
 727 500 l 1,12,-1
 843 500 l 1,0,-1
EndSplineSet
Validated: 1
Substitution2: "'smcp' Lowercase to Small Capitals lookup 12 subtable" w.sc
Substitution2: "'aalt' Access All Alternates lookup 0 subtable" w.sc
EndChar

StartChar: x
Encoding: 120 120 274
Width: 550
GlyphClass: 2
Flags: W
LayerCount: 2
Back
Fore
SplineSet
399 0 m 1,0,-1
 273 188 l 1,1,-1
 143 0 l 1,2,-1
 22 0 l 1,3,-1
 210 252 l 1,4,-1
 32 500 l 1,5,-1
 160 500 l 1,6,-1
 280 319 l 1,7,-1
 399 500 l 1,8,-1
 522 500 l 1,9,-1
 343 255 l 1,10,-1
 525 0 l 1,11,-1
 399 0 l 1,0,-1
EndSplineSet
Validated: 1
Substitution2: "'smcp' Lowercase to Small Capitals lookup 12 subtable" x.sc
Substitution2: "'aalt' Access All Alternates lookup 0 subtable" x.sc
EndChar

StartChar: y
Encoding: 121 121 275
Width: 546
GlyphClass: 2
Flags: W
LayerCount: 2
Back
Fore
SplineSet
142 -226 m 4,0,-1
 233 -3 l 1,1,-1
 181 121 l 1,2,-1
 25 500 l 1,3,-1
 145 500 l 1,4,-1
 255 186 l 1,5,-1
 284 92 l 1,6,-1
 318 195 l 1,7,-1
 422 500 l 1,8,-1
 533 500 l 1,9,-1
 252 -226 l 6,10,-1
 142 -226 l 4,0,-1
EndSplineSet
Validated: 1
Substitution2: "Single Substitution lookup 57 subtable" y.swsh
Substitution2: "'swsh' Swash lookup 38 subtable" y.swsh
Substitution2: "'smcp' Lowercase to Small Capitals lookup 12 subtable" y.sc
AlternateSubs2: "'aalt' Access All Alternates lookup 1 subtable" y.sc y.swsh
EndChar

StartChar: z
Encoding: 122 122 278
Width: 528
GlyphClass: 2
Flags: W
LayerCount: 2
Back
Fore
SplineSet
51 74 m 1,0,-1
 294 356 l 1,1,-1
 354 418 l 1,2,-1
 268 416 l 1,3,-1
 53 416 l 1,4,-1
 53 500 l 1,5,-1
 472 500 l 1,6,-1
 472 426 l 1,7,-1
 230 144 l 1,8,-1
 170 82 l 1,9,-1
 265 84 l 1,10,-1
 481 84 l 1,11,-1
 481 0 l 1,12,-1
 51 0 l 1,13,-1
 51 74 l 1,0,-1
EndSplineSet
Validated: 1
Substitution2: "'smcp' Lowercase to Small Capitals lookup 12 subtable" z.sc
Substitution2: "'aalt' Access All Alternates lookup 0 subtable" z.sc
EndChar

StartChar: longs.component
Encoding: 65609 -1 283
Width: 266
GlyphClass: 2
Flags: W
LayerCount: 2
Back
Fore
SplineSet
80 572 m 2,0,1
 80 650 80 650 114 691 c 128,-1,2
 148 732 148 732 222 732 c 0,3,4
 262 732 262 732 283 716 c 1,5,-1
 275 632 l 1,6,7
 261 645 261 645 241 645 c 0,8,9
 186 645 186 645 186 567 c 2,10,-1
 186 0 l 1,11,-1
 80 0 l 1,12,-1
 80 572 l 2,0,1
EndSplineSet
Validated: 1
EndChar

StartChar: iacute_j.loclNLD
Encoding: 65610 -1 284
Width: 547
GlyphClass: 2
Flags: W
LayerCount: 2
Back
Fore
SplineSet
269 746 m 1,0,-1
 170 578 l 1,1,-1
 88 578 l 1,2,-1
 161 746 l 1,3,-1
 269 746 l 1,0,-1
543 746 m 1,4,-1
 444 578 l 1,5,-1
 362 578 l 1,6,-1
 435 746 l 1,7,-1
 543 746 l 1,4,-1
190 0 m 1,8,-1
 83 0 l 1,9,-1
 83 500 l 1,10,-1
 190 500 l 1,11,-1
 190 0 l 1,8,-1
464 -44 m 2,12,13
 464 -133 464 -133 417 -174 c 128,-1,14
 370 -215 370 -215 299 -215 c 0,15,16
 233 -215 233 -215 190 -182 c 1,17,-1
 209 -96 l 1,18,19
 243 -124 243 -124 285 -124 c 0,20,21
 357 -124 357 -124 357 -34 c 2,22,-1
 357 500 l 1,23,-1
 464 500 l 1,24,-1
 464 -44 l 2,12,13
EndSplineSet
Validated: 1
Substitution2: "'smcp' Lowercase to Small Capitals lookup 12 subtable" iacute_j.loclNLD.sc
Ligature2: "'locl' Localized Forms in Latin lookup 9 subtable" iacute j
Substitution2: "'aalt' Access All Alternates lookup 0 subtable" iacute_j.loclNLD.sc
EndChar

StartChar: g.ss01
Encoding: 65611 -1 285
Width: 629
GlyphClass: 2
Flags: W
LayerCount: 2
Back
Fore
SplineSet
546 500 m 1,0,-1
 546 40 l 2,1,2
 546 -215 546 -215 284 -215 c 0,3,4
 198 -215 198 -215 141 -183.5 c 128,-1,5
 84 -152 84 -152 71 -85 c 1,6,-1
 173 -49 l 1,7,8
 181 -92 181 -92 211 -113 c 128,-1,9
 241 -134 241 -134 298 -134 c 0,10,11
 360 -134 360 -134 399 -93 c 128,-1,12
 438 -52 438 -52 438 15 c 2,13,-1
 438 82 l 1,14,15
 413 46 413 46 371.5 25 c 128,-1,16
 330 4 330 4 277 4 c 0,17,18
 174 4 174 4 114.5 71 c 128,-1,19
 55 138 55 138 55 257 c 256,20,21
 55 376 55 376 114.5 443 c 128,-1,22
 174 510 174 510 277 510 c 0,23,24
 335 510 335 510 379 485.5 c 128,-1,25
 423 461 423 461 446 418 c 1,26,-1
 455 500 l 1,27,-1
 546 500 l 1,0,-1
401 134 m 128,-1,29
 438 177 438 177 438 252 c 2,30,-1
 438 263 l 2,31,32
 438 337 438 337 401 380 c 128,-1,33
 364 423 364 423 301 423 c 0,34,35
 236 423 236 423 199.5 379 c 128,-1,36
 163 335 163 335 163 257 c 256,37,38
 163 179 163 179 199.5 135 c 128,-1,39
 236 91 236 91 301 91 c 0,40,28
 364 91 364 91 401 134 c 128,-1,29
EndSplineSet
Validated: 1
EndChar

StartChar: gcommaaccent.ss01
Encoding: 65613 -1 287
Width: 629
GlyphClass: 2
Flags: W
LayerCount: 2
Back
Fore
SplineSet
368 580 m 1,0,-1
 264 580 l 1,1,-1
 334 776 l 1,2,-1
 409 776 l 1,3,-1
 368 580 l 1,0,-1
546 500 m 1,4,-1
 546 40 l 2,5,6
 546 -215 546 -215 284 -215 c 0,7,8
 198 -215 198 -215 141 -183.5 c 128,-1,9
 84 -152 84 -152 71 -85 c 1,10,-1
 173 -49 l 1,11,12
 181 -92 181 -92 211 -113 c 128,-1,13
 241 -134 241 -134 298 -134 c 0,14,15
 360 -134 360 -134 399 -93 c 128,-1,16
 438 -52 438 -52 438 15 c 2,17,-1
 438 82 l 1,18,19
 413 46 413 46 371.5 25 c 128,-1,20
 330 4 330 4 277 4 c 0,21,22
 174 4 174 4 114.5 71 c 128,-1,23
 55 138 55 138 55 257 c 256,24,25
 55 376 55 376 114.5 443 c 128,-1,26
 174 510 174 510 277 510 c 0,27,28
 335 510 335 510 379 485.5 c 128,-1,29
 423 461 423 461 446 418 c 1,30,-1
 455 500 l 1,31,-1
 546 500 l 1,4,-1
401 134 m 128,-1,33
 438 177 438 177 438 252 c 2,34,-1
 438 263 l 2,35,36
 438 337 438 337 401 380 c 128,-1,37
 364 423 364 423 301 423 c 0,38,39
 236 423 236 423 199.5 379 c 128,-1,40
 163 335 163 335 163 257 c 256,41,42
 163 179 163 179 199.5 135 c 128,-1,43
 236 91 236 91 301 91 c 0,44,32
 364 91 364 91 401 134 c 128,-1,33
EndSplineSet
Validated: 1
EndChar

StartChar: l.ss02
Encoding: 65614 -1 288
Width: 277
GlyphClass: 2
Flags: W
AnchorPoint: "Anchor-0" 148 0 basechar 0
LayerCount: 2
Back
Fore
SplineSet
192 0 m 1,0,-1
 85 0 l 1,1,-1
 85 725 l 1,2,-1
 192 725 l 1,3,-1
 192 0 l 1,0,-1
EndSplineSet
Validated: 1
EndChar

StartChar: lacute.ss02
Encoding: 65615 -1 289
Width: 277
GlyphClass: 2
Flags: W
AnchorPoint: "Anchor-0" 148 0 basechar 0
LayerCount: 2
Back
Fore
SplineSet
239 927 m 1,0,-1
 172 790 l 1,1,-1
 91 790 l 1,2,-1
 132 927 l 1,3,-1
 239 927 l 1,0,-1
192 0 m 1,4,-1
 85 0 l 1,5,-1
 85 725 l 1,6,-1
 192 725 l 1,7,-1
 192 0 l 1,4,-1
EndSplineSet
Validated: 1
EndChar

StartChar: lcaron.ss02
Encoding: 65616 -1 290
Width: 309
GlyphClass: 2
Flags: W
AnchorPoint: "Anchor-0" 148 0 basechar 0
LayerCount: 2
Back
Fore
SplineSet
314 515 m 1,0,-1
 246 515 l 1,1,-1
 267 725 l 1,2,-1
 359 725 l 1,3,-1
 314 515 l 1,0,-1
192 0 m 1,4,-1
 85 0 l 1,5,-1
 85 725 l 1,6,-1
 192 725 l 1,7,-1
 192 0 l 1,4,-1
EndSplineSet
Validated: 1
EndChar

StartChar: lslash.ss02
Encoding: 65619 -1 293
Width: 331
GlyphClass: 2
Flags: W
AnchorPoint: "Anchor-0" 176 0 basechar 0
LayerCount: 2
Back
Fore
SplineSet
299 390 m 1,0,-1
 220 343 l 1,1,-1
 220 0 l 1,2,-1
 113 0 l 1,3,-1
 113 276 l 1,4,-1
 34 225 l 1,5,-1
 34 318 l 1,6,-1
 113 366 l 1,7,-1
 113 725 l 1,8,-1
 220 725 l 1,9,-1
 220 433 l 1,10,-1
 299 484 l 1,11,-1
 299 390 l 1,0,-1
EndSplineSet
Validated: 1
EndChar

StartChar: n.swsh
Encoding: 65620 -1 294
Width: 628
GlyphClass: 2
Flags: W
AnchorPoint: "Anchor-0" 326 0 basechar 0
LayerCount: 2
Back
Fore
SplineSet
633 -6 m 1,1,-1
 621 -78 l 1,2,3
 605 -87 605 -87 589.5 -90.5 c 128,-1,4
 574 -94 574 -94 548 -94 c 0,5,6
 494 -94 494 -94 463.5 -60.5 c 128,-1,7
 433 -27 433 -27 433 32 c 2,8,-1
 433 290 l 2,9,10
 433 422 433 422 326 422 c 0,11,12
 270 422 270 422 230 383.5 c 128,-1,13
 190 345 190 345 190 265 c 2,14,-1
 190 0 l 1,15,-1
 83 0 l 1,16,-1
 83 500 l 1,17,-1
 178 500 l 1,18,-1
 183 417 l 1,19,20
 208 464 208 464 252 487 c 128,-1,21
 296 510 296 510 352 510 c 0,22,23
 435 510 435 510 487.5 462 c 128,-1,24
 540 414 540 414 540 324 c 2,25,-1
 540 37 l 2,26,27
 540 10 540 10 552.5 -2.5 c 128,-1,28
 565 -15 565 -15 586 -15 c 0,29,0
 612 -15 612 -15 633 -6 c 1,1,-1
EndSplineSet
Validated: 1
EndChar

StartChar: r.swsh
Encoding: 65625 -1 299
Width: 527
GlyphClass: 2
Flags: W
AnchorPoint: "Anchor-0" 152 0 basechar 0
LayerCount: 2
Back
Fore
SplineSet
395.5 500.5 m 128,-1,1
 421 491 421 491 452 472 c 0,2,3
 477 458 477 458 494 450 c 128,-1,4
 511 442 511 442 536 438 c 1,5,-1
 482 359 l 1,6,7
 462 364 462 364 446.5 370.5 c 128,-1,8
 431 377 431 377 410 388 c 0,9,10
 387 402 387 402 367.5 409 c 128,-1,11
 348 416 348 416 322 416 c 0,12,13
 266 416 266 416 228 374.5 c 128,-1,14
 190 333 190 333 190 261 c 2,15,-1
 190 0 l 1,16,-1
 83 0 l 1,17,-1
 83 500 l 1,18,-1
 174 500 l 1,19,-1
 183 410 l 1,20,21
 203 460 203 460 241 485 c 128,-1,22
 279 510 279 510 329 510 c 0,23,0
 370 510 370 510 395.5 500.5 c 128,-1,1
EndSplineSet
Validated: 1
EndChar

StartChar: t.swsh
Encoding: 65629 -1 303
Width: 462
GlyphClass: 2
Flags: W
AnchorPoint: "Anchor-0" 255 0 basechar 0
LayerCount: 2
Back
Fore
SplineSet
228 416 m 1,0,-1
 228 150 l 2,1,2
 228 114 228 114 247.5 96.5 c 128,-1,3
 267 79 267 79 301 79 c 0,4,5
 347 79 347 79 382 111 c 1,6,-1
 407 33 l 1,7,8
 383 13 383 13 348.5 1.5 c 128,-1,9
 314 -10 314 -10 274 -10 c 0,10,11
 205 -10 205 -10 163.5 24.5 c 128,-1,12
 122 59 122 59 121 132 c 2,13,-1
 121 416 l 1,14,-1
 26 416 l 1,15,-1
 26 500 l 1,16,-1
 121 500 l 1,17,-1
 121 617 l 1,18,-1
 228 647 l 1,19,-1
 228 500 l 1,20,-1
 365 500 l 2,21,22
 425 500 425 500 460 510.5 c 128,-1,23
 495 521 495 521 520 547 c 1,24,-1
 560 482 l 1,25,26
 529 446 529 446 485 431 c 128,-1,27
 441 416 441 416 365 416 c 2,28,-1
 228 416 l 1,0,-1
EndSplineSet
Validated: 1
EndChar

StartChar: tcaron.swsh
Encoding: 65630 -1 304
Width: 462
GlyphClass: 2
Flags: W
AnchorPoint: "Anchor-0" 255 0 basechar 0
LayerCount: 2
Back
Fore
SplineSet
353 563 m 1,0,-1
 285 563 l 1,1,-1
 305 767 l 1,2,-1
 397 767 l 1,3,-1
 353 563 l 1,0,-1
228 416 m 1,4,-1
 228 150 l 2,5,6
 228 114 228 114 247.5 96.5 c 128,-1,7
 267 79 267 79 301 79 c 0,8,9
 347 79 347 79 382 111 c 1,10,-1
 407 33 l 1,11,12
 383 13 383 13 348.5 1.5 c 128,-1,13
 314 -10 314 -10 274 -10 c 0,14,15
 205 -10 205 -10 163.5 24.5 c 128,-1,16
 122 59 122 59 121 132 c 2,17,-1
 121 416 l 1,18,-1
 26 416 l 1,19,-1
 26 500 l 1,20,-1
 121 500 l 1,21,-1
 121 617 l 1,22,-1
 228 647 l 1,23,-1
 228 500 l 1,24,-1
 365 500 l 2,25,26
 425 500 425 500 460 510.5 c 128,-1,27
 495 521 495 521 520 547 c 1,28,-1
 560 482 l 1,29,30
 529 446 529 446 485 431 c 128,-1,31
 441 416 441 416 365 416 c 2,32,-1
 228 416 l 1,4,-1
EndSplineSet
Validated: 1
EndChar

StartChar: uni0163.swsh
Encoding: 65631 -1 305
Width: 456
GlyphClass: 2
Flags: W
AnchorPoint: "Anchor-0" 255 0 basechar 0
LayerCount: 2
Back
Fore
SplineSet
228 416 m 1,0,-1
 228 150 l 2,1,2
 228 114 228 114 247.5 96.5 c 128,-1,3
 267 79 267 79 301 79 c 0,4,5
 347 79 347 79 382 111 c 1,6,-1
 407 33 l 1,7,8
 376 6 376 6 331 -4 c 1,9,10
 359 -24 359 -24 373 -50 c 128,-1,11
 387 -76 387 -76 387 -105 c 0,12,13
 387 -153 387 -153 353.5 -184 c 128,-1,14
 320 -215 320 -215 263 -215 c 0,15,16
 190 -215 190 -215 149 -179 c 1,17,-1
 182 -116 l 1,18,19
 210 -146 210 -146 251 -146 c 0,20,21
 276 -146 276 -146 292 -130.5 c 128,-1,22
 308 -115 308 -115 308 -90 c 0,23,24
 308 -64 308 -64 293.5 -46 c 128,-1,25
 279 -28 279 -28 240 -8 c 1,26,27
 185 0 185 0 153.5 34 c 128,-1,28
 122 68 122 68 121 132 c 2,29,-1
 121 416 l 1,30,-1
 26 416 l 1,31,-1
 26 500 l 1,32,-1
 121 500 l 1,33,-1
 121 617 l 1,34,-1
 228 647 l 1,35,-1
 228 500 l 1,36,-1
 365 500 l 2,37,38
 425 500 425 500 460 510.5 c 128,-1,39
 495 521 495 521 520 547 c 1,40,-1
 560 482 l 1,41,42
 529 446 529 446 485 431 c 128,-1,43
 441 416 441 416 365 416 c 2,44,-1
 228 416 l 1,0,-1
EndSplineSet
Validated: 1
EndChar

StartChar: y.swsh
Encoding: 65633 -1 307
Width: 567
GlyphClass: 2
Flags: W
LayerCount: 2
Back
Fore
SplineSet
61.5 -205.5 m 128,-1,1
 33 -196 33 -196 11 -175 c 1,2,-1
 42 -93 l 1,3,4
 72 -129 72 -129 124 -129 c 0,5,6
 154 -129 154 -129 174.5 -113.5 c 128,-1,7
 195 -98 195 -98 211 -57 c 2,8,-1
 233 -3 l 1,9,-1
 181 121 l 1,10,-1
 25 500 l 1,11,-1
 145 500 l 1,12,-1
 255 186 l 1,13,-1
 284 92 l 1,14,-1
 318 195 l 1,15,-1
 415 460 l 2,16,17
 439 527 439 527 475 558 c 128,-1,18
 511 589 511 589 564 589 c 0,19,20
 596 589 596 589 616.5 582.5 c 128,-1,21
 637 576 637 576 653 561 c 1,22,-1
 632 493 l 1,23,24
 622 501 622 501 612.5 504 c 128,-1,25
 603 507 603 507 586 507 c 0,26,27
 557 507 557 507 538.5 491.5 c 128,-1,28
 520 476 520 476 507 439 c 2,29,-1
 314 -59 l 2,30,31
 283 -145 283 -145 240.5 -180 c 128,-1,32
 198 -215 198 -215 129 -215 c 0,33,0
 90 -215 90 -215 61.5 -205.5 c 128,-1,1
EndSplineSet
Validated: 1
EndChar

StartChar: c_t
Encoding: 65636 -1 310
Width: 920
GlyphClass: 3
Flags: W
LayerCount: 2
Back
Fore
SplineSet
903 33 m 1,0,1
 880 13 880 13 845.5 1.5 c 128,-1,2
 811 -10 811 -10 771 -10 c 0,3,4
 702 -10 702 -10 660 24.5 c 128,-1,5
 618 59 618 59 618 132 c 2,6,-1
 618 533 l 2,7,8
 618 590 618 590 597.5 617.5 c 128,-1,9
 577 645 577 645 541 645 c 256,10,11
 505 645 505 645 485.5 622.5 c 128,-1,12
 466 600 466 600 466 546 c 0,13,14
 466 470 466 470 518 370 c 1,15,-1
 418 330 l 1,16,17
 405 376 405 376 376 400.5 c 128,-1,18
 347 425 347 425 303 425 c 0,19,20
 236 425 236 425 199 379 c 128,-1,21
 162 333 162 333 162 249 c 256,22,23
 162 165 162 165 199 120 c 128,-1,24
 236 75 236 75 303 75 c 0,25,26
 351 75 351 75 382 100 c 128,-1,27
 413 125 413 125 426 172 c 1,28,-1
 522 140 l 1,29,30
 502 70 502 70 446 30 c 128,-1,31
 390 -10 390 -10 305 -10 c 0,32,33
 187 -10 187 -10 120.5 59 c 128,-1,34
 54 128 54 128 54 250 c 256,35,36
 54 372 54 372 120 441 c 128,-1,37
 186 510 186 510 303 510 c 0,38,39
 352 510 352 510 391 492 c 1,40,41
 378 523 378 523 378 563 c 0,42,43
 378 646 378 646 425.5 687.5 c 128,-1,44
 473 729 473 729 549 729 c 0,45,46
 624 729 624 729 674.5 687.5 c 128,-1,47
 725 646 725 646 725 563 c 2,48,-1
 725 500 l 1,49,-1
 899 500 l 1,50,-1
 899 416 l 1,51,-1
 725 416 l 1,52,-1
 725 150 l 2,53,54
 725 114 725 114 744 96.5 c 128,-1,55
 763 79 763 79 797 79 c 0,56,57
 822 79 822 79 841.5 87 c 128,-1,58
 861 95 861 95 878 111 c 1,59,-1
 903 33 l 1,0,1
EndSplineSet
Validated: 1
Ligature2: "'dlig' Discretionary Ligatures lookup 45 subtable" c t
EndChar

StartChar: s_t
Encoding: 65637 -1 313
Width: 877
GlyphClass: 3
Flags: W
LayerCount: 2
Back
Fore
SplineSet
860 33 m 1,0,1
 836 13 836 13 801.5 1.5 c 128,-1,2
 767 -10 767 -10 727 -10 c 0,3,4
 658 -10 658 -10 616.5 24.5 c 128,-1,5
 575 59 575 59 575 132 c 2,6,-1
 575 531 l 2,7,8
 575 588 575 588 553 615.5 c 128,-1,9
 531 643 531 643 496 643 c 0,10,11
 460 643 460 643 441 619.5 c 128,-1,12
 422 596 422 596 422 554 c 0,13,14
 422 517 422 517 433 482 c 128,-1,15
 444 447 444 447 476 399 c 1,16,-1
 404 353 l 1,17,18
 387 391 387 391 352 409.5 c 128,-1,19
 317 428 317 428 270 428 c 0,20,21
 225 428 225 428 195 409 c 128,-1,22
 165 390 165 390 165 365 c 0,23,24
 165 337 165 337 191.5 321.5 c 128,-1,25
 218 306 218 306 288 293 c 0,26,27
 393 276 393 276 437.5 241.5 c 128,-1,28
 482 207 482 207 482 144 c 0,29,30
 482 99 482 99 456 64 c 128,-1,31
 430 29 430 29 381 9.5 c 128,-1,32
 332 -10 332 -10 264 -10 c 0,33,34
 188 -10 188 -10 129 16.5 c 128,-1,35
 70 43 70 43 40 96 c 1,36,-1
 112 155 l 1,37,38
 131 114 131 114 172.5 93 c 128,-1,39
 214 72 214 72 268 72 c 0,40,41
 319 72 319 72 347 90 c 128,-1,42
 375 108 375 108 375 136 c 0,43,44
 375 161 375 161 348 177 c 128,-1,45
 321 193 321 193 254 205 c 0,46,47
 149 223 149 223 103.5 258.5 c 128,-1,48
 58 294 58 294 58 356 c 0,49,50
 58 397 58 397 83 432.5 c 128,-1,51
 108 468 108 468 155.5 489 c 128,-1,52
 203 510 203 510 268 510 c 0,53,54
 314 510 314 510 351 500 c 1,55,56
 333 529 333 529 333 560 c 0,57,58
 333 645 333 645 381.5 687 c 128,-1,59
 430 729 430 729 508 729 c 0,60,61
 584 729 584 729 633 687.5 c 128,-1,62
 682 646 682 646 682 562 c 2,63,-1
 682 500 l 1,64,-1
 856 500 l 1,65,-1
 856 416 l 1,66,-1
 682 416 l 1,67,-1
 682 150 l 2,68,69
 682 114 682 114 701 96.5 c 128,-1,70
 720 79 720 79 754 79 c 0,71,72
 800 79 800 79 835 111 c 1,73,-1
 860 33 l 1,0,1
EndSplineSet
Validated: 1
Ligature2: "'dlig' Discretionary Ligatures lookup 45 subtable" s t
EndChar

StartChar: longs_l
Encoding: 65639 -1 315
Width: 592
GlyphClass: 3
Flags: W
LayerCount: 2
Back
Fore
SplineSet
80 572 m 2,0,1
 80 649 80 649 118.5 690.5 c 128,-1,2
 157 732 157 732 232 732 c 0,3,4
 289 732 289 732 315 709 c 1,5,-1
 300 631 l 1,6,7
 283 645 283 645 256 645 c 0,8,9
 186 645 186 645 186 563 c 2,10,-1
 186 0 l 1,11,-1
 80 0 l 1,12,-1
 80 572 l 2,0,1
467 146 m 2,13,14
 467 109 467 109 478 94.5 c 128,-1,15
 489 80 489 80 518 80 c 0,16,17
 537 80 537 80 551.5 83 c 128,-1,18
 566 86 566 86 585 93 c 1,19,-1
 572 7 l 1,20,21
 538 -10 538 -10 489 -10 c 0,22,23
 422 -10 422 -10 391 24 c 128,-1,24
 360 58 360 58 360 131 c 2,25,-1
 360 725 l 1,26,-1
 467 725 l 1,27,-1
 467 146 l 2,13,14
EndSplineSet
Validated: 1
Substitution2: "'ss02' Style Set 2 lookup 48 subtable" longs_l.ss02
Ligature2: "'hlig' Historic Ligatures lookup 46 subtable" longs l
Ligature2: "'dlig' Discretionary Ligatures lookup 45 subtable" longs l
Substitution2: "'salt' Stylistic Alternatives lookup 42 subtable" longs_l.ss02
Substitution2: "'aalt' Access All Alternates lookup 0 subtable" longs_l.ss02
EndChar

StartChar: f_t.liga
Encoding: 65641 -1 317
Width: 771
GlyphClass: 3
Flags: W
LayerCount: 2
Back
Fore
SplineSet
754 33 m 1,0,1
 730 13 730 13 695.5 1.5 c 128,-1,2
 661 -10 661 -10 621 -10 c 0,3,4
 552 -10 552 -10 510.5 24.5 c 128,-1,5
 469 59 469 59 468 132 c 2,6,-1
 468 416 l 1,7,-1
 228 416 l 1,8,-1
 228 0 l 1,9,-1
 121 0 l 1,10,-1
 121 416 l 1,11,-1
 27 416 l 1,12,-1
 27 500 l 1,13,-1
 121 500 l 1,14,-1
 121 572 l 2,15,16
 121 648 121 648 166.5 690 c 128,-1,17
 212 732 212 732 293 732 c 0,18,19
 322 732 322 732 346 725.5 c 128,-1,20
 370 719 370 719 384 708 c 1,21,-1
 366 631 l 1,22,23
 344 645 344 645 311 645 c 0,24,25
 225 645 225 645 225 564 c 2,26,-1
 225 500 l 1,27,-1
 468 500 l 1,28,-1
 468 617 l 1,29,-1
 575 647 l 1,30,-1
 575 500 l 1,31,-1
 750 500 l 1,32,-1
 750 416 l 1,33,-1
 575 416 l 1,34,-1
 575 150 l 2,35,36
 575 114 575 114 594.5 96.5 c 128,-1,37
 614 79 614 79 648 79 c 0,38,39
 694 79 694 79 729 111 c 1,40,-1
 754 33 l 1,0,1
EndSplineSet
Validated: 1
Ligature2: "'liga' Standard Ligatures lookup 52 subtable" f t
EndChar

StartChar: g_j.liga
Encoding: 65642 -1 318
Width: 838
GlyphClass: 3
Flags: W
LayerCount: 2
Back
Fore
SplineSet
753.5 699 m 128,-1,1
 773 681 773 681 773 651 c 256,2,3
 773 621 773 621 753.5 602.5 c 128,-1,4
 734 584 734 584 701 584 c 0,5,6
 669 584 669 584 649.5 602.5 c 128,-1,7
 630 621 630 621 630 651 c 256,8,9
 630 681 630 681 649.5 699 c 128,-1,10
 669 717 669 717 701 717 c 0,11,0
 734 717 734 717 753.5 699 c 128,-1,1
467 509.5 m 128,-1,13
 439 495 439 495 432 466 c 1,14,15
 491 419 491 419 491 341 c 0,16,17
 491 262 491 262 433.5 217 c 128,-1,18
 376 172 376 172 274 172 c 0,19,20
 230 172 230 172 194 181 c 1,21,22
 137 170 137 170 137 129 c 0,23,24
 137 78 137 78 225 78 c 2,25,-1
 358 78 l 2,26,27
 437 78 437 78 480.5 44 c 128,-1,28
 524 10 524 10 524 -50 c 0,29,30
 524 -127 524 -127 454 -171 c 128,-1,31
 384 -215 384 -215 271 -215 c 0,32,33
 152 -215 152 -215 91 -180 c 128,-1,34
 30 -145 30 -145 30 -87 c 0,35,36
 30 -51 30 -51 51 -24.5 c 128,-1,37
 72 2 72 2 111 15 c 1,38,39
 50 50 50 50 50 108 c 0,40,41
 50 143 50 143 71.5 169 c 128,-1,42
 93 195 93 195 129 207 c 1,43,44
 93 229 93 229 74 263 c 128,-1,45
 55 297 55 297 55 341 c 0,46,47
 55 419 55 419 114 464.5 c 128,-1,48
 173 510 173 510 274 510 c 0,49,50
 331 510 331 510 379 494 c 1,51,52
 388 545 388 545 426.5 575.5 c 128,-1,53
 465 606 465 606 522 605 c 1,54,-1
 540 522 l 1,55,12
 495 524 495 524 467 509.5 c 128,-1,13
648 500 m 1,56,-1
 755 500 l 1,57,-1
 755 -46 l 2,58,59
 755 -137 755 -137 713 -176 c 128,-1,60
 671 -215 671 -215 606 -215 c 0,61,62
 567 -215 567 -215 534 -202 c 1,63,-1
 552 -112 l 1,64,65
 571 -123 571 -123 600 -123 c 0,66,67
 626 -123 626 -123 637 -104 c 128,-1,68
 648 -85 648 -85 648 -38 c 2,69,-1
 648 500 l 1,56,-1
355.5 272.5 m 128,-1,71
 385 297 385 297 385 341 c 256,72,73
 385 385 385 385 355.5 409.5 c 128,-1,74
 326 434 326 434 273 434 c 0,75,76
 221 434 221 434 191 409.5 c 128,-1,77
 161 385 161 385 161 341 c 256,78,79
 161 297 161 297 191 272.5 c 128,-1,80
 221 248 221 248 273 248 c 0,81,70
 326 248 326 248 355.5 272.5 c 128,-1,71
216 -11 m 2,82,83
 169 -11 169 -11 144.5 -25.5 c 128,-1,84
 120 -40 120 -40 120 -67 c 0,85,86
 120 -100 120 -100 159.5 -117.5 c 128,-1,87
 199 -135 199 -135 279 -135 c 0,88,89
 353 -135 353 -135 393 -114 c 128,-1,90
 433 -93 433 -93 433 -62 c 0,91,92
 433 -37 433 -37 412 -24 c 128,-1,93
 391 -11 391 -11 341 -11 c 2,94,-1
 216 -11 l 2,82,83
EndSplineSet
Validated: 33
Ligature2: "'liga' Standard Ligatures lookup 52 subtable" g j
EndChar

StartChar: j_j.liga
Encoding: 65643 -1 319
Width: 546
GlyphClass: 3
Flags: W
LayerCount: 2
Back
Fore
SplineSet
188.5 699 m 128,-1,1
 208 681 208 681 208 651 c 256,2,3
 208 621 208 621 188.5 602.5 c 128,-1,4
 169 584 169 584 137 584 c 0,5,6
 104 584 104 584 84.5 602.5 c 128,-1,7
 65 621 65 621 65 651 c 256,8,9
 65 681 65 681 84.5 699 c 128,-1,10
 104 717 104 717 137 717 c 0,11,0
 169 717 169 717 188.5 699 c 128,-1,1
462.5 699 m 128,-1,13
 482 681 482 681 482 651 c 256,14,15
 482 621 482 621 462.5 602.5 c 128,-1,16
 443 584 443 584 410 584 c 256,17,18
 377 584 377 584 357.5 602.5 c 128,-1,19
 338 621 338 621 338 651 c 256,20,21
 338 681 338 681 357.5 699 c 128,-1,22
 377 717 377 717 410 717 c 256,23,12
 443 717 443 717 462.5 699 c 128,-1,13
190 -44 m 2,24,25
 190 -133 190 -133 143.5 -174 c 128,-1,26
 97 -215 97 -215 26 -215 c 0,27,28
 -39 -215 -39 -215 -84 -182 c 1,29,-1
 -65 -96 l 1,30,31
 -31 -124 -31 -124 12 -124 c 0,32,33
 46 -124 46 -124 64.5 -103 c 128,-1,34
 83 -82 83 -82 83 -34 c 2,35,-1
 83 500 l 1,36,-1
 190 500 l 1,37,-1
 190 -44 l 2,24,25
463 -46 m 2,38,39
 463 -136 463 -136 414.5 -175.5 c 128,-1,40
 366 -215 366 -215 298 -215 c 0,41,42
 242 -215 242 -215 200 -185 c 1,43,-1
 219 -96 l 1,44,45
 250 -123 250 -123 292 -123 c 0,46,47
 356 -123 356 -123 356 -38 c 2,48,-1
 356 500 l 1,49,-1
 463 500 l 1,50,-1
 463 -46 l 2,38,39
EndSplineSet
Validated: 1
Ligature2: "'liga' Standard Ligatures lookup 52 subtable" j j
EndChar

StartChar: t_t.liga
Encoding: 65644 -1 320
Width: 786
GlyphClass: 3
Flags: W
LayerCount: 2
Back
Fore
SplineSet
769 33 m 1,0,1
 745 13 745 13 710.5 1.5 c 128,-1,2
 676 -10 676 -10 636 -10 c 0,3,4
 567 -10 567 -10 526 24.5 c 128,-1,5
 485 59 485 59 484 132 c 2,6,-1
 484 416 l 1,7,-1
 228 416 l 1,8,-1
 228 150 l 2,9,10
 228 114 228 114 246.5 96.5 c 128,-1,11
 265 79 265 79 298 79 c 0,12,13
 344 79 344 79 377 112 c 1,14,-1
 403 33 l 1,15,16
 380 13 380 13 345.5 1.5 c 128,-1,17
 311 -10 311 -10 272 -10 c 0,18,19
 204 -10 204 -10 163 24.5 c 128,-1,20
 122 59 122 59 121 132 c 2,21,-1
 121 416 l 1,22,-1
 26 416 l 1,23,-1
 26 500 l 1,24,-1
 121 500 l 1,25,-1
 121 617 l 1,26,-1
 228 647 l 1,27,-1
 228 500 l 1,28,-1
 484 500 l 1,29,-1
 484 617 l 1,30,-1
 591 647 l 1,31,-1
 591 500 l 1,32,-1
 765 500 l 1,33,-1
 765 416 l 1,34,-1
 591 416 l 1,35,-1
 591 150 l 2,36,37
 591 114 591 114 610 96.5 c 128,-1,38
 629 79 629 79 663 79 c 0,39,40
 688 79 688 79 707.5 87 c 128,-1,41
 727 95 727 95 744 111 c 1,42,-1
 769 33 l 1,0,1
EndSplineSet
Validated: 1
Ligature2: "'liga' Standard Ligatures lookup 52 subtable" t t
EndChar

StartChar: g.ss01_j
Encoding: 65645 -1 321
Width: 884
GlyphClass: 3
Flags: W
LayerCount: 2
Back
Fore
SplineSet
818.5 699 m 128,-1,1
 838 681 838 681 838 651 c 256,2,3
 838 621 838 621 818.5 602.5 c 128,-1,4
 799 584 799 584 766 584 c 0,5,6
 734 584 734 584 714.5 602.5 c 128,-1,7
 695 621 695 621 695 651 c 256,8,9
 695 681 695 681 714.5 699 c 128,-1,10
 734 717 734 717 766 717 c 0,11,0
 799 717 799 717 818.5 699 c 128,-1,1
455 500 m 1,12,-1
 546 500 l 1,13,-1
 546 40 l 2,14,15
 546 -215 546 -215 284 -215 c 0,16,17
 198 -215 198 -215 141 -183.5 c 128,-1,18
 84 -152 84 -152 71 -85 c 1,19,-1
 173 -49 l 1,20,21
 181 -92 181 -92 211 -113 c 128,-1,22
 241 -134 241 -134 298 -134 c 0,23,24
 360 -134 360 -134 399 -93 c 128,-1,25
 438 -52 438 -52 438 15 c 2,26,-1
 438 82 l 1,27,28
 413 46 413 46 371.5 25 c 128,-1,29
 330 4 330 4 277 4 c 0,30,31
 174 4 174 4 114.5 71 c 128,-1,32
 55 138 55 138 55 257 c 256,33,34
 55 376 55 376 114.5 443 c 128,-1,35
 174 510 174 510 277 510 c 0,36,37
 335 510 335 510 379 485.5 c 128,-1,38
 423 461 423 461 446 418 c 1,39,-1
 455 500 l 1,12,-1
713 500 m 1,40,-1
 820 500 l 1,41,-1
 820 -46 l 2,42,43
 820 -136 820 -136 771.5 -175.5 c 128,-1,44
 723 -215 723 -215 654 -215 c 0,45,46
 598 -215 598 -215 556 -185 c 1,47,-1
 576 -96 l 1,48,49
 607 -123 607 -123 648 -123 c 0,50,51
 713 -123 713 -123 713 -38 c 2,52,-1
 713 500 l 1,40,-1
401 134 m 128,-1,54
 438 177 438 177 438 252 c 2,55,-1
 438 263 l 2,56,57
 438 337 438 337 401 380 c 128,-1,58
 364 423 364 423 301 423 c 0,59,60
 236 423 236 423 199.5 379 c 128,-1,61
 163 335 163 335 163 257 c 256,62,63
 163 179 163 179 199.5 135 c 128,-1,64
 236 91 236 91 301 91 c 0,65,53
 364 91 364 91 401 134 c 128,-1,54
EndSplineSet
Validated: 1
Ligature2: "'liga' Standard Ligatures lookup 52 subtable" g.ss01 j
EndChar

StartChar: longs_l.ss02
Encoding: 65647 -1 323
Width: 552
GlyphClass: 3
Flags: W
LayerCount: 2
Back
Fore
SplineSet
80 572 m 2,0,1
 80 649 80 649 118.5 690.5 c 128,-1,2
 157 732 157 732 232 732 c 0,3,4
 289 732 289 732 315 709 c 1,5,-1
 300 631 l 1,6,7
 283 645 283 645 256 645 c 0,8,9
 186 645 186 645 186 563 c 2,10,-1
 186 0 l 1,11,-1
 80 0 l 1,12,-1
 80 572 l 2,0,1
467 0 m 1,13,-1
 360 0 l 1,14,-1
 360 725 l 1,15,-1
 467 725 l 1,16,-1
 467 0 l 1,13,-1
EndSplineSet
Validated: 1
EndChar

